<?xml version="1.0" encoding="utf-8"?>
<!-- Generator: Adobe Illustrator 16.0.4, SVG Export Plug-In . SVG Version: 6.00 Build 0)  -->
<!DOCTYPE svg PUBLIC "-//W3C//DTD SVG 1.1//EN" "http://www.w3.org/Graphics/SVG/1.1/DTD/svg11.dtd">
<svg version="1.1" id="Layer_1" xmlns="http://www.w3.org/2000/svg" xmlns:xlink="http://www.w3.org/1999/xlink" x="0px" y="0px"
	 width="400px" height="400px" viewBox="0 0 400 400" enable-background="new 0 0 400 400" xml:space="preserve">
<g>
	<g>
		<g>
			<path fill="#03A04D" d="M153.857,37.554l-37.521,135.857l37.521,138.574h-47.846l-31.5-114.559v114.559H26.134V37.609h48.377
				V148.01l31.5-110.452L153.857,37.554z"/>
			<path fill="#03A04D" d="M294.755,311.979h-48.376v-115.58h-24.212v115.583h-48.376V37.554h48.384v110.452h24.199V37.554h48.377
				L294.755,311.979z"/>
			<path fill="#03A04D" d="M373.757,37.613V311.99h-48.375V37.613H373.757z"/>
		</g>
		<g>
			<path fill="#2E2925" d="M148.135,307.312l-25.602-25.599l0.791,2.832l13.605,13.604l16.888,13.809h-47.846l-31.5-114.559v-1.178
				l-24.185-24.185v2.044l24.185,24.184v1.115l-24.185-24.185v2.043l24.185,24.185v1.114l-24.185-24.185v2.04l24.185,24.184v1.114
				l-24.185-24.185v2.044l24.185,24.184v1.115l-24.185-24.185v2.043l24.185,24.185v1.114l-24.185-24.185v2.043l24.185,24.185v1.114
				l-24.185-24.185v2.04l24.185,24.184v1.115l-24.185-24.185v2.04l24.185,24.184v1.115l-24.185-24.185v2.043l24.185,24.184v1.114
				l-24.185-24.184v2.04l24.185,24.185v1.114l-24.185-24.185v2.04l24.185,24.185v1.114l-24.185-24.185v2.044l24.185,24.185v1.114
				l-24.185-24.185v2.043l24.185,24.185v1.114L50.287,213.07v2.04l24.185,24.185v1.114l-24.185-24.184v2.038l24.185,24.185v1.114
				l-24.185-24.185v2.045l24.185,24.185v1.114l-24.185-24.185v2.038l24.185,24.185v1.115L50.287,225.69v2.043l24.185,24.185v1.114
				l-24.185-24.185v2.045l24.185,24.185v1.114l-24.185-24.185v2.038l24.185,24.185v1.115L50.287,235.16v2.04l24.185,24.185v1.114
				l-24.185-24.185v2.04l24.185,24.185v1.114l-24.185-24.185v2.04l24.185,24.185v1.112l-24.185-24.185v2.045l24.185,24.185v1.114
				l-24.185-24.184v2.043l24.185,24.185v1.114l-24.185-24.185v2.043l24.185,24.185v1.114l-24.185-24.185v2.04l24.185,24.185v1.115
				l-24.185-24.185v2.043l24.185,24.185v1.114l-24.185-24.185v2.04l24.185,24.185v1.112l-24.185-24.184v2.039l24.185,24.185v1.115
				l-24.185-24.185v2.043l24.185,24.185v1.114l-24.185-24.185v2.045l24.185,24.185v1.114l-24.185-24.185v2.038l24.185,24.185v1.115
				l-24.185-24.185v2.043l24.185,24.185v1.114l-24.185-24.185v2.045l24.185,24.185v1.114l-24.185-24.185v2.039l24.185,24.184v1.115
				l-24.185-24.185v2.143l24.185,24.192H26.095V37.613l24.192,24.145v1.933l24.185,24.185v1.114L50.287,64.806v2.04L74.472,91.03
				v1.115L50.287,67.96V70l24.185,24.185v1.114L50.287,71.114v2.04l24.185,24.185v1.115L50.287,74.268v2.04l24.185,24.185v1.114
				L50.287,77.422v2.043l24.185,24.185v1.114L50.287,80.58v2.04l24.185,24.185v1.114L50.287,83.734v2.04l24.185,24.184v1.115
				L50.287,86.888v2.043l24.185,24.185v1.115L50.287,90.045v2.04l24.185,24.185v1.114L50.287,93.199v2.04l24.185,24.185v1.114
				L50.287,96.354v2.04l24.185,24.184v1.114L50.287,99.507v2.04l24.185,24.185v1.114l-24.185-24.184v2.04l24.185,24.184V130
				l-24.185-24.185v2.04l24.185,24.185v1.114L50.287,108.97v2.043l24.185,24.185v1.114l-24.185-24.185v2.044l24.185,24.184v1.114
				l-24.185-24.185v2.04l24.185,24.185v1.114l-24.185-24.184v2.04l24.185,24.184v1.115l-24.185-24.185v2.043l24.228,24.228
				l31.457-110.303l18.254,24.248l18.01,17.684l-0.239,0.87l-17.948-17.947l-0.461,1.579l17.967,17.967l-0.239,0.874l-17.979-17.979
				l-0.563,1.929l18.1,17.648l-0.239,0.875l-18.011-18.011l-0.461,1.579l18.031,18.03l-0.24,0.874L121.911,69.74l-0.46,1.579
				l18.062,18.062l-0.241,0.874l-18.069-18.069l-0.46,1.579l18.093,18.089l-0.24,0.875l-18.101-18.101l-0.46,1.579l18.125,18.121
				l-0.241,0.874l-18.131-18.132l-0.461,1.579l18.152,18.152l-0.24,0.874l-18.164-18.164l-0.46,1.579l18.184,18.183l-0.24,0.875
				L118.36,81.95l-0.461,1.579l18.215,18.215l-0.241,0.874l-18.227-18.227l-0.46,1.579l18.246,18.247l-0.239,0.874l-18.259-18.258
				l-0.461,1.579l18.278,18.278l-0.239,0.875l-18.286-18.29l-0.461,1.579l18.31,18.31l-0.24,0.874l-18.317-18.317l-0.461,1.579
				l18.337,18.337l-0.24,0.874L114.804,94.16l-0.46,1.579l18.369,18.369l-0.24,0.875l-18.381-18.381l-0.46,1.579l18.4,18.4
				l-0.24,0.874l-18.412-18.412l-0.461,1.58l18.431,18.432l-0.24,0.87l-18.444-18.444l-0.46,1.579l18.463,18.463l-0.24,0.874
				l-18.475-18.475l-0.461,1.579l18.495,18.495l-0.239,0.874l-18.507-18.506l-0.46,1.579l18.525,18.526l-0.239,0.875l-18.535-18.534
				l-0.46,1.579l18.558,18.554l-0.24,0.874l-18.566-18.565l-0.46,1.579l18.584,18.585l-0.239,0.874L109.11,113.69l-0.46,1.579
				l18.616,18.617l-0.239,0.875l-18.628-18.629l-0.461,1.579l18.648,18.648l-0.24,0.871l-18.661-18.66l-0.46,1.579l18.68,18.68
				l-0.24,0.875l-18.692-18.692l-0.461,1.579l18.711,18.711l-0.24,0.874l-18.723-18.723l-0.46,1.579l18.742,18.743l-0.24,0.875
				l-18.75-18.755l-0.46,1.579l18.773,18.774l-0.24,0.874l-18.782-18.782l-0.46,1.579l18.801,18.805l-0.239,0.875l-18.814-18.813
				l-0.461,1.579l18.833,18.833l-0.239,0.874l-18.845-18.845l-0.461,1.579l18.865,18.865l-0.241,0.874l-18.876-18.877l-0.46,1.579
				l18.896,18.896l-0.24,0.875l-18.908-18.908l-0.461,1.579l18.928,18.928l-0.24,0.87l-18.94-18.939l-0.46,1.579l18.959,18.959
				l-0.24,0.874l-18.971-18.971l-0.461,1.579l18.992,18.991l-0.241,0.874l-18.998-18.999l-0.461,1.579l19.022,19.023l-0.239,0.874
				l-19.031-19.03l-0.461,1.579l19.05,19.05l-0.24,0.874l-19.062-19.062l-0.46,1.58l19.081,19.081l-0.24,0.87l-19.093-19.093
				l-0.46,1.579l19.125,19.125l0.414,1.527l-19.791-19.79l-0.461,1.579l21.01,21.011l0.414,1.528l-21.676-21.676l-0.46,1.579
				l22.896,22.896l0.413,1.528l-23.562-23.562l-0.461,1.579l24.779,24.779l0.414,1.527L94.872,162.52l-0.46,1.579l26.665,26.665
				l0.414,1.528l-27.331-27.331l-0.46,1.579l28.551,28.551l0.413,1.528l-29.216-29.217l-0.461,1.579l30.437,30.437l0.414,1.528
				l-31.104-31.103l-0.46,1.579l32.319,32.32l0.414,1.527l-32.934-32.934l0.792,2.831l32.902,32.903l0.413,1.526l-32.882-32.882
				l0.792,2.831l32.851,32.852l0.413,1.527L94.518,181.09l0.792,2.831l32.799,32.8l0.413,1.528l-32.784-32.785l0.792,2.831
				l32.749,32.75l0.414,1.526l-32.733-32.732l0.791,2.831l32.698,32.697l0.414,1.528L98.18,194.213l0.791,2.832l32.65,32.65
				l0.414,1.528l-32.631-32.632l0.792,2.832l32.599,32.599l0.414,1.526l-32.579-32.578l0.791,2.831l32.548,32.549l0.413,1.526
				l-32.528-32.527l0.792,2.831l32.497,32.497l0.413,1.526l-32.476-32.476l0.791,2.83l32.446,32.445l0.413,1.528l-32.43-32.43
				l0.792,2.831l32.394,32.395l0.413,1.528l-32.378-32.379l0.792,2.83l32.343,32.348l0.414,1.527l-32.328-32.327l0.792,2.83
				l32.295,32.298l0.414,1.526l-32.276-32.275l0.792,2.831L141,264.311l0.413,1.526l-32.225-32.225l0.791,2.831l32.194,32.194
				l0.413,1.527l-32.174-32.174l0.792,2.831l32.142,32.142l0.413,1.528l-32.123-32.122l0.792,2.831l32.091,32.091l0.414,1.528
				l-32.075-32.072l-0.422-1.508l1.213,4.34l32.04,32.039l0.413,1.528l-32.024-32.024l0.792,2.831l31.988,31.989l0.413,1.526
				L115.3,255.497l0.792,2.832l31.941,31.942l0.413,1.526l-31.92-31.923l0.791,2.832l31.89,31.89l0.413,1.528l-31.871-31.87
				l0.792,2.83l31.839,31.84l0.414,1.528l-31.819-31.82l0.791,2.832l31.788,31.787l0.414,1.528l-31.768-31.769l0.791,2.831
				l31.736,31.737l0.414,1.528l-31.717-31.723l0.792,2.832l31.685,31.687L148.135,307.312z M50.377,61.695l0.56-0.555l23.577,23.578
				v1.114L50.377,61.695z M74.582,150.991v-2.04l-24.185-24.184v2.04L74.582,150.991z M74.582,154.149v-2.04l-24.185-24.185v2.04
				L74.582,154.149z M74.582,157.307v-2.04l-24.185-24.185v2.04L74.582,157.307z M74.582,160.465v-2.044l-24.185-24.184v2.043
				L74.582,160.465z M74.582,163.623v-2.044l-24.185-24.185v2.044L74.582,163.623z M74.582,166.777v-2.04l-24.185-24.185v2.04
				L74.582,166.777z M74.582,169.931v-2.04l-24.185-24.185v2.04L74.582,169.931z M74.582,173.088v-2.04l-24.185-24.184v2.043
				L74.582,173.088z M74.582,176.247v-2.04l-24.185-24.185v2.04L74.582,176.247z M74.582,179.4v-2.04l-24.185-24.185v2.04
				L74.582,179.4z M74.582,182.558v-2.043L50.397,156.33v2.044L74.582,182.558z M74.582,185.712v-2.04l-24.185-24.185v2.04
				L74.582,185.712z M74.582,188.871v-2.044l-24.185-24.184v2.043L74.582,188.871z M74.582,192.028v-2.04l-24.185-24.185v2.043
				L74.582,192.028z M74.582,193.146l-24.185-24.184v2.043l24.185,24.185V193.146z M52.511,59.561l-0.559,0.555l22.559,22.559V81.56
				L52.511,59.561z M54.083,57.982l-0.559,0.555l20.979,20.979v-1.115L54.083,57.982z M55.67,56.411l-0.56,0.555l19.397,19.396
				v-1.114L55.67,56.411z M57.245,54.832l-0.559,0.555l17.817,17.818V72.09L57.245,54.832z M58.832,53.261l-0.559,0.555
				l16.238,16.239V68.94L58.832,53.261z M60.375,51.658l-0.559,0.555l14.66,14.66v-1.114L60.375,51.658z M61.961,50.091
				l-0.559,0.555l13.08,13.081v-1.114L61.961,50.091z M63.537,48.508l-0.559,0.555L74.48,60.565v-1.114L63.537,48.508z
				 M65.108,46.93l-0.559,0.555l9.923,9.922v-1.114L65.108,46.93z M66.695,45.358l-0.556,0.555l8.344,8.344v-1.114L66.695,45.358z
				 M68.293,43.799l-0.559,0.555l6.765,6.765v-1.115L68.293,43.799z M69.869,42.22l-0.559,0.555l5.185,5.186v-1.114L69.869,42.22z
				 M71.443,40.641l-0.559,0.555l3.606,3.607v-1.114L71.443,40.641z M73.018,39.062l-0.559,0.555l2.028,2.028v-1.114L73.018,39.062z
				 M74.042,38.042l0.449,0.449v-0.898L74.042,38.042z M124.333,287.84l6.599,5.395l-7.063-7.062L124.333,287.84z M126.254,60.262
				l-0.61,0.5l17.152,17.152l0.24-0.874L126.254,60.262z M127.987,58.845l-0.61,0.5l16.101,16.101l0.24-0.874L127.987,58.845z
				 M129.728,57.411l-0.614,0.5l15.048,15.049l0.24-0.874L129.728,57.411z M131.464,55.994l-0.614,0.5l13.998,13.998l0.241-0.875
				L131.464,55.994z M133.192,54.576l-0.609,0.5l12.946,12.946l0.24-0.874L133.192,54.576z M134.929,53.154l-0.61,0.5l11.895,11.896
				l0.241-0.875L134.929,53.154z M136.653,51.741l-0.61,0.5l10.844,10.844l0.241-0.874L136.653,51.741z M138.39,50.335l-0.609,0.5
				l9.792,9.793l0.24-0.875L138.39,50.335z M140.122,48.906l-0.614,0.5l8.742,8.741l0.24-0.874L140.122,48.906z M141.855,47.488
				l-0.611,0.5l7.69,7.69l0.24-0.874L141.855,47.488z M143.595,46.071l-0.614,0.5l6.639,6.639l0.24-0.874L143.595,46.071z
				 M145.324,44.642l-0.61,0.5l5.587,5.587l0.24-0.874L145.324,44.642z M147.061,43.228l-0.614,0.5l4.536,4.536l0.239-0.874
				L147.061,43.228z M148.793,41.799l-0.614,0.5l3.485,3.485l0.24-0.874L148.793,41.799z M150.525,40.377l-0.609,0.5l2.433,2.433
				l0.241-0.874L150.525,40.377z M152.262,38.972l-0.61,0.5l1.383,1.382l0.239-0.874L152.262,38.972z"/>
			<path fill="#2E2925" d="M197.836,168.883v5.198l24.216,24.184v1.115l-24.216-24.185v2.04l24.216,24.184v1.115l-24.216-24.185
				v2.04l24.216,24.185v1.115l-24.216-24.185v2.043l24.216,24.185v1.114l-24.216-24.185v2.043l24.216,24.184v1.115l-24.216-24.185
				v2.039l24.216,24.186v1.114l-24.216-24.185v2.043l24.216,24.185v1.114l-24.216-24.185v2.043l24.216,24.184v1.115l-24.216-24.185
				v2.04l24.216,24.185v1.114l-24.216-24.185v2.04l24.216,24.186v1.112l-24.216-24.184v2.044l24.216,24.185v1.114l-24.216-24.184
				v2.039l24.216,24.184v1.114l-24.216-24.185v2.04l24.216,24.185v1.114l-24.216-24.185v2.04l24.216,24.185v1.114l-24.216-24.185
				v2.043l24.216,24.185v1.115l-24.216-24.185v2.043l24.216,24.185v1.114l-24.216-24.185v2.04l24.216,24.185v1.114l-24.216-24.185
				v2.04l24.216,24.185v1.114l-24.216-24.185v2.044l24.216,24.185v1.114l-24.216-24.185v2.043l24.216,24.185v1.114l-24.216-24.185
				v2.04l24.216,24.185v1.114l-24.216-24.185v2.039l24.216,24.185v1.114l-24.216-24.185v2.04l24.216,24.185v1.114l-24.216-24.185
				v2.043l24.216,24.185v1.114l-24.216-24.184v2.039L222.053,274v1.115l-24.216-24.185v2.043l24.216,24.185v1.114l-24.216-24.185
				v2.043l24.216,24.185v1.114l-24.216-24.184v2.043l24.216,24.185v1.114l-24.216-24.185v2.045l24.216,24.185v1.114l-24.216-24.185
				v2.043l24.216,24.185v1.115l-24.216-24.185v2.043l24.216,24.185v1.114l-24.216-24.185v2.043l24.216,24.185v1.115l-24.216-24.185
				v2.04l24.216,24.184v1.115l-24.216-24.185v2.043l24.216,24.185v1.114l-24.216-24.185v2.043l24.216,24.185v1.115l-24.216-24.185
				v2.043l24.216,24.185v1.114l-24.216-24.185v2.043l24.216,24.204l-24.216-24.176l24.216,24.185h-48.235V37.491l24.019,24.192
				v2.008l24.22,24.196v1.115l-24.22-24.196v2.04l24.22,24.196v1.114l-24.22-24.196V70l24.22,24.196v1.114l-24.22-24.196v2.04
				l24.22,24.196v1.115l-24.22-24.196v2.043l24.22,24.196v1.114l-24.22-24.196v2.043l24.22,24.196v1.115l-24.22-24.196v2.04
				l24.22,24.196v1.115l-24.22-24.196v2.043l24.22,24.196v1.114l-24.22-24.196v2.043l24.22,24.196v1.115l-24.22-24.196v2.043
				l24.22,24.196v1.114l-24.22-24.196v2.04l24.22,24.196v1.114l-24.22-24.196v2.04l24.22,24.196v1.114l-24.22-24.196v2.04
				l24.22,24.196v1.114l-24.22-24.196v2.043l24.22,24.196v1.115l-24.22-24.196v2.043l24.22,24.196v1.114l-24.22-24.196v2.043
				l24.22,24.196v1.114l-24.22-24.196v2.044l24.22,24.196v1.114l-24.22-24.196v2.04l24.22,24.196v1.114l-24.22-24.196v2.043
				l24.22,24.193v1.114l-24.22-24.192v2.044l24.22,24.31l-0.501,0.5l-23.723-23.696v2.04l22.703,22.677l-0.559,0.555l-22.145-22.117
				v2.043l21.124,21.097l-0.556,0.555l-20.565-20.542v2.043l19.546,19.519l-0.556,0.555l-18.991-18.963v2.043l17.971,17.944
				l-0.556,0.555l-17.412-17.385v2.04l16.392,16.365l-0.556,0.556l-15.836-15.806v2.04l14.813,14.786l-0.556,0.555l-14.257-14.23
				v2.04l13.237,13.211l-0.554,0.555l-12.679-12.652v2.044l11.66,11.631l-0.556,0.555l-11.104-11.076v2.04l10.083,10.053
				l-0.556,0.559l-9.523-9.498v2.04l8.662,8.478l-0.787,0.555l-7.875-7.918v2.043l7.086,6.898l-0.786,0.556l-6.3-6.344v2.043
				l5.513,5.32l-0.787,0.555l-4.726-4.764v2.043l3.937,3.741l-0.787,0.555l-3.15-3.186v2.04l2.362,2.166l-0.788,0.555
				L197.836,168.883z M197.809,172.152v-1.115l0.788,0.586L197.809,172.152z M222.033,84.793v1.114l-24.22-24.185l0.787-0.555
				L222.033,84.793z M270.456,263.527v2.039l24.185,24.185v1.113l-24.185-24.185v2.04l24.185,24.185v1.114l-24.185-24.185v2.043
				l24.185,24.185v1.114l-24.185-24.184v2.039l24.185,24.185v1.115l-24.185-24.185v2.04l24.185,24.185v1.114l-24.185-24.185v2.043
				l24.185,24.185v1.114l-24.185-24.185v2.044l24.185,24.184v1.115l-24.185-24.185v2.036l24.189,24.188h-48.377v-115.58h-24.216
				l-24.216-24.192h72.62v2.02l24.182,24.181v1.114l-24.182-24.181v2.04l24.182,24.181v1.114l-24.182-24.181v2.044l24.182,24.181
				v1.113l-24.182-24.18v2.04l24.182,24.18v1.115l-24.182-24.181v2.044l24.185,24.181v1.114l-24.185-24.185v2.043l24.185,24.185
				v1.114l-24.185-24.181v2.04l24.185,24.18v1.115l-24.185-24.18v2.043l24.185,24.181v1.113l-24.185-24.18v2.044l24.185,24.181
				v1.114l-24.185-24.185v2.04l24.185,24.181v1.114l-24.185-24.185v2.04l24.185,24.18v1.114l-24.185-24.184v2.044l24.185,24.184
				v1.114l-24.185-24.185v2.044l24.185,24.181v1.114l-24.185-24.185v2.04l24.185,24.185v1.114l-24.185-24.185v2.04l24.185,24.185
				v1.114l-24.185-24.185v2.044l24.185,24.185v1.114l-24.185-24.185v2.04l24.185,24.185v1.112l-24.185-24.185v2.045l24.185,24.185
				v1.114l-24.185-24.185v2.044l24.185,24.185v1.114l-24.185-24.185v2.043l24.185,24.185v1.114l-24.185-24.185v2.04l24.185,24.185
				v1.114l-24.185-24.185v2.044l24.185,24.185v1.114l-24.185-24.185v2.04l24.185,24.185v1.112l-24.185-24.185v2.045l24.185,24.185
				v1.114l-24.185-24.184v2.043l24.185,24.185v1.114l-24.185-24.185v2.04l24.185,24.185v1.112l-24.185-24.185v2.045l24.185,24.185
				v1.115l-24.185-24.185v2.038l24.185,24.185v1.114l-24.185-24.185v2.04l24.185,24.185v1.114L270.456,263.527z M222.033,81.643
				v1.114l-22.646-22.61l0.789-0.555L222.033,81.643z M222.033,78.497v1.114l-21.071-21.03l0.788-0.555L222.033,78.497z
				 M222.033,75.339v1.114l-19.495-19.451l0.787-0.555L222.033,75.339z M222.033,72.181v1.115l-17.921-17.873l0.788-0.555
				L222.033,72.181z M222.033,69.023v1.114l-16.346-16.293l0.787-0.555L222.033,69.023z M222.033,65.877v1.114l-14.72-14.719
				l0.556-0.555L222.033,65.877z M222.033,62.703v1.115l-13.141-13.14l0.559-0.555L222.033,62.703z M222.037,59.545v1.114
				l-11.561-11.561l0.554-0.555L222.037,59.545z M222.037,56.388v1.114l-9.981-9.981l0.556-0.555L222.037,56.388z M222.04,53.233
				v1.115l-8.406-8.407l0.556-0.555L222.04,53.233z M222.037,50.083v1.114l-6.827-6.828l0.554-0.555L222.037,50.083z
				 M222.037,46.933v1.115l-5.249-5.249l0.555-0.556L222.037,46.933z M222.033,43.775v1.114l-3.671-3.67l0.556-0.555L222.033,43.775
				z M222.033,40.622v1.114l-2.092-2.091l0.559-0.555L222.033,40.622z M222.033,37.55v1.028l-0.517-0.516L222.033,37.55z
				 M294.648,196.293l-24.188-24.161l-24.192-24.192V37.487l24.185,24.193v2.036l24.192,24.192v1.114L270.453,64.83v2.04
				l24.192,24.192v1.114l-24.192-24.192v2.04l24.192,24.193v1.114l-24.192-24.192v2.04l24.192,24.192v1.115l-24.192-24.192v2.044
				l24.192,24.192v1.115l-24.192-24.193v2.04l24.192,24.192v1.114l-24.192-24.192v2.043l24.192,24.192v1.114l-24.192-24.192v2.044
				l24.192,24.192v1.115l-24.192-24.193v2.04l24.192,24.192v1.114l-24.192-24.192v2.043l24.192,24.192v1.114l-24.192-24.192v2.043
				l24.192,24.192v1.115l-24.192-24.192v2.04l24.192,24.192v1.114l-24.192-24.192v2.04l24.192,24.192v1.115l-24.192-24.193v2.044
				l24.192,24.192v1.114l-24.192-24.192v2.04l24.192,24.192v1.114l-24.192-24.192v2.04l24.192,24.192v1.115l-24.192-24.192v2.04
				l24.192,24.192v1.115l-24.192-24.192v2.04l24.192,24.192v1.114l-24.192-24.192v2.04l24.192,24.192v1.115l-24.192-24.193v2.044
				l24.192,24.192v1.114l-24.192-24.192v2.043l24.192,24.192v1.114l-24.192-24.192v2.043l24.192,24.192v1.114l-24.192-24.192v2.04
				l24.192,24.192v1.114l-24.189-24.192v2.04l24.189,24.193v1.114l-24.189-24.188v2.04l24.189,24.188v1.114l-24.189-24.192v2.043
				l24.189,24.189v1.114l-24.189-24.188v2.04l24.189,24.188v1.115l-24.189-24.189v2.044l24.189,24.188v1.114l-24.189-24.188v2.044
				l24.189,24.188v1.114l-24.189-24.188v2.043l24.189,24.188v1.114l-24.189-24.188v2.04l24.189,24.188v1.114L270.456,159.5v2.04
				l24.189,24.188v1.115l-24.189-24.188v2.043l24.189,24.188V190l-24.189-24.188v2.039l24.189,24.189v1.114l-24.189-24.188v2.04
				l24.189,24.188L294.648,196.293z M294.638,84.777v1.114l-24.188-24.188l0.555-0.555L294.638,84.777z M294.646,81.619v1.115
				L272.031,60.12l0.556-0.555L294.646,81.619z M294.646,78.461v1.114L273.61,58.541l0.556-0.555L294.646,78.461z M294.641,75.311
				v1.115l-19.459-19.459l0.555-0.555L294.641,75.311z M294.646,72.153v1.114l-17.881-17.88l0.556-0.556L294.646,72.153z
				 M294.618,69.019v1.114l-16.302-16.301l0.556-0.555L294.618,69.019z M294.629,65.861v1.115l-14.726-14.727l0.556-0.555
				L294.629,65.861z M294.629,62.703v1.115L281.481,50.67l0.556-0.555L294.629,62.703z M294.629,59.545v1.114l-11.568-11.568
				l0.556-0.555L294.629,59.545z M294.621,56.395v1.115l-9.993-9.994l0.556-0.555L294.621,56.395z M294.618,53.241v1.114
				l-8.414-8.415l0.554-0.555L294.618,53.241z M294.626,50.087v1.114l-6.84-6.839l0.556-0.556L294.626,50.087z M294.634,46.921
				v1.114l-5.261-5.26l0.556-0.556L294.634,46.921z M294.634,43.764v1.114l-3.683-3.682l0.556-0.555L294.634,43.764z M294.638,40.61
				v1.114l-2.107-2.106l0.556-0.555L294.638,40.61z M294.629,37.519v1.055l-0.527-0.527L294.629,37.519z"/>
			<path fill="#2E2925" d="M349.541,61.668v1.933l24.185,24.185V88.9l-24.185-24.185v2.044l24.185,24.184v1.114l-24.185-24.185v2.04
				l24.185,24.185v1.114l-24.185-24.185v2.04l24.185,24.184v1.115l-24.185-24.185v2.04l24.185,24.185v1.114l-24.185-24.184v2.043
				l24.185,24.185v1.114l-24.185-24.185v2.04l24.185,24.185v1.114l-24.185-24.185v2.04l24.185,24.185v1.114l-24.185-24.185v2.044
				l24.185,24.184v1.115l-24.185-24.185v2.043l24.185,24.185v1.115l-24.185-24.185v2.04l24.185,24.185v1.114l-24.185-24.185v2.04
				l24.185,24.185v1.114l-24.185-24.185v2.04l24.185,24.185v1.114l-24.185-24.185v2.04l24.185,24.185v1.114l-24.185-24.185v2.04
				l24.185,24.185v1.114l-24.185-24.185v2.044l24.185,24.184v1.115l-24.185-24.185v2.04l24.185,24.185v1.114l-24.185-24.185v2.044
				l24.185,24.184v1.114l-24.185-24.185v2.04l24.185,24.185v1.115l-24.185-24.185v2.043l24.185,24.185v1.114l-24.185-24.184v2.039
				l24.185,24.185v1.115l-24.185-24.185v2.04l24.185,24.185v1.114l-24.185-24.185v2.04l24.185,24.185v1.114l-24.185-24.185v2.043
				l24.185,24.185v1.114l-24.185-24.184v2.043l24.185,24.185v1.114l-24.185-24.185v2.04l24.185,24.185v1.115l-24.185-24.185v2.04
				l24.185,24.185v1.114l-24.185-24.185v2.044l24.185,24.185v1.114l-24.185-24.185v2.04l24.185,24.185v1.114l-24.185-24.184v2.043
				l24.185,24.185v1.114l-24.185-24.185v2.043l24.185,24.185v1.114l-24.185-24.185v2.04l24.185,24.185v1.115l-24.185-24.185v2.04
				l24.185,24.185v1.114l-24.185-24.185v2.04l24.185,24.185v1.114l-24.185-24.184v2.04l24.185,24.184v1.115l-24.185-24.185v2.043
				l24.185,24.185v1.114l-24.185-24.185v2.04l24.185,24.184v1.115l-24.185-24.186v2.04l24.185,24.185v1.114l-24.185-24.185v2.043
				l24.185,24.185v1.114l-24.185-24.185v2.043l24.185,24.184v1.115l-24.185-24.185v2.04l24.185,24.185v1.115l-24.185-24.186v2.043
				l24.185,24.185v1.114l-24.185-24.185v2.04l24.185,24.185v1.113l-24.185-24.184v2.04l24.185,24.185v1.114L349.541,200.4v2.04
				l24.185,24.185v1.114l-24.185-24.185v2.04l24.185,24.185v1.114l-24.185-24.186v2.044l24.185,24.185v1.115l-24.185-24.185v2.039
				l24.185,24.185v1.115l-24.185-24.186v2.039l24.185,24.185v1.114l-24.185-24.185v2.043l24.185,24.185v1.115l-24.185-24.185v2.045
				l24.185,24.184v1.115l-24.185-24.185v2.038l24.185,24.185v1.114l-24.185-24.185v2.04l24.185,24.185v1.114l-24.185-24.185v2.044
				l24.185,24.185v1.114l-24.185-24.185v2.043l24.185,24.185v1.114l-24.185-24.185v2.04l24.185,24.185v1.114l-24.185-24.185v2.04
				l24.185,24.185v1.114l-24.185-24.184v2.039l24.185,24.185v1.113l-24.185-24.185v2.045l24.185,24.185v1.114l-24.185-24.185v2.038
				l24.185,24.185v1.114l-24.185-24.184v2.045l24.185,24.184v1.113l-24.185-24.185v2.045l24.185,24.185v1.114l-24.185-24.185v2.043
				l24.185,24.185v1.115l-24.185-24.185v2.04l24.185,24.185v1.114l-24.185-24.187v2.045l24.185,24.185v1.114l-24.185-24.185v2.044
				l24.185,24.184v1.115l-24.185-24.185v2.043l24.185,24.185v1.114l-24.185-24.185v2.04l24.185,24.185v1.114l-24.185-24.185v2.044
				l24.185,24.185v1.114l-24.185-24.185v2.043l24.185,24.185v1.114l-24.185-24.185v2.044l24.185,24.184v1.115l-24.185-24.185v2.146
				l24.189,24.189h-48.377V37.574L349.541,61.668z M349.625,61.695l0.556-0.555l23.576,23.578v1.114L349.625,61.695z M351.2,60.112
				l0.559-0.555l21.998,21.999v1.114L351.2,60.112z M352.774,58.529l0.559-0.555l20.421,20.42v1.114L352.774,58.529z
				 M354.361,56.958l0.556-0.555l18.84,18.841v1.115L354.361,56.958z M355.937,55.379l0.559-0.555l17.262,17.262v1.114
				L355.937,55.379z M357.519,53.812l0.56-0.555l15.684,15.683v1.114L357.519,53.812z M359.07,52.206l0.561-0.555l14.104,14.104
				v1.114L359.07,52.206z M360.653,50.635l0.56-0.555l12.524,12.525v1.115L360.653,50.635z M362.229,49.056l0.559-0.555
				l10.946,10.946v1.114L362.229,49.056z M363.808,47.477l0.56-0.555l9.367,9.368v1.114L363.808,47.477z M365.391,45.905
				l0.555-0.555l7.789,7.789v1.114L365.391,45.905z M366.985,44.342l0.559-0.555l6.21,6.209v1.115L366.985,44.342z M368.561,42.763
				l0.56-0.555l4.63,4.63v1.114L368.561,42.763z M370.135,41.185l0.559-0.555l3.052,3.052v1.114L370.135,41.185z M371.711,39.605
				l0.559-0.555l1.473,1.473v1.114L371.711,39.605z M373.293,38.035l0.449-0.449v0.898L373.293,38.035z"/>
		</g>
	</g>
</g>
</svg>
