<?xml version="1.0" encoding="utf-8"?>
<!-- Generator: Adobe Illustrator 16.0.4, SVG Export Plug-In . SVG Version: 6.00 Build 0)  -->
<!DOCTYPE svg PUBLIC "-//W3C//DTD SVG 1.1//EN" "http://www.w3.org/Graphics/SVG/1.1/DTD/svg11.dtd">
<svg version="1.1" id="Layer_1" xmlns="http://www.w3.org/2000/svg" xmlns:xlink="http://www.w3.org/1999/xlink" x="0px" y="0px"
	 width="400px" height="74.5px" viewBox="0 325.5 400 74.5" enable-background="new 0 325.5 400 74.5" xml:space="preserve">
<g>
	<g>
		<g>
			<path fill="#03A04D" d="M44.475,341.507l-5.405,19.572l5.405,19.961h-6.892l-4.538-16.502v16.502h-6.969v-39.524h6.969v15.903
				l4.538-15.91L44.475,341.507z"/>
			<path fill="#03A04D" d="M56.7,341.518v39.524h-6.969v-39.524H56.7z"/>
			<path fill="#03A04D" d="M80.93,344.471v16.957c0,0.817-0.332,1.559-0.868,2.094c-0.536,0.537-1.276,0.869-2.094,0.869h-7.541
				v16.651h-6.969v-39.519l14.509-0.016c0.818,0,1.558,0.332,2.094,0.868S80.93,343.652,80.93,344.471L80.93,344.471z
				 M70.428,348.479v8.94h3.533v-8.94H70.428z"/>
			<path fill="#03A04D" d="M104.539,348.479H94.083v8.942h10.456v6.97H94.083v9.682h10.43l0.025,6.969H90.076
				c-0.818,0-1.559-0.333-2.094-0.868c-0.536-0.536-0.869-1.276-0.869-2.094v-33.72c0-0.707,0.331-1.448,0.867-1.984
				c0.536-0.535,1.277-0.866,2.096-0.866h0.585h13.878V348.479z"/>
			<path fill="#03A04D" d="M123.189,381.04l-4.871-16.64v16.64h-6.982v-39.517l14.639-0.015c0.815,0,1.554,0.333,2.089,0.87
				c0.535,0.536,0.866,1.279,0.866,2.1v16.955c0,0.819-0.312,1.562-0.847,2.101c-0.534,0.536-1.292,0.868-2.107,0.868h-0.684
				l4.834,16.64L123.189,381.04z M118.319,348.493v8.926h3.659v-8.926H118.319z"/>
			<path fill="#03A04D" d="M165.577,381.04h-6.969v-16.649h-3.488v16.649h-6.969v-39.533h6.97v15.912h3.486v-15.912h6.969
				L165.577,381.04L165.577,381.04z"/>
			<path fill="#03A04D" d="M179.341,341.518v39.524h-6.968v-39.524H179.341z"/>
			<path fill="#03A04D" d="M203.529,357.416l-3.485,3.484l3.485,3.483v13.696c0,0.816-0.334,1.559-0.869,2.094
				c-0.536,0.536-1.282,0.863-2.1,0.863h-14.459v-39.533l14.458-0.006c0.818,0,1.564,0.339,2.101,0.875s0.868,1.275,0.868,2.094
				L203.529,357.416z M193.072,357.414h3.487v-8.941h-3.487V357.414z M193.072,374.066h3.487v-9.683h-3.487V374.066z"/>
			<path fill="#03A04D" d="M227.581,357.416l-3.485,3.484l3.485,3.483v13.696c0,0.816-0.332,1.559-0.868,2.094
				c-0.536,0.536-1.281,0.863-2.102,0.863h-14.459v-39.533l14.459-0.006c0.816,0,1.562,0.339,2.1,0.875s0.869,1.275,0.869,2.094
				L227.581,357.416z M217.124,357.414h3.487v-8.941h-3.487V357.414z M217.124,374.066h3.487v-9.683h-3.487V374.066z"/>
			<path fill="#03A04D" d="M245.76,341.52l6.649,39.525h-6.97l-1-6.552h-4.522l-1.024,6.549h-6.955l6.805-39.533L245.76,341.52z
				 M243.355,367.811l-1.131-6.9l-1.156,6.898L243.355,367.811z"/>
			<path fill="#03A04D" d="M269.203,381.04l-4.87-16.64v16.64h-6.983v-39.517l14.641-0.015c0.814,0,1.555,0.333,2.089,0.87
				c0.534,0.536,0.864,1.279,0.864,2.1v16.955c0,0.819-0.312,1.562-0.848,2.101c-0.533,0.536-1.291,0.868-2.105,0.868h-0.686
				l4.836,16.64L269.203,381.04z M264.333,348.493v8.926h3.659v-8.926H264.333z"/>
			<path fill="#03A04D" d="M299.281,378.076c0,0.818-0.333,1.56-0.867,2.096c-0.536,0.535-1.277,0.868-2.096,0.868h-14.463v-39.533
				l14.463-0.015c0.817,0,1.56,0.332,2.096,0.867c0.536,0.537,0.868,1.277,0.868,2.097L299.281,378.076z M288.825,374.068h3.487
				v-25.607h-3.487V374.068z"/>
			<path fill="#03A04D" d="M325.355,341.518v39.524h-6.97v-39.524H325.355z"/>
			<path fill="#03A04D" d="M349.533,341.507v39.531h-6.967l-3.47-12.824l-0.015,12.826h-6.969v-39.533h6.97l3.523,13.001
				l-0.01-12.998L349.533,341.507z"/>
			<path fill="#03A04D" d="M373.762,357.418h-6.969v-8.943h-3.486v25.596h3.486v-9.684h6.969v13.689c0,0.818-0.332,1.56-0.868,2.096
				c-0.535,0.535-1.275,0.868-2.094,0.868h-11.5c-0.817,0-1.56-0.333-2.096-0.868c-0.536-0.536-0.866-1.275-0.866-2.096v-1.241
				v-32.366c0-0.816,0.33-1.559,0.866-2.095s1.276-0.867,2.094-0.867H370.8c0.817,0,1.561,0.333,2.095,0.868
				c0.536,0.536,0.867,1.275,0.867,2.094V357.418z"/>
		</g>
		<g>
			<path fill="#1C5031" d="M26.156,380.962l0.079,0.078l-0.15-0.009L26.156,380.962z M26.383,380.732l0.307,0.308h-0.162
				l-0.225-0.228L26.383,380.732z M26.609,380.507l0.533,0.533h-0.161l-0.452-0.451L26.609,380.507z M26.836,380.279l0.76,0.761
				h-0.161l-0.68-0.681L26.836,380.279z M27.064,380.055l0.986,0.987h-0.16l-0.907-0.908L27.064,380.055z M27.291,379.828
				l1.214,1.212h-0.161l-1.133-1.133L27.291,379.828z M27.519,379.6l1.44,1.44h-0.161l-1.36-1.36L27.519,379.6z M27.747,379.373
				l1.668,1.667h-0.161l-1.588-1.587L27.747,379.373z M27.974,379.145l1.896,1.896h-0.161l-1.815-1.814L27.974,379.145z
				 M28.201,378.919l2.123,2.121h-0.161l-2.042-2.042L28.201,378.919z M28.429,378.689l2.35,2.351h-0.161l-2.27-2.269
				L28.429,378.689z M28.657,378.464l2.576,2.576h-0.161l-2.496-2.496L28.657,378.464z M28.884,378.234l2.804,2.806h-0.16
				l-2.725-2.726L28.884,378.234z M29.111,378.014l3.031,3.029h-0.16l-2.952-2.95L29.111,378.014z M29.338,377.786l3.259,3.257
				h-0.16l-3.178-3.177L29.338,377.786z M29.575,377.561l3.484,3.484h-0.156l-3.406-3.406L29.575,377.561z M37.824,380.732
				l0.308,0.31H37.97l-0.216-0.217L37.824,380.732z M38.019,380.475l0.568,0.567h-0.162l-0.476-0.478L38.019,380.475z
				 M38.215,380.216l0.826,0.826h-0.16l-0.736-0.735L38.215,380.216z M38.412,379.956l1.086,1.086h-0.161l-0.994-0.994
				L38.412,379.956z M38.607,379.695l1.344,1.345h-0.16l-1.253-1.253L38.607,379.695z M38.804,379.438l1.603,1.604h-0.161
				l-1.512-1.512L38.804,379.438z M38.999,379.18l1.862,1.862h-0.16l-1.772-1.771L38.999,379.18z M39.194,378.919l2.123,2.123
				h-0.161l-2.03-2.032L39.194,378.919z M39.39,378.659l2.382,2.383h-0.161l-2.289-2.291L39.39,378.659z M39.586,378.4l2.64,2.642
				h-0.161l-2.548-2.549L39.586,378.4z M39.782,378.145l2.899,2.898H42.52l-2.807-2.809L39.782,378.145z M39.978,377.886
				l3.158,3.157h-0.16l-3.067-3.066L39.978,377.886z M40.174,377.628l3.417,3.417h-0.16l-3.327-3.325L40.174,377.628z
				 M41.175,378.332l0.881,0.72l1.989,1.99h-0.161L41.175,378.332z M43.666,380.372l0.818,0.67h-0.149L43.666,380.372z"/>
			<path fill="#1C5031" d="M49.802,380.962l0.08,0.08l-0.15-0.009L49.802,380.962z M50.029,380.734l0.307,0.308h-0.161l-0.227-0.228
				L50.029,380.734z M50.255,380.509l0.534,0.533h-0.161l-0.453-0.453L50.255,380.509z M50.483,380.282l0.759,0.76H51.08
				l-0.679-0.681L50.483,380.282z M50.709,380.055l0.986,0.987h-0.16l-0.907-0.908L50.709,380.055z M50.936,379.828l1.213,1.214
				h-0.161l-1.132-1.133L50.936,379.828z M51.163,379.602l1.439,1.44h-0.16l-1.36-1.36L51.163,379.602z M51.39,379.373l1.668,1.669
				h-0.161l-1.588-1.589L51.39,379.373z M51.618,379.146l1.896,1.896h-0.161l-1.815-1.815L51.618,379.146z M51.845,378.92
				l2.123,2.122h-0.16L51.765,379L51.845,378.92z M52.073,378.691l2.35,2.351h-0.161l-2.269-2.269L52.073,378.691z M52.3,378.466
				l2.576,2.576h-0.161l-2.496-2.497L52.3,378.466z M52.527,378.239l2.804,2.804h-0.16l-2.725-2.725L52.527,378.239z
				 M52.755,378.011l3.031,3.032h-0.16l-2.952-2.952L52.755,378.011z M52.982,377.784l3.259,3.259h-0.16l-3.179-3.179
				L52.982,377.784z M53.218,377.561l3.484,3.482h-0.157l-3.405-3.404L53.218,377.561z"/>
			<path fill="#1C5031" d="M63.539,380.962l0.078,0.08h-0.158L63.539,380.962z M63.765,380.734l0.306,0.308H63.91l-0.226-0.226
				L63.765,380.734z M63.992,380.509l0.533,0.533h-0.161l-0.452-0.452L63.992,380.509z M64.219,380.282l0.759,0.76h-0.16
				l-0.68-0.681L64.219,380.282z M64.446,380.057l0.986,0.985H65.27l-0.906-0.906L64.446,380.057z M64.673,379.829l1.212,1.213
				h-0.16l-1.132-1.131L64.673,379.829z M64.899,379.604l1.44,1.438h-0.161l-1.359-1.358L64.899,379.604z M65.127,379.376
				l1.667,1.667h-0.16l-1.587-1.587L65.127,379.376z M65.354,379.148l1.895,1.895h-0.161l-1.813-1.814L65.354,379.148z
				 M65.582,378.922l2.121,2.121h-0.161l-2.042-2.041L65.582,378.922z M65.809,378.695l2.349,2.348h-0.161l-2.268-2.268
				L65.809,378.695z M66.035,378.467l2.576,2.576h-0.16l-2.496-2.496L66.035,378.467z M66.263,378.24l2.802,2.803h-0.16
				l-2.724-2.723L66.263,378.24z M66.49,378.014l3.031,3.029H69.36l-2.951-2.949L66.49,378.014z M66.718,377.786l3.257,3.257h-0.16
				l-3.178-3.177L66.718,377.786z M66.943,377.561l3.484,3.482h-0.159l-3.404-3.404L66.943,377.561z M67.104,360.906l3.485,3.484
				h-0.161l-3.485-3.484H67.104z M67.107,344.995l3.485,3.485h-0.161l-3.485-3.485H67.107z M67.553,360.906l3.485,3.484h-0.161
				l-3.485-3.484H67.553z M67.562,344.995l3.485,3.485h-0.16l-3.485-3.485H67.562z M68.003,360.906l3.485,3.484h-0.161l-3.484-3.484
				H68.003z M68.016,344.995l3.485,3.485H71.34l-3.484-3.485H68.016z M68.453,360.906l3.485,3.484h-0.161l-3.484-3.484H68.453z
				 M68.472,344.995l3.484,3.485h-0.16l-3.485-3.485H68.472z M68.902,360.906l3.485,3.484h-0.16l-3.485-3.484H68.902z
				 M68.926,344.995l3.485,3.485h-0.16l-3.485-3.485H68.926z M69.352,360.906l3.485,3.484h-0.16l-3.485-3.484H69.352z
				 M69.381,344.995l3.484,3.485h-0.16l-3.485-3.485H69.381z M69.803,360.906l3.484,3.484h-0.16l-3.485-3.484H69.803z
				 M69.834,344.995l3.485,3.485h-0.16l-3.485-3.485H69.834z M70.252,360.906l3.485,3.484h-0.161l-3.485-3.484H70.252z
				 M70.289,344.995l3.485,3.485h-0.161l-3.485-3.485H70.289z M70.701,360.906l3.485,3.484h-0.161l-3.484-3.484H70.701z
				 M70.744,344.997l3.353,3.354l-0.08,0.078l-3.434-3.435L70.744,344.997z M71.151,360.906l3.485,3.484h-0.16l-3.485-3.484H71.151z
				 M71.198,344.997l3.125,3.125l-0.08,0.08l-3.207-3.205H71.198z M71.601,360.906l3.485,3.484h-0.16l-3.485-3.484H71.601z
				 M71.653,344.997l2.898,2.897l-0.081,0.08l-2.979-2.979L71.653,344.997L71.653,344.997z M72.051,360.906l3.484,3.484h-0.16
				l-3.485-3.484H72.051z M72.106,344.997l2.671,2.671l-0.08,0.081l-2.752-2.752H72.106L72.106,344.997z M72.501,360.906
				l3.486,3.486h-0.16l-3.486-3.486H72.501z M72.561,344.997l2.444,2.444l-0.08,0.078l-2.524-2.522H72.561z M72.951,360.906
				l3.486,3.486h-0.161l-3.485-3.486H72.951z M73.015,344.997l2.217,2.218l-0.082,0.079l-2.295-2.297H73.015z M73.399,360.906
				l3.487,3.486h-0.161l-3.485-3.486H73.399z M73.47,344.997l1.989,1.989l-0.08,0.08l-2.069-2.069H73.47z M73.851,360.906
				l3.485,3.486h-0.161l-3.485-3.486H73.851z M73.924,344.997l1.763,1.763l-0.081,0.08l-1.842-1.843H73.924z M74.301,360.906
				l3.485,3.486h-0.161l-3.486-3.486H74.301z M74.379,344.999l1.535,1.534l-0.08,0.08l-1.616-1.616L74.379,344.999z M74.75,360.906
				l3.474,3.474l-0.152,0.011l-3.483-3.483L74.75,360.906L74.75,360.906z M74.833,344.999l1.308,1.308l-0.08,0.08l-1.388-1.388
				H74.833z M75.2,360.906l3.414,3.414l-0.134,0.027l-3.442-3.441H75.2z M75.288,344.999l1.08,1.08l-0.08,0.08l-1.16-1.16H75.288
				L75.288,344.999z M75.649,360.906l3.314,3.312l-0.121,0.041l-3.354-3.354H75.649L75.649,360.906z M75.743,344.999l0.853,0.854
				l-0.08,0.08l-0.934-0.935H75.743z M76.099,360.906l3.181,3.181l-0.109,0.05l-3.232-3.229L76.099,360.906L76.099,360.906z
				 M76.196,344.999l0.626,0.625l-0.08,0.08l-0.708-0.705H76.196z M76.549,360.906l3.018,3.018l-0.099,0.062l-3.079-3.079
				L76.549,360.906L76.549,360.906z M76.65,344.999l0.399,0.397l-0.08,0.08l-0.479-0.479L76.65,344.999L76.65,344.999z
				 M76.999,360.906l2.831,2.828l-0.091,0.072l-2.9-2.9H76.999z M77.104,344.999l0.172,0.172l-0.08,0.08l-0.252-0.252H77.104
				L77.104,344.999z M77.445,360.906l2.616,2.615l-0.082,0.078l-2.695-2.693H77.445z"/>
			<path fill="#1C5031" d="M88.101,380.053l0.704,0.704l-0.37-0.211l-0.414-0.413L88.101,380.053z M88.328,379.824l1.157,1.158
				l-0.212-0.053l-1.025-1.023L88.328,379.824z M88.554,379.598l1.442,1.44l-0.169-0.009l-1.353-1.353L88.554,379.598z
				 M88.781,379.37l1.671,1.67h-0.161l-1.589-1.589L88.781,379.37z M89.009,379.145l1.897,1.896h-0.161l-1.817-1.815L89.009,379.145
				z M89.235,378.915l2.125,2.125H91.2l-2.045-2.045L89.235,378.915z M89.462,378.688l2.352,2.354h-0.16l-2.272-2.272
				L89.462,378.688z M89.69,378.461l2.579,2.581h-0.161l-2.499-2.5L89.69,378.461z M89.917,378.234l2.807,2.808h-0.161l-2.727-2.728
				L89.917,378.234z M90.145,378.008l3.034,3.034h-0.16l-2.955-2.954L90.145,378.008z M90.371,377.779l3.262,3.263h-0.161
				l-3.181-3.181L90.371,377.779z M90.602,377.557l3.485,3.485h-0.161l-3.408-3.409L90.602,377.557z M90.76,360.906l3.484,3.484
				h-0.161l-3.485-3.484H90.76z M90.77,344.995l3.485,3.485h-0.16l-3.485-3.485H90.77z M91.057,377.557l3.485,3.485h-0.161
				l-3.484-3.485H91.057z M91.208,360.906l3.485,3.484h-0.16l-3.485-3.484H91.208z M91.218,344.995l3.485,3.485h-0.16l-3.485-3.485
				H91.218z M91.511,377.557l3.485,3.485h-0.161l-3.485-3.485H91.511z M91.656,360.906l3.485,3.484H94.98l-3.485-3.484H91.656z
				 M91.666,344.995l3.484,3.485h-0.16l-3.485-3.485H91.666z M91.966,377.557l3.485,3.485H95.29l-3.484-3.485H91.966z
				 M92.105,360.906l3.484,3.484h-0.161l-3.484-3.484H92.105z M92.113,344.995l3.484,3.485h-0.16l-3.485-3.485H92.113z
				 M92.421,377.557l3.484,3.485h-0.16l-3.485-3.485H92.421z M92.553,360.906l3.484,3.484h-0.16l-3.484-3.484H92.553z
				 M92.561,344.995l3.485,3.485h-0.161l-3.485-3.485H92.561z M92.875,377.557l3.485,3.485H96.2l-3.484-3.485H92.875z
				 M93.001,360.906l3.484,3.484h-0.161l-3.484-3.484H93.001z M93.009,344.995l3.484,3.485h-0.161l-3.485-3.485H93.009z
				 M93.331,377.557l3.484,3.485h-0.16l-3.485-3.485H93.331z M93.45,360.906l3.484,3.484h-0.161l-3.484-3.484H93.45z
				 M93.456,344.995l3.484,3.485h-0.16l-3.485-3.485H93.456z M93.786,377.557l3.484,3.485h-0.16l-3.485-3.485H93.786z
				 M93.897,360.906l3.484,3.484h-0.16l-3.484-3.484H93.897z M93.903,344.995l3.485,3.485h-0.161l-3.485-3.485H93.903z
				 M94.24,377.557l3.485,3.485h-0.161l-3.485-3.485H94.24z M94.346,360.906l3.484,3.484h-0.161l-3.484-3.484H94.346z
				 M94.352,344.995l3.484,3.485h-0.161l-3.485-3.485H94.352z M94.695,377.557l3.484,3.485h-0.161l-3.485-3.485H94.695z
				 M94.794,360.906l3.484,3.484h-0.161l-3.484-3.484H94.794z M94.799,344.995l3.484,3.485h-0.16l-3.485-3.485H94.799z
				 M95.15,377.557l3.485,3.485h-0.161l-3.485-3.485H95.15z M95.243,360.906l3.483,3.484h-0.16l-3.485-3.484H95.243z
				 M95.246,344.995l3.485,3.485H98.57l-3.485-3.485H95.246z M95.604,377.557l3.485,3.485h-0.16l-3.485-3.485H95.604z
				 M95.69,360.906l3.484,3.484h-0.16l-3.485-3.484H95.69z M95.694,344.995l3.484,3.485h-0.161l-3.485-3.485H95.694z
				 M96.057,377.557l3.487,3.485h-0.161l-3.484-3.485h0.087H96.057z M96.139,360.906l3.483,3.484h-0.16l-3.485-3.484H96.139z
				 M96.141,344.995l3.484,3.485h-0.16l-3.485-3.485H96.141z M96.512,377.557l3.487,3.485h-0.161l-3.486-3.485H96.512z
				 M96.587,360.906l3.483,3.484h-0.16l-3.485-3.484H96.587z M96.588,344.995l3.485,3.485h-0.161l-3.485-3.485H96.588z
				 M96.967,377.557l3.486,3.485h-0.161l-3.485-3.485H96.967z M97.035,360.906l3.484,3.484h-0.16l-3.485-3.484H97.035z
				 M97.037,344.995l3.485,3.485h-0.161l-3.485-3.485H97.037z M97.422,377.557l3.486,3.485h-0.16l-3.486-3.485H97.422z
				 M97.483,360.906l3.483,3.484h-0.16l-3.485-3.484H97.483z M97.484,344.995l3.484,3.485h-0.16l-3.485-3.485H97.484z
				 M97.875,377.557l3.486,3.485H101.2l-3.485-3.485H97.875z M97.93,360.906l3.484,3.484h-0.161l-3.484-3.484H97.93z
				 M97.931,344.995l3.485,3.485h-0.16l-3.485-3.485H97.931z M98.331,377.557l3.486,3.485h-0.161l-3.485-3.485H98.331z
				 M98.378,360.906l3.483,3.484H101.7l-3.484-3.484H98.378z M98.379,344.995l3.485,3.485h-0.161l-3.485-3.485H98.379z
				 M98.785,377.557l3.487,3.485h-0.16l-3.486-3.485H98.785z M98.826,360.906l3.483,3.484h-0.16l-3.484-3.484H98.826z
				 M98.826,344.995l3.484,3.485h-0.16l-3.485-3.485H98.826z M99.241,377.557l3.485,3.485h-0.16l-3.486-3.485H99.241z
				 M99.273,360.906l3.483,3.484h-0.161l-3.483-3.484H99.273z M99.273,344.995l3.485,3.485h-0.161l-3.485-3.485H99.273z
				 M99.696,377.557l3.485,3.485h-0.16l-3.487-3.485H99.696z M99.72,360.906l3.483,3.482h-0.16l-3.484-3.482H99.72z M99.722,344.995
				l3.485,3.485h-0.162l-3.485-3.485H99.722z M100.15,377.557l3.486,3.485h-0.161l-3.486-3.485H100.15z M100.168,360.906
				l3.484,3.482h-0.161l-3.484-3.482H100.168z M100.169,344.995l3.484,3.485h-0.16l-3.485-3.485H100.169z M100.605,377.557
				l3.487,3.485h-0.162l-3.485-3.485H100.605z M100.615,360.906l3.484,3.482h-0.161l-3.483-3.482H100.615z M100.616,344.995
				l3.485,3.485h-0.161l-3.485-3.485H100.616z M101.06,360.906l3.483,3.482h-0.161l-3.484-3.482H101.06z M101.056,377.557
				l3.483,3.485h-0.155l-3.486-3.485H101.056z M101.063,344.995l3.484,3.485h-0.16l-3.485-3.485H101.063z"/>
			<path fill="#1C5031" d="M111.341,381.033l0.08-0.081l0.085,0.085h-0.161L111.341,381.033z M111.567,380.802l0.081-0.081
				l0.311,0.312h-0.161L111.567,380.802z M111.795,380.575l0.08-0.081l0.538,0.539h-0.16L111.795,380.575z M112.023,380.346
				l0.08-0.08l0.764,0.766h-0.16L112.023,380.346z M112.249,380.119l0.08-0.08l0.992,0.99h-0.161L112.249,380.119z M112.476,379.893
				l0.08-0.08l1.219,1.219h-0.16L112.476,379.893z M112.705,379.665l0.08-0.08l1.445,1.445h-0.161L112.705,379.665z
				 M112.931,379.438l0.08-0.08l1.673,1.674h-0.161L112.931,379.438z M113.157,379.21l0.08-0.08l1.901,1.901h-0.161L113.157,379.21z
				 M113.385,378.982l0.08-0.078l2.128,2.127h-0.162L113.385,378.982z M113.612,378.757l0.081-0.079l2.355,2.354h-0.161
				L113.612,378.757z M113.839,378.529l0.081-0.082l2.582,2.582h-0.161L113.839,378.529z M114.067,378.301l0.081-0.08l2.809,2.811
				h-0.161L114.067,378.301z M114.293,378.083l0.08-0.08l3.037,3.037h-0.162L114.293,378.083z M114.521,377.854l0.08-0.08
				l3.264,3.265h-0.161L114.521,377.854z M114.747,377.626l0.081-0.079l3.491,3.491h-0.161L114.747,377.626z M115.002,345.002
				l3.492,3.491h-0.16l-3.492-3.491H115.002z M115.005,360.911l3.395,3.396l-0.073,0.088l-3.482-3.482L115.005,360.911
				L115.005,360.911z M115.457,345.002l3.492,3.491h-0.16l-3.492-3.491H115.457z M118.605,364.059l-3.146-3.146h-0.161l3.234,3.234
				L118.605,364.059z M115.913,345.002l3.492,3.491h-0.161l-3.492-3.491H115.913z M115.914,360.911l2.897,2.896l-0.072,0.088
				l-2.985-2.983H115.914z M116.366,345.002l3.492,3.491h-0.16l-3.492-3.491H116.366z M116.369,360.911l2.648,2.649l-0.072,0.086
				l-2.736-2.735H116.369z M116.82,345.002l3.492,3.491h-0.16l-3.492-3.491H116.82z M116.823,360.911l2.398,2.399l-0.072,0.088
				l-2.488-2.487H116.823z M117.275,345.002l3.492,3.491h-0.161l-3.493-3.491H117.275z M117.277,360.909l2.151,2.149l-0.073,0.09
				l-2.239-2.239H117.277L117.277,360.909z M117.73,345.002l3.492,3.491h-0.16l-3.492-3.491H117.73z M117.732,360.911l1.901,1.901
				l-0.072,0.088l-1.99-1.989H117.732z M118.184,345.002l3.492,3.491h-0.16l-3.492-3.491H118.184z M118.187,360.911l1.652,1.653
				l-0.073,0.088l-1.741-1.741H118.187L118.187,360.911z M118.639,345.002l3.416,3.415l-0.083,0.076l-3.493-3.491H118.639z
				 M118.641,360.911l1.404,1.403l-0.073,0.088l-1.492-1.491H118.641z M119.093,345.002l3.188,3.188l-0.08,0.08l-3.268-3.268
				H119.093z M119.095,360.911l1.156,1.155l-0.072,0.088l-1.243-1.243H119.095z M119.548,345.002l2.96,2.959l-0.081,0.081
				l-3.042-3.04H119.548z M119.55,360.911l0.907,0.907l-0.072,0.088l-0.996-0.995H119.55L119.55,360.911z M120.002,345.002
				l2.732,2.73l-0.08,0.082l-2.813-2.812H120.002z M120.005,360.911l0.657,0.657l-0.072,0.089l-0.746-0.746H120.005z M120.457,345
				l2.504,2.506l-0.08,0.08l-2.584-2.584L120.457,345z M120.458,360.911l0.409,0.409l-0.071,0.088l-0.497-0.497H120.458z
				 M120.912,345l2.276,2.277l-0.08,0.08L120.75,345H120.912z M120.913,360.911l0.161,0.159l-0.073,0.088l-0.249-0.247H120.913z
				 M121.365,345.002l2.049,2.048l-0.08,0.082l-2.129-2.13H121.365z M121.208,360.911h0.16l0.951,0.948L121.208,360.911z
				 M121.821,345.002l1.821,1.82l-0.08,0.08l-1.902-1.9H121.821z M121.822,360.911l3.492,3.491h-0.023l-0.948-0.812l-2.681-2.68
				L121.822,360.911L121.822,360.911z M122.274,345.002l1.594,1.594l-0.08,0.081l-1.674-1.675H122.274z M122.277,360.911
				l3.492,3.491h-0.161l-3.492-3.491H122.277z M122.729,345.002l1.366,1.365l-0.08,0.08l-1.447-1.445H122.729L122.729,345.002z
				 M122.731,360.907l3.48,3.479c-0.051,0.006-0.101,0.008-0.152,0.01l-3.488-3.489H122.731z M123.183,345.002l1.139,1.139
				l-0.08,0.08l-1.219-1.219H123.183z M123.187,360.904l3.422,3.422c-0.044,0.01-0.09,0.018-0.135,0.025l-3.448-3.449
				L123.187,360.904z M123.191,381.038l0.057-0.071l0.07,0.071H123.191z M123.38,380.807l0.072-0.09l0.321,0.321h-0.161
				L123.38,380.807z M123.639,345.002l0.91,0.911l-0.08,0.079l-0.992-0.99H123.639L123.639,345.002z M123.642,360.902l3.323,3.322
				c-0.04,0.015-0.08,0.027-0.121,0.041l-3.363-3.363H123.642L123.642,360.902z M123.583,380.555l0.072-0.088l0.572,0.571h-0.16
				L123.583,380.555z M123.787,380.305l0.072-0.089l0.823,0.822h-0.161L123.787,380.305z M124.092,345.002l0.683,0.684l-0.08,0.08
				l-0.763-0.764H124.092z M124.097,360.902l3.189,3.188c-0.036,0.019-0.074,0.034-0.109,0.05l-3.241-3.238H124.097L124.097,360.902
				z M123.991,380.053l0.072-0.088l1.074,1.073h-0.161L123.991,380.053z M124.194,379.802l0.072-0.088l1.325,1.324h-0.161
				L124.194,379.802z M124.546,345.002l0.456,0.454l-0.081,0.082l-0.535-0.536H124.546z M124.55,360.904l3.026,3.025
				c-0.033,0.021-0.066,0.04-0.1,0.061l-3.086-3.086H124.55z M124.398,379.551l0.071-0.088l1.576,1.575h-0.16L124.398,379.551z
				 M124.602,379.3l0.071-0.09l1.827,1.827h-0.161L124.602,379.3z M124.806,379.049l0.072-0.09l2.077,2.078h-0.161L124.806,379.049z
				 M125.002,345.002l0.227,0.227l-0.08,0.082l-0.307-0.309H125.002L125.002,345.002z M125.004,360.902l2.836,2.839
				c-0.029,0.022-0.059,0.047-0.089,0.069l-2.908-2.906L125.004,360.902z M125.009,378.798l0.072-0.088l2.328,2.327h-0.161
				L125.009,378.798z M125.213,378.547l0.072-0.09l2.579,2.58h-0.161L125.213,378.547z M125.375,345.082l-0.079-0.08h0.158
				L125.375,345.082z M127.326,362.773l0.754,0.758c-0.026,0.025-0.054,0.052-0.082,0.078l-2.701-2.702h0.156L127.326,362.773z
				 M125.417,378.296l0.072-0.088l2.83,2.829h-0.161L125.417,378.296z M125.62,378.045l0.072-0.088l3.081,3.08h-0.161
				L125.62,378.045z M125.824,377.794l0.072-0.089l3.332,3.332h-0.161L125.824,377.794z M126.054,377.568l1.08,0.922l2.548,2.547
				h-0.16L126.054,377.568z M129.976,381.037l-0.864-0.862l1.014,0.862H129.976z"/>
			<path fill="#1C5031" d="M148.233,380.962l0.08,0.08h-0.161L148.233,380.962z M148.46,380.734l0.306,0.308h-0.16l-0.227-0.226
				L148.46,380.734z M148.687,380.509l0.533,0.533h-0.161l-0.453-0.453L148.687,380.509z M148.914,380.284l0.76,0.759h-0.161
				l-0.68-0.68L148.914,380.284z M149.142,380.057l0.986,0.986h-0.16l-0.906-0.904L149.142,380.057z M149.368,379.829l1.213,1.214
				h-0.161l-1.133-1.134L149.368,379.829z M149.596,379.604l1.44,1.439h-0.16l-1.361-1.359L149.596,379.604z M149.823,379.375
				l1.668,1.668h-0.16l-1.588-1.587L149.823,379.375z M150.051,379.148l1.895,1.895h-0.16l-1.815-1.814L150.051,379.148z
				 M150.279,378.92l2.122,2.123h-0.16l-2.042-2.041L150.279,378.92z M150.505,378.693l2.35,2.35h-0.16l-2.27-2.27L150.505,378.693z
				 M150.733,378.467l2.578,2.576h-0.161l-2.497-2.496L150.733,378.467z M150.961,378.239l2.804,2.804h-0.161l-2.723-2.723
				L150.961,378.239z M151.189,378.014l3.031,3.029h-0.161l-2.951-2.95L151.189,378.014z M151.417,377.786l3.259,3.257h-0.161
				l-3.179-3.177L151.417,377.786z M151.642,377.561l3.484,3.482h-0.156l-3.406-3.404L151.642,377.561z M151.812,360.909
				l3.485,3.485h-0.161l-3.485-3.485H151.812z M152.267,360.909l3.485,3.485h-0.162l-3.484-3.485H152.267z M152.721,360.909
				l3.483,3.485h-0.094h-0.065l-3.485-3.485H152.721z M153.176,360.909l3.484,3.485h-0.16l-3.484-3.485H153.176z M153.63,360.909
				l3.462,3.485h-0.139l-3.485-3.485H153.63z M154.085,360.909l3.483,3.483h-0.161l-3.483-3.483H154.085z M154.539,360.909
				l3.484,3.483h-0.073h-0.088l-3.483-3.483H154.539z M154.993,360.909l3.483,3.483h-0.16l-3.483-3.483H154.993z M155.447,360.909
				l3.325,3.325l-0.08,0.08l-3.405-3.405H155.447z M155.902,360.909l3.097,3.099l-0.08,0.08l-3.178-3.179H155.902z M156.354,360.909
				l2.871,2.87l-0.08,0.08l-2.951-2.95H156.354z M156.81,360.911l2.644,2.644l-0.081,0.079l-2.724-2.725L156.81,360.911z
				 M157.263,360.911l2.417,2.416l-0.08,0.081l-2.498-2.497H157.263L157.263,360.911z M157.717,360.911l2.19,2.188l-0.08,0.08
				l-2.27-2.27L157.717,360.911L157.717,360.911z M158.171,360.911l1.962,1.963l-0.081,0.08l-2.043-2.043H158.171z M158.625,360.911
				l1.736,1.735l-0.081,0.078l-1.816-1.813H158.625z M158.685,380.965l0.076,0.077h-0.15L158.685,380.965z M158.913,380.738
				l0.303,0.304h-0.161l-0.223-0.224L158.913,380.738z M159.079,360.911l1.509,1.509l-0.08,0.08l-1.588-1.589H159.079z
				 M159.139,380.512l0.53,0.53h-0.16l-0.45-0.45L159.139,380.512z M159.367,380.285l0.758,0.757h-0.161l-0.676-0.677
				L159.367,380.285z M159.534,360.911l1.28,1.282l-0.08,0.08l-1.361-1.362H159.534z M159.595,380.059l0.984,0.984h-0.16
				l-0.905-0.904L159.595,380.059z M159.822,379.831l1.212,1.212h-0.16l-1.132-1.132L159.822,379.831z M159.987,360.911l1.054,1.054
				l-0.081,0.08l-1.133-1.134H159.987L159.987,360.911z M160.05,379.604l1.44,1.438h-0.161l-1.359-1.358L160.05,379.604z
				 M160.278,379.376l1.667,1.667h-0.16l-1.586-1.585L160.278,379.376z M160.443,360.911l0.826,0.827l-0.08,0.08l-0.908-0.907
				H160.443L160.443,360.911z M160.505,379.148l1.894,1.895h-0.161l-1.813-1.812L160.505,379.148z M160.733,378.922l2.121,2.121
				h-0.16l-2.041-2.04L160.733,378.922z M160.896,360.911l0.599,0.601l-0.08,0.08l-0.68-0.681H160.896z M160.96,378.695l2.349,2.348
				h-0.161l-2.267-2.268L160.96,378.695z M161.188,378.467l2.575,2.576h-0.16l-2.496-2.494L161.188,378.467z M161.35,360.911
				l0.373,0.373l-0.08,0.079l-0.452-0.452H161.35L161.35,360.911z M161.416,378.24l2.803,2.803h-0.161l-2.723-2.723L161.416,378.24z
				 M161.644,378.014l3.03,3.029h-0.161l-2.949-2.949L161.644,378.014z M161.805,360.912l0.145,0.146l-0.08,0.08l-0.226-0.228
				L161.805,360.912z M161.872,377.786l3.257,3.257h-0.162l-3.177-3.177L161.872,377.786z M162.1,377.561l3.484,3.482h-0.16
				l-3.406-3.402L162.1,377.561z"/>
			<path fill="#1C5031" d="M172.444,380.962l0.079,0.08l-0.15-0.009L172.444,380.962z M172.671,380.734l0.307,0.308h-0.161
				l-0.227-0.228L172.671,380.734z M172.897,380.509l0.533,0.533h-0.16l-0.453-0.453L172.897,380.509z M173.124,380.282l0.759,0.76
				h-0.16l-0.68-0.681L173.124,380.282z M173.351,380.055l0.987,0.987h-0.162l-0.906-0.908L173.351,380.055z M173.577,379.828
				l1.213,1.214h-0.16l-1.133-1.133L173.577,379.828z M173.805,379.602l1.44,1.44h-0.161l-1.36-1.36L173.805,379.602z
				 M174.032,379.373l1.667,1.669h-0.16l-1.588-1.589L174.032,379.373z M174.26,379.146l1.895,1.896h-0.16l-1.815-1.815
				L174.26,379.146z M174.488,378.92l2.122,2.122h-0.161L174.406,379L174.488,378.92z M174.714,378.691l2.349,2.351h-0.16
				l-2.27-2.269L174.714,378.691z M174.942,378.466l2.576,2.576h-0.16l-2.496-2.497L174.942,378.466z M175.169,378.239l2.805,2.804
				h-0.162l-2.724-2.725L175.169,378.239z M175.397,378.011l3.031,3.032h-0.161l-2.951-2.952L175.397,378.011z M175.625,377.784
				l3.259,3.259h-0.162l-3.179-3.179L175.625,377.784z M175.86,377.561l3.483,3.482h-0.156l-3.406-3.404L175.86,377.561z"/>
			<path fill="#1C5031" d="M186.177,380.967l0.08,0.08h-0.158L186.177,380.967z M186.404,380.74l0.307,0.307h-0.161l-0.227-0.227
				L186.404,380.74z M186.631,380.514l0.534,0.534h-0.161l-0.454-0.454L186.631,380.514z M186.858,380.287l0.761,0.761h-0.161
				l-0.68-0.681L186.858,380.287z M187.084,380.059l0.988,0.989h-0.16l-0.908-0.907L187.084,380.059z M187.312,379.833l1.214,1.214
				h-0.161l-1.134-1.135L187.312,379.833z M187.539,379.605l1.44,1.44h-0.16l-1.361-1.36L187.539,379.605z M187.765,379.378
				l1.668,1.669h-0.16l-1.588-1.589L187.765,379.378z M187.993,379.148l1.895,1.897h-0.161l-1.815-1.815L187.993,379.148z
				 M188.22,378.924l2.122,2.121h-0.161l-2.042-2.042L188.22,378.924z M188.446,378.695l2.35,2.35h-0.161l-2.269-2.27
				L188.446,378.695z M188.674,378.469l2.577,2.576h-0.161l-2.497-2.496L188.674,378.469z M188.901,378.24l2.803,2.805h-0.16
				l-2.724-2.725L188.901,378.24z M189.127,378.016l3.031,3.029h-0.161l-2.95-2.951L189.127,378.016z M189.355,377.788l3.257,3.257
				h-0.161l-3.178-3.178L189.355,377.788z M189.582,377.562l3.485,3.484h-0.16l-3.406-3.404L189.582,377.562z M189.745,344.994
				l3.485,3.484h-0.161l-3.485-3.484H189.745z M189.747,360.909l3.485,3.485h-0.162l-3.484-3.485H189.747z M189.875,377.562h0.16
				l3.487,3.484h-0.16L189.875,377.562z M190.2,344.994l3.484,3.484h-0.161l-3.485-3.484H190.2z M190.201,360.909l3.485,3.485
				h-0.162l-3.485-3.485H190.201z M190.331,377.562h0.161l3.485,3.485h-0.16L190.331,377.562z M190.653,344.994l3.485,3.484h-0.161
				l-3.485-3.484H190.653z M190.655,360.909l3.485,3.485h-0.161l-3.485-3.485H190.655z M190.786,377.562h0.16l3.486,3.485h-0.16
				L190.786,377.562z M191.108,344.994l3.484,3.484h-0.16l-3.485-3.484H191.108z M191.109,360.909l3.484,3.485h-0.16l-3.485-3.485
				H191.109z M191.241,377.562h0.161l3.484,3.484h-0.16L191.241,377.562z M191.562,344.994l3.485,3.484h-0.161l-3.484-3.484H191.562
				z M191.563,360.909l3.485,3.485h-0.16l-3.485-3.485H191.563z M191.695,377.562h0.16l3.485,3.484h-0.162L191.695,377.562z
				 M192.016,344.994l3.485,3.484h-0.161l-3.485-3.484H192.016z M192.018,360.909l3.485,3.485h-0.16l-3.484-3.485H192.018z
				 M192.15,377.562h0.161l3.483,3.484h-0.161L192.15,377.562z M192.471,344.994l3.485,3.484h-0.161l-3.484-3.484H192.471z
				 M192.473,360.909l3.485,3.485h-0.161l-3.484-3.485H192.473z M192.604,377.564h0.161l3.483,3.482h-0.161L192.604,377.564z
				 M192.925,344.994l3.485,3.484h-0.161l-3.485-3.484H192.925z M192.927,360.909l3.485,3.485h-0.161l-3.485-3.485H192.927z
				 M193.059,377.564h0.161l3.482,3.482h-0.16L193.059,377.564z M193.38,344.994l3.33,3.33l-0.08,0.08l-3.41-3.41H193.38
				L193.38,344.994z M193.382,360.909l3.327,3.327l-0.08,0.08l-3.408-3.407H193.382L193.382,360.909z M193.515,377.564h0.16
				l3.482,3.482h-0.16L193.515,377.564z M193.834,344.994l3.103,3.102l-0.08,0.08l-3.182-3.184L193.834,344.994z M193.836,360.909
				l3.1,3.099l-0.081,0.08l-3.181-3.181L193.836,360.909z M193.97,377.566h0.16l3.482,3.48h-0.16L193.97,377.566z M194.289,344.992
				l2.876,2.876l-0.08,0.08l-2.956-2.956H194.289z M194.291,360.907l2.873,2.875l-0.08,0.079l-2.953-2.952L194.291,360.907z
				 M194.424,377.566h0.162l3.48,3.48h-0.16L194.424,377.566z M194.744,344.992l2.648,2.646l-0.08,0.08l-2.729-2.728
				L194.744,344.992L194.744,344.992z M194.746,360.909l2.645,2.646l-0.08,0.08l-2.726-2.726H194.746L194.746,360.909z
				 M195.042,377.564l3.479,3.479h-0.161l-3.48-3.479H195.042z M195.199,344.992l2.42,2.421l-0.08,0.08l-2.501-2.501H195.199
				L195.199,344.992z M195.2,360.909l2.418,2.418l-0.08,0.08l-2.5-2.5L195.2,360.909z M195.496,377.564l3.479,3.479h-0.16
				l-3.48-3.479H195.496z M195.653,344.992l2.194,2.193l-0.08,0.078l-2.274-2.271H195.653z M195.655,360.907l2.19,2.192
				l-0.081,0.078l-2.271-2.271H195.655z M195.95,377.564l3.48,3.479h-0.16l-3.479-3.479H195.95z M196.107,344.992l1.967,1.967
				l-0.08,0.08l-2.046-2.047H196.107z M196.109,360.907l1.963,1.966l-0.08,0.079l-2.045-2.045H196.109z M196.404,377.564l3.48,3.479
				h-0.16l-3.479-3.479H196.404z M196.562,344.992l1.74,1.738l-0.081,0.08l-1.819-1.82L196.562,344.992z M196.564,360.907
				l1.735,1.737l-0.08,0.08l-1.817-1.817H196.564z M196.859,377.564l3.48,3.479h-0.161l-3.479-3.479H196.859z M197.017,344.99
				l1.512,1.513l-0.08,0.081l-1.592-1.594H197.017z M197.018,360.907l1.51,1.511l-0.08,0.08l-1.59-1.591H197.018L197.018,360.907z
				 M197.313,377.564l3.47,3.471l-0.152,0.008l-3.478-3.479H197.313z M197.471,344.99l1.286,1.285l-0.08,0.08l-1.366-1.365H197.471
				L197.471,344.99z M197.473,360.907l1.281,1.282l-0.08,0.082l-1.363-1.364H197.473z M197.768,377.564l3.414,3.412l-0.136,0.026
				l-3.438-3.438H197.768z M197.926,344.99l1.058,1.058l-0.08,0.082l-1.137-1.14H197.926z M197.927,360.907l1.055,1.057l-0.08,0.079
				l-1.135-1.136H197.927L197.927,360.907z M198.223,377.564l3.313,3.314l-0.12,0.039l-3.354-3.354H198.223z M198.38,344.99
				l0.831,0.83l-0.081,0.08l-0.91-0.91H198.38L198.38,344.99z M198.382,360.907l0.828,0.827l-0.081,0.08l-0.908-0.907H198.382z
				 M198.677,377.564l3.181,3.183l-0.109,0.05l-3.231-3.23L198.677,377.564z M198.835,344.99l0.603,0.604l-0.08,0.079l-0.683-0.683
				H198.835z M198.837,360.907l0.6,0.602l-0.08,0.08l-0.68-0.682H198.837L198.837,360.907z M199.132,377.566l3.017,3.018
				l-0.099,0.061l-3.079-3.078H199.132L199.132,377.566z M199.29,344.99l0.376,0.377l-0.08,0.078l-0.457-0.455H199.29L199.29,344.99
				z M199.292,360.907l0.373,0.374l-0.08,0.078l-0.453-0.452H199.292z M199.586,377.566l2.828,2.828l-0.089,0.069l-2.9-2.897
				H199.586z M199.744,344.99l0.149,0.148l-0.08,0.079l-0.229-0.229h0.16V344.99z M199.746,360.907l0.146,0.147l-0.08,0.078
				l-0.227-0.227L199.746,360.907L199.746,360.907z M200.035,377.566l2.617,2.615l-0.08,0.077l-2.693-2.692H200.035z
				 M200.037,358.473l1.217,1.217l-0.079,0.08l-1.137-1.138L200.037,358.473z M200.037,358.927l0.99,0.99l-0.079,0.08l-0.911-0.911
				V358.927z M200.037,359.381l0.764,0.764l-0.08,0.08l-0.684-0.684V359.381z M200.038,359.836l0.536,0.535l-0.081,0.08
				l-0.457-0.456L200.038,359.836z M200.038,357.561l1.673,1.674l-0.08,0.082l-1.593-1.594V357.561z M200.038,358.018l1.444,1.445
				l-0.08,0.079l-1.364-1.364V358.018z M200.038,360.29l0.31,0.31l-0.082,0.08l-0.228-0.229V360.29z M200.038,360.745l0.082,0.081
				l-0.082,0.08V360.745z M200.194,357.421h0.16l1.587,1.585l-0.08,0.08L200.194,357.421z M200.648,357.421h0.16l1.358,1.358
				l-0.08,0.08L200.648,357.421z M201.102,357.421h0.162l1.131,1.132l-0.08,0.08L201.102,357.421z M201.557,357.421h0.16
				l0.903,0.904l-0.08,0.079L201.557,357.421z M202.012,357.421h0.158l0.678,0.679l-0.08,0.08L202.012,357.421z M202.465,357.423
				h0.16l0.449,0.449l-0.08,0.08L202.465,357.423z M202.92,357.423h0.159l0.224,0.222l-0.082,0.08L202.92,357.423z M203.374,357.423
				h0.149l-0.074,0.074L203.374,357.423z"/>
			<path fill="#1C5031" d="M210.229,380.967l0.08,0.08h-0.158L210.229,380.967z M210.457,380.74l0.307,0.307h-0.162l-0.227-0.227
				L210.457,380.74z M210.684,380.514l0.534,0.534h-0.161l-0.453-0.454L210.684,380.514z M210.91,380.287l0.761,0.761h-0.159
				l-0.682-0.681L210.91,380.287z M211.137,380.059l0.987,0.989h-0.16l-0.907-0.907L211.137,380.059z M211.363,379.833l1.215,1.214
				h-0.161l-1.134-1.135L211.363,379.833z M211.591,379.605l1.44,1.44h-0.16l-1.361-1.36L211.591,379.605z M211.816,379.378
				l1.668,1.669h-0.158l-1.59-1.589L211.816,379.378z M212.046,379.148l1.896,1.897h-0.162l-1.814-1.815L212.046,379.148z
				 M212.271,378.924l2.121,2.121h-0.16l-2.043-2.042L212.271,378.924z M212.498,378.695l2.35,2.35h-0.158l-2.271-2.27
				L212.498,378.695z M212.727,378.469l2.576,2.576h-0.16l-2.496-2.496L212.727,378.469z M212.953,378.24l2.803,2.805h-0.16
				l-2.723-2.725L212.953,378.24z M213.18,378.016l3.03,3.029h-0.159l-2.951-2.951L213.18,378.016z M213.407,377.788l3.258,3.257
				h-0.16l-3.179-3.178L213.407,377.788z M213.634,377.562l3.485,3.484h-0.159l-3.405-3.404L213.634,377.562z M213.797,344.994
				l3.485,3.484h-0.161l-3.484-3.484H213.797z M213.799,360.909l3.485,3.485h-0.162l-3.483-3.485H213.799z M213.928,377.562h0.161
				l3.486,3.484h-0.161L213.928,377.562z M214.252,344.994l3.484,3.484h-0.161l-3.485-3.484H214.252z M214.253,360.909l3.485,3.485
				h-0.161l-3.485-3.485H214.253z M214.384,377.562h0.159l3.484,3.485h-0.158L214.384,377.562z M214.706,344.994l3.485,3.484h-0.162
				l-3.484-3.484H214.706z M214.708,360.909l3.485,3.485h-0.162l-3.484-3.485H214.708z M214.838,377.562h0.16l3.486,3.485h-0.161
				L214.838,377.562z M215.161,344.994l3.483,3.484h-0.16l-3.485-3.484H215.161z M215.162,360.909l3.482,3.485h-0.158l-3.485-3.485
				H215.162z M215.293,377.562h0.161l3.483,3.484h-0.16L215.293,377.562z M215.613,344.994l3.484,3.484h-0.158l-3.485-3.484H215.613
				z M215.615,360.909l3.484,3.485h-0.16l-3.483-3.485H215.615z M215.747,377.562h0.16l3.485,3.484h-0.162L215.747,377.562z
				 M216.068,344.994l3.484,3.484h-0.16l-3.484-3.484H216.068z M216.07,360.909l3.484,3.485h-0.16l-3.484-3.485H216.07z
				 M216.202,377.562h0.161l3.482,3.484h-0.16L216.202,377.562z M216.521,344.994l3.485,3.484h-0.161l-3.482-3.484H216.521z
				 M216.523,360.909l3.485,3.485h-0.161l-3.482-3.485H216.523z M216.656,377.564h0.16l3.484,3.482h-0.162L216.656,377.564z
				 M216.979,344.994l3.484,3.484h-0.161l-3.485-3.484H216.979z M216.979,360.909l3.484,3.485h-0.161l-3.485-3.485H216.979z
				 M217.111,377.564h0.16l3.481,3.482h-0.159L217.111,377.564z M217.432,344.994l3.332,3.33l-0.08,0.08l-3.41-3.41H217.432
				L217.432,344.994z M217.434,360.909l3.328,3.327l-0.08,0.08l-3.406-3.407H217.434L217.434,360.909z M217.566,377.564h0.16
				l3.481,3.482h-0.16L217.566,377.564z M217.887,344.994l3.104,3.102l-0.08,0.08l-3.184-3.184L217.887,344.994z M217.889,360.909
				l3.102,3.099l-0.082,0.08l-3.182-3.181L217.889,360.909z M218.021,377.566h0.16l3.48,3.48h-0.159L218.021,377.566z
				 M218.341,344.992l2.876,2.876l-0.078,0.08l-2.957-2.956H218.341z M218.343,360.907l2.873,2.875l-0.079,0.079l-2.953-2.952
				L218.343,360.907z M218.477,377.566h0.162l3.479,3.48h-0.16L218.477,377.566z M218.796,344.992l2.649,2.646l-0.08,0.08
				l-2.729-2.728L218.796,344.992L218.796,344.992z M218.798,360.909l2.646,2.646l-0.08,0.08l-2.725-2.726H218.798L218.798,360.909z
				 M219.094,377.564l3.48,3.479h-0.161l-3.479-3.479H219.094z M219.252,344.992l2.42,2.421l-0.08,0.08l-2.501-2.501H219.252
				L219.252,344.992z M219.252,360.909l2.418,2.418l-0.08,0.08l-2.499-2.5L219.252,360.909z M219.549,377.564l3.479,3.479h-0.159
				l-3.479-3.479H219.549z M219.705,344.992l2.193,2.193l-0.078,0.078l-2.275-2.271H219.705z M219.707,360.907l2.191,2.192
				l-0.082,0.078l-2.271-2.271H219.707z M220.002,377.564l3.479,3.479h-0.158l-3.48-3.479H220.002z M220.159,344.992l1.967,1.967
				l-0.079,0.08L220,344.992H220.159z M220.161,360.907l1.964,1.966l-0.08,0.079L220,360.907H220.161z M220.456,377.564l3.479,3.479
				h-0.16l-3.479-3.479H220.456z M220.613,344.992l1.74,1.738l-0.08,0.08l-1.819-1.82L220.613,344.992z M220.616,360.907
				l1.735,1.737l-0.08,0.08l-1.817-1.817H220.616z M220.911,377.564l3.479,3.479h-0.162l-3.479-3.479H220.911z M221.068,344.99
				l1.513,1.513l-0.08,0.081l-1.592-1.594H221.068z M221.07,360.907l1.509,1.511l-0.08,0.08l-1.59-1.591H221.07L221.07,360.907z
				 M221.365,377.564l3.471,3.471l-0.15,0.008l-3.479-3.479H221.365z M221.523,344.99l1.285,1.285l-0.08,0.08l-1.365-1.365H221.523
				L221.523,344.99z M221.525,360.907l1.281,1.282l-0.08,0.082l-1.363-1.364H221.525z M221.82,377.564l3.412,3.412l-0.135,0.026
				l-3.438-3.438H221.82z M221.979,344.99l1.058,1.058l-0.079,0.082l-1.139-1.14H221.979z M221.979,360.907l1.056,1.057l-0.08,0.079
				l-1.134-1.136H221.979L221.979,360.907z M222.273,377.564l3.314,3.314l-0.121,0.039l-3.354-3.354H222.273z M222.434,344.99
				l0.83,0.83l-0.08,0.08l-0.91-0.91H222.434L222.434,344.99z M222.436,360.907l0.826,0.827l-0.08,0.08l-0.906-0.907H222.436z
				 M222.729,377.564l3.183,3.183l-0.11,0.05l-3.23-3.23L222.729,377.564z M222.887,344.99l0.604,0.604l-0.08,0.079l-0.683-0.683
				H222.887z M222.889,360.907l0.601,0.602l-0.08,0.08l-0.679-0.682H222.889L222.889,360.907z M223.184,377.566l3.019,3.018
				l-0.101,0.061l-3.076-3.078H223.184L223.184,377.566z M223.342,344.99l0.376,0.377l-0.079,0.078l-0.457-0.455H223.342
				L223.342,344.99z M223.344,360.907l0.373,0.374l-0.08,0.078l-0.453-0.452H223.344z M223.639,377.566l2.828,2.828l-0.09,0.069
				l-2.9-2.897H223.639z M223.796,344.99l0.149,0.148l-0.079,0.079l-0.229-0.229h0.159V344.99z M223.798,360.907l0.146,0.147
				l-0.078,0.078l-0.227-0.227L223.798,360.907L223.798,360.907z M224.088,377.566l2.617,2.615l-0.08,0.077l-2.693-2.692H224.088z
				 M224.09,358.473l1.217,1.217l-0.08,0.08l-1.137-1.138V358.473z M224.09,358.927l0.99,0.99l-0.08,0.08l-0.91-0.911V358.927z
				 M224.09,359.381l0.764,0.764l-0.08,0.08l-0.684-0.684V359.381z M224.09,359.836l0.536,0.535l-0.08,0.08l-0.456-0.456V359.836z
				 M224.09,357.561l1.674,1.674l-0.08,0.082l-1.594-1.594V357.561L224.09,357.561z M224.09,358.018l1.445,1.445l-0.08,0.079
				l-1.365-1.364V358.018z M224.09,360.29l0.311,0.31l-0.082,0.08l-0.229-0.229V360.29z M224.09,360.745l0.081,0.081l-0.081,0.08
				V360.745z M224.246,357.421h0.158l1.589,1.585l-0.08,0.08L224.246,357.421z M224.7,357.421h0.159l1.358,1.358l-0.079,0.08
				L224.7,357.421z M225.152,357.421h0.162l1.131,1.132l-0.079,0.08L225.152,357.421z M225.607,357.421h0.162l0.901,0.904
				l-0.079,0.079L225.607,357.421z M226.062,357.421h0.16l0.678,0.679l-0.08,0.08L226.062,357.421z M226.518,357.423h0.159
				l0.45,0.449l-0.08,0.08L226.518,357.423z M226.973,357.423h0.159l0.224,0.222l-0.082,0.08L226.973,357.423z M227.427,357.423
				h0.149l-0.074,0.074L227.427,357.423z"/>
			<path fill="#1C5031" d="M231.995,380.965l0.114,0.082h-0.172L231.995,380.965z M232.223,380.74l0.34,0.307h-0.17l-0.227-0.227
				L232.223,380.74z M232.45,380.512l0.565,0.536h-0.17l-0.453-0.454L232.45,380.512z M232.677,380.285l0.794,0.762h-0.17
				l-0.682-0.682L232.677,380.285z M232.902,380.059l1.021,0.988h-0.172l-0.906-0.908L232.902,380.059z M233.129,379.829
				l1.237,1.218h-0.158l-1.134-1.136L233.129,379.829z M233.355,379.604l1.463,1.443h-0.159l-1.36-1.363L233.355,379.604z
				 M233.582,379.375l1.691,1.672h-0.16l-1.588-1.593L233.582,379.375z M233.809,379.146l1.92,1.899h-0.16l-1.814-1.819
				L233.809,379.146z M234.037,378.919l2.146,2.128h-0.162L233.979,379L234.037,378.919z M234.283,378.691l2.354,2.354h-0.162
				l-2.27-2.274L234.283,378.691z M234.51,378.464l2.582,2.583h-0.16l-2.502-2.503L234.51,378.464z M234.734,378.234l2.811,2.812
				h-0.16l-2.73-2.73L234.734,378.234z M234.962,378.008l3.037,3.037h-0.161l-2.957-2.957L234.962,378.008z M235.188,377.779
				l3.267,3.266h-0.161l-3.184-3.186L235.188,377.779z M235.407,377.561l3.485,3.484h-0.145l-3.414-3.414L235.407,377.561z
				 M236.885,371.293l3.202,3.203h-0.16l-3.202-3.203H236.885z M237.338,371.293l3.203,3.202h-0.161l-3.202-3.202H237.338z
				 M237.792,371.293l3.202,3.202h-0.16l-3.203-3.202H237.792z M238.247,371.293l3.202,3.202h-0.162l-3.201-3.202H238.247z
				 M238.701,371.293l3.199,3.2h-0.158l-3.202-3.2H238.701z M239.154,371.293l3.201,3.2h-0.16l-3.2-3.202L239.154,371.293z
				 M239.609,371.291l3.201,3.202h-0.162l-3.199-3.202H239.609z M240.062,371.291l3.201,3.2h-0.16l-3.199-3.2H240.062z
				 M240.52,371.291l3.199,3.2h-0.162l-3.199-3.2H240.52z M240.973,371.291l3.198,3.2h-0.159l-3.199-3.2H240.973z M241.428,371.291
				l3.105,3.105l-0.08,0.08l-3.186-3.187L241.428,371.291L241.428,371.291z M241.882,371.291l2.878,2.878l-0.08,0.081l-2.957-2.959
				H241.882L241.882,371.291z M242.337,371.291l2.649,2.65l-0.078,0.08l-2.731-2.73H242.337z M242.791,371.291l2.423,2.423
				l-0.079,0.08l-2.503-2.503H242.791z M243.246,371.291l2.195,2.197l-0.08,0.078l-2.275-2.275H243.246z M243.7,371.291l1.969,1.969
				l-0.08,0.08l-2.048-2.049H243.7L243.7,371.291z M244.154,371.291l1.742,1.74l-0.082,0.08l-1.819-1.821L244.154,371.291z
				 M244.609,371.29l1.514,1.515l-0.079,0.08l-1.594-1.595H244.609z M245.064,371.29l1.285,1.287l-0.08,0.08l-1.367-1.367H245.064
				L245.064,371.29z M245.52,371.29l1.058,1.06l-0.08,0.08l-1.14-1.14H245.52L245.52,371.29z M245.516,380.973l0.075,0.072h-0.147
				L245.516,380.973z M245.744,380.743l0.301,0.302h-0.161l-0.22-0.22L245.744,380.743z M245.975,371.29l0.83,0.831l-0.082,0.079
				l-0.91-0.912L245.975,371.29z M245.973,380.518l0.527,0.529h-0.161l-0.448-0.447L245.973,380.518z M246.198,380.29l0.756,0.757
				h-0.161l-0.675-0.677L246.198,380.29z M246.427,371.288l0.604,0.604l-0.08,0.08l-0.686-0.686L246.427,371.288L246.427,371.288z
				 M246.425,380.062l0.984,0.981h-0.161l-0.902-0.901L246.425,380.062z M246.652,379.836l1.211,1.209h-0.161l-1.129-1.129
				L246.652,379.836z M246.881,371.288l0.377,0.377l-0.08,0.081l-0.455-0.458H246.881z M246.879,379.607l1.438,1.438h-0.158
				l-1.357-1.357L246.879,379.607z M247.105,379.38l1.666,1.665h-0.162l-1.584-1.584L247.105,379.38z M247.336,371.288l0.148,0.149
				l-0.08,0.08l-0.229-0.229H247.336z M247.334,379.152l1.893,1.893h-0.162l-1.812-1.812L247.334,379.152z M247.561,378.925
				l2.121,2.12h-0.162l-2.039-2.038L247.561,378.925z M247.788,378.698l2.347,2.347h-0.16l-2.266-2.268L247.788,378.698z
				 M248.016,378.471l2.574,2.574h-0.162l-2.492-2.495L248.016,378.471z M248.241,378.244l2.801,2.801h-0.159l-2.721-2.721
				L248.241,378.244z M248.471,378.016l3.026,3.027h-0.161l-2.947-2.947L248.471,378.016z M248.695,377.789l3.256,3.254h-0.161
				l-3.174-3.174L248.695,377.789z M248.924,377.562l3.482,3.48h-0.16l-3.403-3.402L248.924,377.562z"/>
			<path fill="#1C5031" d="M257.354,381.033l0.08-0.081l0.084,0.085h-0.158L257.354,381.033z M257.581,380.802l0.081-0.081
				l0.312,0.312h-0.162L257.581,380.802z M257.809,380.575l0.08-0.081l0.538,0.539h-0.159L257.809,380.575z M258.037,380.346
				l0.08-0.08l0.764,0.766h-0.158L258.037,380.346z M258.264,380.119l0.08-0.08l0.99,0.99h-0.159L258.264,380.119z M258.49,379.893
				l0.08-0.08l1.219,1.219h-0.16L258.49,379.893z M258.718,379.665l0.08-0.08l1.445,1.445h-0.159L258.718,379.665z M258.943,379.438
				l0.08-0.08l1.675,1.674h-0.16L258.943,379.438z M259.171,379.21l0.08-0.08l1.901,1.901h-0.161L259.171,379.21z M259.398,378.982
				l0.08-0.078l2.129,2.127h-0.162L259.398,378.982z M259.626,378.757l0.081-0.079l2.354,2.354h-0.16L259.626,378.757z
				 M259.854,378.529l0.08-0.082l2.584,2.582h-0.162L259.854,378.529z M260.082,378.301l0.08-0.08l2.809,2.811h-0.158
				L260.082,378.301z M260.307,378.083l0.08-0.08l3.037,3.037h-0.16L260.307,378.083z M260.535,377.854l0.08-0.08l3.263,3.265
				h-0.161L260.535,377.854z M260.762,377.626l0.079-0.079l3.492,3.491h-0.161L260.762,377.626z M261.016,345.002l3.491,3.491
				h-0.159l-3.492-3.491H261.016z M261.02,360.911l3.396,3.396l-0.073,0.088l-3.48-3.482L261.02,360.911L261.02,360.911z
				 M261.471,345.002l3.491,3.491h-0.16l-3.491-3.491H261.471z M264.62,364.059l-3.146-3.146h-0.162l3.234,3.234L264.62,364.059z
				 M261.927,345.002l3.491,3.491h-0.161l-3.491-3.491H261.927z M261.928,360.911l2.897,2.896l-0.072,0.088l-2.983-2.983H261.928z
				 M262.381,345.002l3.492,3.491h-0.162l-3.49-3.491H262.381z M262.383,360.911l2.646,2.649l-0.07,0.086l-2.736-2.735H262.383z
				 M262.834,345.002l3.493,3.491h-0.161l-3.492-3.491H262.834z M262.837,360.911l2.397,2.399l-0.07,0.088l-2.488-2.487H262.837z
				 M263.288,345.002l3.491,3.491h-0.159l-3.493-3.491H263.288z M263.292,360.909l2.149,2.149l-0.072,0.09l-2.238-2.239H263.292
				L263.292,360.909z M263.745,345.002l3.491,3.491h-0.161l-3.492-3.491H263.745z M263.746,360.911l1.9,1.901l-0.07,0.088
				l-1.991-1.989H263.746z M264.197,345.002l3.492,3.491h-0.16l-3.491-3.491H264.197z M264.201,360.911l1.652,1.653l-0.072,0.088
				l-1.741-1.741H264.201L264.201,360.911z M264.652,345.002l3.416,3.415l-0.084,0.076l-3.492-3.491H264.652z M264.654,360.911
				l1.406,1.403l-0.074,0.088l-1.492-1.491H264.654z M265.105,345.002l3.189,3.188l-0.08,0.08l-3.27-3.268H265.105z
				 M265.107,360.911l1.158,1.155l-0.074,0.088l-1.242-1.243H265.107z M265.562,345.002l2.961,2.959l-0.08,0.081l-3.043-3.04
				H265.562z M265.564,360.911l0.906,0.907l-0.072,0.088l-0.996-0.995H265.564L265.564,360.911z M266.016,345.002l2.732,2.73
				l-0.079,0.082l-2.812-2.812H266.016z M266.02,360.911l0.656,0.657l-0.07,0.089l-0.746-0.746H266.02z M266.471,345l2.504,2.506
				l-0.078,0.08l-2.586-2.584L266.471,345z M266.473,360.911l0.408,0.409l-0.07,0.088l-0.498-0.497H266.473z M266.925,345
				l2.276,2.277l-0.079,0.08L266.764,345H266.925z M266.927,360.911l0.161,0.159l-0.072,0.088l-0.248-0.247H266.927z
				 M267.38,345.002l2.048,2.048l-0.08,0.082l-2.127-2.13H267.38z M267.223,360.911h0.159l0.951,0.948L267.223,360.911z
				 M267.834,345.002l1.822,1.82l-0.08,0.08l-1.903-1.9H267.834z M267.836,360.911l3.492,3.491h-0.023l-0.947-0.812l-2.681-2.68
				L267.836,360.911L267.836,360.911z M268.289,345.002l1.594,1.594l-0.08,0.081l-1.674-1.675H268.289z M268.291,360.911
				l3.491,3.491h-0.161l-3.492-3.491H268.291z M268.743,345.002l1.366,1.365l-0.08,0.08l-1.447-1.445H268.743L268.743,345.002z
				 M268.745,360.907l3.479,3.479c-0.051,0.006-0.101,0.008-0.15,0.01l-3.488-3.489H268.745z M269.195,345.002l1.141,1.139
				l-0.08,0.08l-1.219-1.219H269.195z M269.201,360.904l3.422,3.422c-0.044,0.01-0.09,0.018-0.135,0.025l-3.448-3.449
				L269.201,360.904z M269.205,381.038l0.057-0.071l0.07,0.071H269.205z M269.395,380.807l0.071-0.09l0.32,0.321h-0.159
				L269.395,380.807z M269.652,345.002l0.91,0.911l-0.08,0.079l-0.991-0.99H269.652L269.652,345.002z M269.656,360.902l3.322,3.322
				c-0.039,0.015-0.08,0.027-0.121,0.041l-3.362-3.363H269.656L269.656,360.902z M269.598,380.555l0.071-0.088l0.572,0.571h-0.16
				L269.598,380.555z M269.801,380.305l0.072-0.089l0.822,0.822h-0.159L269.801,380.305z M270.105,345.002l0.683,0.684l-0.079,0.08
				l-0.764-0.764H270.105z M270.109,360.902l3.188,3.188c-0.034,0.019-0.073,0.034-0.108,0.05l-3.24-3.238H270.109L270.109,360.902z
				 M270.005,380.053l0.071-0.088l1.074,1.073h-0.161L270.005,380.053z M270.208,379.802l0.071-0.088l1.324,1.324h-0.16
				L270.208,379.802z M270.561,345.002l0.457,0.454l-0.082,0.082l-0.535-0.536H270.561z M270.562,360.904l3.027,3.025
				c-0.033,0.021-0.066,0.04-0.102,0.061l-3.086-3.086H270.562z M270.412,379.551l0.07-0.088l1.576,1.575h-0.16L270.412,379.551z
				 M270.615,379.3l0.072-0.09l1.826,1.827h-0.16L270.615,379.3z M270.818,379.049l0.072-0.09l2.077,2.078h-0.159L270.818,379.049z
				 M271.018,345.002l0.227,0.227l-0.08,0.082l-0.309-0.309H271.018L271.018,345.002z M271.02,360.902l2.836,2.839
				c-0.029,0.022-0.06,0.047-0.09,0.069l-2.906-2.906L271.02,360.902z M271.023,378.798l0.07-0.088l2.328,2.327h-0.16
				L271.023,378.798z M271.227,378.547l0.072-0.09l2.579,2.58h-0.16L271.227,378.547z M271.391,345.082l-0.08-0.08h0.157
				L271.391,345.082z M273.34,362.773l0.756,0.758c-0.027,0.025-0.055,0.052-0.082,0.078l-2.699-2.702h0.153L273.34,362.773z
				 M271.432,378.296l0.07-0.088l2.83,2.829h-0.161L271.432,378.296z M271.634,378.045l0.072-0.088l3.081,3.08h-0.161
				L271.634,378.045z M271.838,377.794l0.071-0.089l3.332,3.332h-0.159L271.838,377.794z M272.066,377.568l1.08,0.922l2.549,2.547
				h-0.16L272.066,377.568z M275.989,381.037l-0.863-0.862l1.015,0.862H275.989z"/>
			<path fill="#1C5031" d="M281.938,380.963l0.078,0.079h-0.158L281.938,380.963z M282.163,380.734l0.308,0.308h-0.16l-0.228-0.226
				L282.163,380.734z M282.391,380.509l0.531,0.533h-0.158l-0.453-0.452L282.391,380.509z M282.617,380.282l0.76,0.76h-0.161
				l-0.68-0.679L282.617,380.282z M282.844,380.057l0.986,0.985h-0.162l-0.904-0.906L282.844,380.057z M283.07,379.829l1.213,1.213
				h-0.162l-1.132-1.133L283.07,379.829z M283.297,379.604l1.439,1.438h-0.16l-1.359-1.358L283.297,379.604z M283.525,379.375
				l1.666,1.667h-0.162l-1.586-1.588L283.525,379.375z M283.752,379.148l1.895,1.895h-0.16l-1.813-1.814L283.752,379.148z
				 M283.979,378.92l2.123,2.123h-0.16l-2.043-2.041L283.979,378.92z M284.206,378.693l2.351,2.35h-0.162l-2.27-2.27
				L284.206,378.693z M284.434,378.466l2.576,2.577h-0.16l-2.496-2.496L284.434,378.466z M284.661,378.239l2.804,2.804h-0.16
				l-2.726-2.725L284.661,378.239z M284.887,378.011l3.031,3.032h-0.16l-2.951-2.952L284.887,378.011z M285.113,377.784l3.259,3.259
				h-0.159l-3.179-3.179L285.113,377.784z M285.34,377.561l3.485,3.484h-0.159l-3.407-3.404L285.34,377.561L285.34,377.561z
				 M285.498,344.982l3.484,3.484h-0.158l-3.485-3.484H285.498z M285.795,377.561l3.484,3.484h-0.16l-3.485-3.484H285.795z
				 M285.939,344.982l3.484,3.484h-0.158l-3.486-3.484H285.939z M286.249,377.561l3.485,3.484h-0.159l-3.487-3.484H286.249z
				 M286.395,344.982l3.485,3.484h-0.162l-3.483-3.484H286.395z M286.702,377.561l3.487,3.484h-0.16l-3.486-3.484H286.702z
				 M286.85,344.982l3.484,3.484h-0.161l-3.485-3.484H286.85z M287.158,377.561l3.484,3.484h-0.158l-3.487-3.484H287.158z
				 M287.305,344.982l3.484,3.484h-0.162l-3.484-3.484H287.305z M287.613,377.561l3.484,3.484h-0.16l-3.485-3.484H287.613z
				 M287.758,344.982l3.485,3.484h-0.161l-3.484-3.484H287.758z M288.066,377.561l3.485,3.484h-0.159l-3.486-3.484H288.066z
				 M288.211,344.982l3.484,3.484h-0.159l-3.484-3.484H288.211z M288.521,377.561l3.485,3.484h-0.159l-3.486-3.484H288.521z
				 M288.666,344.982l3.484,3.484h-0.159l-3.485-3.484H288.666z M288.977,377.561l3.485,3.484h-0.161l-3.484-3.484H288.977z
				 M289.12,344.982l3.337,3.336l-0.08,0.08l-3.416-3.418L289.12,344.982z M289.43,377.561l3.485,3.484h-0.159l-3.484-3.484H289.43z
				 M289.575,344.98l3.108,3.109l-0.08,0.08l-3.19-3.189H289.575L289.575,344.98z M289.885,377.561l3.484,3.484h-0.159l-3.485-3.484
				H289.885z M290.029,344.98l2.883,2.884l-0.08,0.079l-2.962-2.963H290.029z M290.339,377.561l3.487,3.484h-0.162l-3.486-3.484
				H290.339z M290.484,344.98l2.654,2.656l-0.078,0.079l-2.736-2.735H290.484z M290.797,377.559l3.485,3.484h-0.161l-3.485-3.484
				H290.797z M290.938,344.98l2.429,2.428l-0.08,0.08l-2.507-2.508H290.938z M291.252,377.559l3.484,3.484h-0.161l-3.485-3.484
				H291.252z M291.395,344.98l2.201,2.201l-0.08,0.079l-2.281-2.28H291.395L291.395,344.98z M291.706,377.559l3.483,3.484h-0.16
				l-3.484-3.484H291.706z M291.848,344.98l1.975,1.974l-0.08,0.08l-2.053-2.054H291.848z M292.159,377.559l3.485,3.484h-0.16
				l-3.485-3.484H292.159z M292.303,344.98l1.746,1.746l-0.08,0.08l-1.826-1.826H292.303z M292.613,377.559l3.484,3.484h-0.158
				l-3.485-3.484H292.613z M292.757,344.98l1.519,1.519l-0.08,0.08l-1.598-1.601L292.757,344.98z M293.068,377.559l3.476,3.476
				c-0.051,0.005-0.103,0.007-0.153,0.009l-3.481-3.484H293.068L293.068,377.559z M293.212,344.979l1.292,1.293l-0.08,0.078
				l-1.372-1.371H293.212z M293.521,377.559l3.42,3.418c-0.045,0.01-0.09,0.019-0.137,0.025l-3.443-3.443H293.521z M293.666,344.979
				l1.064,1.063l-0.078,0.082l-1.146-1.146H293.666L293.666,344.979z M293.979,377.559l3.317,3.318
				c-0.04,0.014-0.079,0.027-0.12,0.041l-3.359-3.359H293.979z M294.122,344.979l0.836,0.838l-0.08,0.08l-0.917-0.918H294.122z
				 M294.432,377.559l3.187,3.186c-0.037,0.02-0.073,0.033-0.11,0.051l-3.236-3.236H294.432L294.432,377.559z M294.575,344.979
				l0.61,0.609l-0.08,0.079l-0.689-0.688H294.575L294.575,344.979z M294.887,377.559l3.021,3.021
				c-0.032,0.021-0.065,0.041-0.1,0.062l-3.082-3.084H294.887z M295.031,344.979l0.383,0.383l-0.079,0.08l-0.465-0.463H295.031z
				 M295.341,377.561l2.832,2.832c-0.028,0.021-0.062,0.047-0.09,0.069l-2.903-2.901H295.341z M295.486,344.979l0.154,0.154
				l-0.08,0.08l-0.235-0.236L295.486,344.979z M295.796,377.561l2.616,2.616c-0.025,0.027-0.055,0.054-0.081,0.078l-2.696-2.694
				H295.796z M295.797,344.979l-0.008,0.01l-0.01-0.01H295.797z"/>
			<path fill="#1C5031" d="M318.458,380.962l0.08,0.08l-0.151-0.009L318.458,380.962z M318.685,380.734l0.308,0.308h-0.16
				l-0.226-0.228L318.685,380.734z M318.911,380.509l0.533,0.533h-0.16l-0.453-0.453L318.911,380.509z M319.138,380.282l0.761,0.76
				h-0.16l-0.681-0.681L319.138,380.282z M319.366,380.055l0.984,0.987h-0.16l-0.906-0.908L319.366,380.055z M319.591,379.828
				l1.214,1.214h-0.16l-1.134-1.133L319.591,379.828z M319.819,379.602l1.438,1.44h-0.161l-1.357-1.36L319.819,379.602z
				 M320.047,379.373l1.667,1.669h-0.16l-1.588-1.589L320.047,379.373z M320.273,379.146l1.895,1.896h-0.159l-1.814-1.815
				L320.273,379.146z M320.502,378.92l2.123,2.122h-0.162L320.42,379L320.502,378.92z M320.729,378.691l2.35,2.351h-0.159
				l-2.27-2.269L320.729,378.691z M320.956,378.466l2.576,2.576h-0.16l-2.496-2.497L320.956,378.466z M321.185,378.239l2.805,2.804
				h-0.161l-2.726-2.725L321.185,378.239z M321.411,378.011l3.032,3.032h-0.162l-2.95-2.952L321.411,378.011z M321.639,377.784
				l3.26,3.259h-0.161l-3.18-3.179L321.639,377.784z M321.875,377.561l3.482,3.482h-0.155l-3.407-3.404L321.875,377.561z"/>
			<path fill="#1C5031" d="M332.192,380.958l0.079,0.08h-0.157L332.192,380.958z M332.42,380.732l0.307,0.306h-0.16l-0.226-0.228
				L332.42,380.732z M332.648,380.506l0.532,0.532h-0.159l-0.453-0.453L332.648,380.506z M332.875,380.277l0.761,0.761h-0.159
				l-0.682-0.681L332.875,380.277z M333.103,380.051l0.988,0.987h-0.16l-0.906-0.907L333.103,380.051z M333.331,379.823l1.216,1.215
				h-0.161l-1.135-1.136L333.331,379.823z M333.558,379.596l1.443,1.442h-0.161l-1.362-1.362L333.558,379.596z M333.786,379.368
				l1.67,1.67h-0.161l-1.589-1.59L333.786,379.368z M334.014,379.143l1.896,1.896h-0.159l-1.817-1.815L334.014,379.143z
				 M334.242,378.914l2.123,2.123h-0.16l-2.045-2.044L334.242,378.914z M334.469,378.686l2.352,2.353h-0.159l-2.271-2.271
				L334.469,378.686z M334.696,378.459l2.579,2.578h-0.161l-2.498-2.498L334.696,378.459z M334.923,378.23l2.806,2.807h-0.158
				l-2.728-2.727L334.923,378.23z M335.151,378.005l3.032,3.032h-0.16l-2.952-2.953L335.151,378.005z M335.378,377.775l3.262,3.262
				h-0.161l-3.181-3.182L335.378,377.775z M335.603,377.552l3.485,3.485h-0.155l-3.406-3.407L335.603,377.552z M342.645,380.957
				l0.081,0.081h-0.16L342.645,380.957z M342.873,380.73l0.308,0.308h-0.161l-0.227-0.228L342.873,380.73z M343.101,380.504
				l0.534,0.534h-0.159l-0.454-0.454L343.101,380.504z M343.327,380.275l0.763,0.763h-0.161l-0.682-0.683L343.327,380.275z
				 M343.556,380.049l0.99,0.989h-0.161l-0.909-0.909L343.556,380.049z M343.783,379.82l1.217,1.218h-0.161l-1.136-1.136
				L343.783,379.82z M344.012,379.596l1.443,1.442h-0.161l-1.364-1.363L344.012,379.596z M344.239,379.366l1.671,1.672h-0.16
				l-1.592-1.59L344.239,379.366z M344.466,379.139l1.898,1.899h-0.159l-1.818-1.817L344.466,379.139z M344.694,378.912l2.124,2.125
				h-0.159l-2.047-2.045L344.694,378.912z M344.921,378.684l2.354,2.354h-0.16l-2.272-2.271L344.921,378.684z M345.148,378.457
				l2.58,2.58h-0.16l-2.499-2.5L345.148,378.457z M345.377,378.229l2.806,2.809h-0.158l-2.729-2.729L345.377,378.229z
				 M345.604,378.001l3.033,3.036h-0.159l-2.953-2.954L345.604,378.001z M345.83,377.773l3.262,3.264h-0.16l-3.182-3.184
				L345.83,377.773z M346.053,377.552l3.483,3.485h-0.149l-3.407-3.409L346.053,377.552z"/>
			<path fill="#1C5031" d="M357.325,380.059l0.692,0.693l-0.378-0.217l-0.396-0.396L357.325,380.059z M357.552,379.831l1.151,1.151
				l-0.213-0.055l-1.02-1.018L357.552,379.831z M357.779,379.604l1.438,1.438l-0.171-0.01l-1.348-1.348L357.779,379.604z
				 M358.006,379.376l1.667,1.666h-0.16l-1.588-1.586L358.006,379.376z M358.232,379.148l1.895,1.894h-0.161l-1.812-1.813
				L358.232,379.148z M358.461,378.92l2.121,2.122h-0.161l-2.042-2.04L358.461,378.92z M358.688,378.693l2.35,2.349h-0.161
				l-2.268-2.269L358.688,378.693z M358.913,378.467l2.576,2.575h-0.159l-2.496-2.495L358.913,378.467z M359.142,378.239
				l2.805,2.803h-0.161l-2.724-2.724L359.142,378.239z M359.368,378.011l3.032,3.031h-0.161l-2.951-2.949L359.368,378.011z
				 M359.597,377.784l3.257,3.258h-0.159l-3.178-3.179L359.597,377.784z M359.824,377.559l3.484,3.483h-0.16l-3.405-3.403
				L359.824,377.559z M359.979,344.995l3.484,3.485h-0.161l-3.482-3.485H359.979z M360.279,377.559l3.483,3.483h-0.161l-3.484-3.483
				H360.279z M360.434,344.995l3.485,3.485h-0.161l-3.484-3.485H360.434z M360.733,377.559l3.484,3.483h-0.161l-3.484-3.483H360.733
				z M360.889,344.995l3.484,3.485h-0.161l-3.485-3.485H360.889z M361.188,377.559l3.483,3.483h-0.16l-3.484-3.483H361.188z
				 M361.343,344.995l3.483,3.485h-0.159l-3.485-3.485H361.343z M361.641,377.559l3.485,3.483h-0.159l-3.484-3.483H361.641z
				 M361.796,344.995l3.485,3.485h-0.16l-3.485-3.485H361.796z M362.096,377.559l3.485,3.483h-0.16l-3.485-3.483H362.096z
				 M362.25,344.995l3.485,3.485h-0.159l-3.485-3.485H362.25z M362.55,377.559l3.485,3.483h-0.161l-3.483-3.483H362.55z
				 M362.705,344.995l3.485,3.485h-0.16l-3.485-3.485H362.705z M363.005,377.559l3.485,3.483h-0.161l-3.485-3.483H363.005z
				 M363.159,344.995l3.484,3.485h-0.16l-3.485-3.485H363.159z M363.459,377.559l3.485,3.483h-0.161l-3.485-3.483H363.459z
				 M363.614,344.995l3.33,3.331l-0.079,0.078l-3.412-3.409H363.614z M363.914,377.559l3.485,3.483h-0.161l-3.485-3.483H363.914z
				 M364.068,344.995l3.103,3.104l-0.08,0.078l-3.182-3.184L364.068,344.995L364.068,344.995z M364.367,377.559l3.484,3.483h-0.159
				l-3.485-3.483H364.367z M364.523,344.995l2.876,2.876l-0.08,0.08l-2.956-2.956H364.523z M364.821,377.559l3.484,3.483h-0.158
				l-3.485-3.483H364.821z M364.978,344.995l2.649,2.647l-0.081,0.082l-2.728-2.729H364.978z M365.274,377.559l3.486,3.483H368.6
				l-3.483-3.483h0.094H365.274z M365.433,344.995l2.421,2.422l-0.079,0.079l-2.501-2.501H365.433z M365.729,377.559l3.486,3.484
				h-0.161l-3.484-3.484H365.729z M365.887,344.995l2.195,2.192l-0.08,0.082l-2.273-2.274H365.887z M366.184,377.559l3.487,3.484
				h-0.162l-3.483-3.484H366.184z M366.342,344.995l1.967,1.967l-0.079,0.08l-2.048-2.047H366.342z M366.639,377.559l3.484,3.484
				h-0.159l-3.484-3.484H366.639z M366.796,344.995l1.74,1.739l-0.079,0.08l-1.82-1.819H366.796z M366.873,357.341l0.081,0.082
				h-0.161L366.873,357.341z M367.093,377.559l3.485,3.484h-0.16l-3.486-3.484H367.093z M367.101,357.114l0.31,0.31h-0.161
				l-0.229-0.229L367.101,357.114z M367.251,344.995l1.514,1.513l-0.081,0.079l-1.593-1.593L367.251,344.995z M367.327,356.889
				l0.536,0.535h-0.161l-0.454-0.456L367.327,356.889z M367.548,377.559l3.478,3.478l-0.153,0.007l-3.483-3.484H367.548
				L367.548,377.559z M367.554,356.661l0.766,0.763h-0.161l-0.684-0.683L367.554,356.661z M367.705,344.994l1.286,1.285l-0.08,0.08
				l-1.365-1.365H367.705z M367.782,356.434l0.989,0.99h-0.16l-0.909-0.91L367.782,356.434z M368.002,377.559l3.42,3.42
				l-0.135,0.025l-3.444-3.445H368.002z M368.009,356.207l1.217,1.217h-0.158l-1.139-1.137L368.009,356.207z M368.162,344.994
				l1.057,1.059l-0.079,0.08l-1.14-1.139H368.162L368.162,344.994z M368.235,355.979l1.444,1.445h-0.16l-1.364-1.363
				L368.235,355.979z M368.457,377.559l3.318,3.32l-0.12,0.039l-3.36-3.359H368.457L368.457,377.559z M368.463,355.752l1.672,1.672
				h-0.161l-1.591-1.592L368.463,355.752z M368.614,344.994l0.831,0.831l-0.079,0.079l-0.911-0.91H368.614z M368.689,355.523
				l1.899,1.899h-0.162l-1.817-1.819L368.689,355.523z M368.911,377.559l3.188,3.188l-0.11,0.051l-3.237-3.238H368.911
				L368.911,377.559z M368.918,355.298l2.126,2.126h-0.161l-2.047-2.046L368.918,355.298z M369.069,344.994l0.604,0.604l-0.08,0.079
				l-0.685-0.683H369.069L369.069,344.994z M369.145,355.068l2.354,2.354h-0.162l-2.271-2.274L369.145,355.068z M369.366,377.559
				l3.021,3.021l-0.102,0.062l-3.083-3.086h0.163V377.559z M369.371,354.843l2.58,2.581h-0.159l-2.501-2.501L369.371,354.843z
				 M369.523,344.994l0.377,0.376l-0.08,0.08l-0.456-0.458L369.523,344.994z M369.599,354.615l2.809,2.809h-0.16l-2.729-2.729
				L369.599,354.615z M369.818,377.559l2.834,2.834l-0.09,0.069l-2.903-2.901L369.818,377.559z M369.825,354.389l3.035,3.035h-0.159
				l-2.956-2.955L369.825,354.389z M369.979,344.992l0.149,0.148l-0.079,0.08l-0.229-0.229H369.979L369.979,344.992z
				 M370.054,354.16l3.263,3.264h-0.16l-3.183-3.182L370.054,354.16z M370.273,377.561l2.619,2.617l-0.083,0.078l-2.696-2.695
				H370.273z M370.275,353.938l3.483,3.485h-0.148l-3.41-3.409L370.275,353.938z"/>
		</g>
	</g>
</g>
</svg>
