<?xml version="1.0" encoding="utf-8"?>
<!-- Generator: Adobe Illustrator 16.0.4, SVG Export Plug-In . SVG Version: 6.00 Build 0)  -->
<!DOCTYPE svg PUBLIC "-//W3C//DTD SVG 1.1//EN" "http://www.w3.org/Graphics/SVG/1.1/DTD/svg11.dtd">
<svg version="1.1" id="Layer_1" xmlns="http://www.w3.org/2000/svg" xmlns:xlink="http://www.w3.org/1999/xlink" x="0px" y="0px"
	 width="400px" height="400px" viewBox="0 0 400 400" enable-background="new 0 0 400 400" xml:space="preserve">
<g>
	<g>
		<g>
			<path fill="#03A04D" d="M44.475,324.507l-5.405,19.572l5.405,19.961h-6.892l-4.538-16.502v16.502h-6.969v-39.525h6.969v15.904
				l4.538-15.91L44.475,324.507z"/>
			<path fill="#03A04D" d="M56.7,324.517v39.525h-6.969v-39.525H56.7z"/>
			<path fill="#03A04D" d="M80.93,327.471v16.957c0,0.817-0.332,1.558-0.868,2.094s-1.276,0.868-2.094,0.868h-7.541v16.652h-6.969
				v-39.519l14.509-0.015c0.818,0,1.558,0.332,2.094,0.868S80.93,326.652,80.93,327.471L80.93,327.471z M70.428,331.479v8.94h3.533
				v-8.94H70.428z"/>
			<path fill="#03A04D" d="M104.539,331.479H94.083v8.942h10.456v6.969H94.083v9.682h10.43l0.025,6.969H90.076
				c-0.818,0-1.559-0.333-2.094-0.868c-0.536-0.536-0.869-1.276-0.869-2.094V327.36c0-0.708,0.331-1.449,0.867-1.985
				c0.536-0.535,1.277-0.866,2.096-0.866h0.585h13.878L104.539,331.479z"/>
			<path fill="#03A04D" d="M123.189,364.04l-4.871-16.639v16.639h-6.982v-39.516l14.639-0.015c0.815,0,1.554,0.333,2.089,0.87
				c0.535,0.536,0.866,1.279,0.866,2.099v16.955c0,0.82-0.312,1.562-0.847,2.101c-0.534,0.536-1.292,0.868-2.107,0.868h-0.684
				l4.834,16.64L123.189,364.04z M118.319,331.493v8.926h3.659v-8.926H118.319z"/>
			<path fill="#03A04D" d="M165.577,364.04h-6.969v-16.65h-3.488v16.65h-6.969v-39.533h6.97v15.912h3.486v-15.912h6.969V364.04z"/>
			<path fill="#03A04D" d="M179.341,324.517v39.525h-6.968v-39.525H179.341z"/>
			<path fill="#03A04D" d="M203.529,340.416l-3.485,3.485l3.485,3.483v13.696c0,0.817-0.333,1.558-0.869,2.094
				s-1.282,0.863-2.1,0.863h-14.459v-39.533l14.457-0.006c0.819,0,1.565,0.339,2.101,0.875s0.868,1.275,0.868,2.094L203.529,340.416
				z M193.072,340.414h3.487v-8.941h-3.487V340.414z M193.072,357.066h3.487v-9.682h-3.487V357.066z"/>
			<path fill="#03A04D" d="M227.581,340.416l-3.485,3.485l3.485,3.483v13.696c0,0.817-0.332,1.558-0.868,2.094
				s-1.282,0.863-2.101,0.863h-14.459v-39.533l14.458-0.006c0.817,0,1.563,0.339,2.1,0.875s0.869,1.275,0.869,2.094L227.581,340.416
				z M217.124,340.414h3.487v-8.941h-3.487V340.414z M217.124,357.066h3.487v-9.682h-3.487V357.066z"/>
			<path fill="#03A04D" d="M245.76,324.519l6.649,39.526h-6.969l-1-6.552h-4.523l-1.024,6.549h-6.956l6.805-39.533L245.76,324.519z
				 M243.355,350.81l-1.13-6.9l-1.156,6.898L243.355,350.81z"/>
			<path fill="#03A04D" d="M269.203,364.04l-4.87-16.639v16.639h-6.983v-39.516l14.64-0.015c0.814,0,1.555,0.333,2.089,0.87
				c0.534,0.536,0.865,1.279,0.865,2.099v16.955c0,0.82-0.312,1.562-0.848,2.101c-0.534,0.536-1.292,0.868-2.106,0.868h-0.685
				l4.835,16.64L269.203,364.04z M264.333,331.493v8.926h3.659v-8.926H264.333z"/>
			<path fill="#03A04D" d="M299.281,361.076c0,0.818-0.333,1.56-0.867,2.096c-0.536,0.535-1.277,0.868-2.096,0.868h-14.463v-39.533
				l14.463-0.015c0.818,0,1.56,0.332,2.096,0.868s0.868,1.277,0.868,2.096L299.281,361.076z M288.825,357.069h3.487v-25.608h-3.487
				V357.069z"/>
			<path fill="#03A04D" d="M325.355,324.517v39.525h-6.969v-39.525H325.355z"/>
			<path fill="#03A04D" d="M349.533,324.507v39.531h-6.967l-3.469-12.824l-0.015,12.826h-6.969v-39.533h6.97l3.523,13.001
				l-0.009-12.998L349.533,324.507z"/>
			<path fill="#03A04D" d="M373.762,340.418h-6.969v-8.944h-3.486v25.596h3.486v-9.683h6.969v13.689c0,0.819-0.332,1.56-0.868,2.096
				c-0.536,0.535-1.276,0.868-2.094,0.868h-11.5c-0.818,0-1.56-0.333-2.096-0.868c-0.536-0.536-0.866-1.276-0.866-2.096v-1.241
				v-32.366c0-0.817,0.33-1.559,0.866-2.095s1.276-0.867,2.094-0.867H370.8c0.817,0,1.56,0.333,2.095,0.868
				c0.536,0.536,0.867,1.276,0.867,2.094V340.418z"/>
		</g>
		<g>
			<path fill="#1C5031" d="M26.156,363.962l0.079,0.078l-0.15-0.009L26.156,363.962z M26.383,363.733l0.307,0.307h-0.162
				l-0.225-0.227L26.383,363.733z M26.609,363.507l0.533,0.533h-0.161l-0.452-0.451L26.609,363.507z M26.836,363.28l0.76,0.76
				h-0.161l-0.68-0.68L26.836,363.28z M27.064,363.054l0.986,0.988h-0.16l-0.907-0.908L27.064,363.054z M27.291,362.828l1.214,1.212
				h-0.161l-1.133-1.133L27.291,362.828z M27.519,362.6l1.44,1.44h-0.161l-1.36-1.36L27.519,362.6z M27.747,362.373l1.668,1.667
				h-0.161l-1.588-1.587L27.747,362.373z M27.974,362.145l1.896,1.896h-0.161l-1.815-1.815L27.974,362.145z M28.201,361.919
				l2.123,2.121h-0.161l-2.042-2.042L28.201,361.919z M28.429,361.69l2.35,2.35h-0.161l-2.27-2.269L28.429,361.69z M28.657,361.464
				l2.576,2.576h-0.161l-2.496-2.496L28.657,361.464z M28.884,361.235l2.804,2.805h-0.16l-2.725-2.725L28.884,361.235z
				 M29.111,361.013l3.031,3.03h-0.16l-2.952-2.95L29.111,361.013z M29.338,360.786l3.259,3.257h-0.16l-3.178-3.177L29.338,360.786z
				 M29.575,360.56l3.484,3.485h-0.156l-3.406-3.407L29.575,360.56z M37.824,363.733l0.308,0.309h-0.162l-0.216-0.217
				L37.824,363.733z M38.019,363.475l0.568,0.567h-0.162l-0.476-0.477L38.019,363.475z M38.215,363.216l0.826,0.826h-0.16
				l-0.736-0.735L38.215,363.216z M38.412,362.956l1.086,1.086h-0.161l-0.994-0.994L38.412,362.956z M38.607,362.695l1.344,1.345
				h-0.16l-1.253-1.253L38.607,362.695z M38.804,362.437l1.603,1.604h-0.161l-1.512-1.512L38.804,362.437z M38.999,362.179
				l1.862,1.863h-0.16l-1.772-1.771L38.999,362.179z M39.194,361.919l2.123,2.123h-0.161l-2.03-2.032L39.194,361.919z
				 M39.39,361.659l2.382,2.383h-0.161l-2.289-2.291L39.39,361.659z M39.586,361.4l2.64,2.642h-0.161l-2.548-2.549L39.586,361.4z
				 M39.782,361.145l2.899,2.898H42.52l-2.807-2.808L39.782,361.145z M39.978,360.886l3.158,3.157h-0.16l-3.067-3.066
				L39.978,360.886z M40.174,360.628l3.417,3.417h-0.16l-3.327-3.325L40.174,360.628z M41.175,361.332l0.881,0.72l1.989,1.99h-0.161
				L41.175,361.332z M43.666,363.372l0.818,0.67h-0.149L43.666,363.372z"/>
			<path fill="#1C5031" d="M49.802,363.962l0.08,0.08l-0.15-0.009L49.802,363.962z M50.029,363.735l0.307,0.307h-0.161l-0.227-0.227
				L50.029,363.735z M50.255,363.509l0.534,0.533h-0.161l-0.453-0.453L50.255,363.509z M50.483,363.282l0.759,0.76h-0.162
				l-0.679-0.68L50.483,363.282z M50.709,363.054l0.986,0.988h-0.16l-0.907-0.908L50.709,363.054z M50.936,362.828l1.213,1.214
				h-0.161l-1.132-1.133L50.936,362.828z M51.163,362.602l1.439,1.44h-0.16l-1.36-1.361L51.163,362.602z M51.39,362.373l1.668,1.669
				h-0.161l-1.588-1.589L51.39,362.373z M51.618,362.146l1.896,1.896h-0.161l-1.815-1.815L51.618,362.146z M51.845,361.92
				l2.123,2.122h-0.16L51.765,362L51.845,361.92z M52.073,361.692l2.35,2.35h-0.161l-2.269-2.269L52.073,361.692z M52.3,361.466
				l2.576,2.576h-0.161l-2.496-2.497L52.3,361.466z M52.527,361.239l2.804,2.804h-0.16l-2.725-2.724L52.527,361.239z
				 M52.755,361.011l3.031,3.032h-0.16l-2.952-2.952L52.755,361.011z M52.982,360.784l3.259,3.259h-0.16l-3.179-3.179
				L52.982,360.784z M53.218,360.56l3.484,3.483h-0.157l-3.405-3.405L53.218,360.56z"/>
			<path fill="#1C5031" d="M63.539,363.962l0.078,0.08h-0.158L63.539,363.962z M63.765,363.735l0.306,0.307H63.91l-0.226-0.226
				L63.765,363.735z M63.992,363.509l0.533,0.533h-0.161l-0.452-0.452L63.992,363.509z M64.219,363.282l0.759,0.76h-0.16l-0.68-0.68
				L64.219,363.282z M64.446,363.056l0.986,0.986h-0.162l-0.906-0.906L64.446,363.056z M64.673,362.829l1.212,1.213h-0.16
				l-1.132-1.131L64.673,362.829z M64.899,362.603l1.44,1.439h-0.161l-1.359-1.359L64.899,362.603z M65.127,362.376l1.667,1.667
				h-0.16l-1.587-1.587L65.127,362.376z M65.354,362.148l1.895,1.895h-0.161l-1.813-1.814L65.354,362.148z M65.582,361.922
				l2.121,2.121h-0.161l-2.042-2.041L65.582,361.922z M65.809,361.695l2.349,2.348h-0.161l-2.268-2.268L65.809,361.695z
				 M66.035,361.467l2.576,2.576h-0.16l-2.496-2.496L66.035,361.467z M66.263,361.24l2.802,2.803h-0.16l-2.724-2.723L66.263,361.24z
				 M66.49,361.013l3.031,3.03H69.36l-2.951-2.949L66.49,361.013z M66.718,360.786l3.257,3.257h-0.16l-3.178-3.177L66.718,360.786z
				 M66.943,360.56l3.484,3.483h-0.159l-3.404-3.405L66.943,360.56z M67.104,343.906l3.485,3.485h-0.161l-3.485-3.485H67.104z
				 M67.107,327.995l3.485,3.485h-0.161l-3.485-3.485H67.107z M67.553,343.906l3.485,3.485h-0.161l-3.485-3.485H67.553z
				 M67.562,327.995l3.485,3.485h-0.16l-3.485-3.485H67.562z M68.003,343.906l3.485,3.485h-0.161l-3.484-3.485H68.003z
				 M68.016,327.995l3.485,3.485h-0.161l-3.484-3.485H68.016z M68.453,343.906l3.485,3.485h-0.161l-3.484-3.485H68.453z
				 M68.472,327.995l3.484,3.485h-0.16l-3.485-3.485H68.472z M68.902,343.906l3.485,3.485h-0.16l-3.485-3.485H68.902z
				 M68.926,327.995l3.485,3.485h-0.16l-3.485-3.485H68.926z M69.352,343.906l3.485,3.485h-0.16l-3.485-3.485H69.352z
				 M69.381,327.995l3.484,3.485h-0.16l-3.485-3.485H69.381z M69.803,343.906l3.484,3.485h-0.16l-3.485-3.485H69.803z
				 M69.834,327.995l3.485,3.485h-0.16l-3.485-3.485H69.834z M70.252,343.906l3.485,3.485h-0.161l-3.485-3.485H70.252z
				 M70.289,327.995l3.485,3.485h-0.161l-3.485-3.485H70.289z M70.701,343.906l3.485,3.485h-0.161l-3.484-3.485H70.701z
				 M70.744,327.997l3.353,3.354l-0.08,0.079l-3.434-3.435L70.744,327.997z M71.151,343.906l3.485,3.485h-0.16l-3.485-3.485H71.151z
				 M71.198,327.997l3.125,3.125l-0.08,0.08l-3.207-3.205H71.198z M71.601,343.906l3.485,3.485h-0.16l-3.485-3.485H71.601z
				 M71.653,327.997l2.898,2.898l-0.081,0.08l-2.979-2.979H71.653z M72.051,343.906l3.484,3.485h-0.16l-3.485-3.485H72.051z
				 M72.106,327.997l2.671,2.671l-0.08,0.081l-2.752-2.752H72.106z M72.501,343.906l3.486,3.486h-0.16l-3.486-3.486H72.501z
				 M72.561,327.997l2.444,2.444l-0.08,0.079l-2.524-2.523H72.561z M72.951,343.906l3.486,3.486h-0.161l-3.485-3.486H72.951z
				 M73.015,327.997l2.217,2.218l-0.082,0.079l-2.295-2.297H73.015z M73.399,343.906l3.487,3.486h-0.161l-3.485-3.486H73.399z
				 M73.47,327.997l1.989,1.989l-0.08,0.08l-2.069-2.069H73.47z M73.851,343.906l3.485,3.486h-0.161l-3.485-3.486H73.851z
				 M73.924,327.997l1.763,1.763l-0.081,0.08l-1.842-1.843H73.924z M74.301,343.906l3.485,3.486h-0.161l-3.486-3.486H74.301z
				 M74.379,327.999l1.535,1.534l-0.08,0.08l-1.616-1.616L74.379,327.999z M74.75,343.906l3.474,3.474l-0.152,0.01l-3.483-3.483
				H74.75z M74.833,327.999l1.308,1.308l-0.08,0.08l-1.388-1.388H74.833z M75.2,343.906l3.414,3.415l-0.134,0.026l-3.442-3.441H75.2
				z M75.288,327.999l1.08,1.08l-0.08,0.08l-1.16-1.16H75.288z M75.649,343.906l3.314,3.313l-0.121,0.041l-3.354-3.354H75.649z
				 M75.743,327.999l0.853,0.854l-0.08,0.08l-0.934-0.934H75.743z M76.099,343.906l3.181,3.181l-0.109,0.05l-3.232-3.23H76.099z
				 M76.196,327.999l0.626,0.625l-0.08,0.08l-0.708-0.705H76.196z M76.549,343.906l3.018,3.018l-0.099,0.062l-3.079-3.079H76.549z
				 M76.65,327.999l0.399,0.398l-0.08,0.08l-0.479-0.479H76.65z M76.999,343.906l2.831,2.828l-0.091,0.072l-2.9-2.9H76.999z
				 M77.104,327.999l0.172,0.172l-0.08,0.08l-0.252-0.252H77.104z M77.445,343.906l2.616,2.616l-0.082,0.078l-2.695-2.694H77.445z"
				/>
			<path fill="#1C5031" d="M88.101,363.053l0.704,0.704l-0.37-0.211l-0.414-0.413L88.101,363.053z M88.328,362.824l1.157,1.158
				l-0.212-0.052l-1.025-1.024L88.328,362.824z M88.554,362.598l1.442,1.44l-0.169-0.008l-1.353-1.353L88.554,362.598z
				 M88.781,362.37l1.671,1.67h-0.161l-1.589-1.589L88.781,362.37z M89.009,362.144l1.897,1.896h-0.161l-1.817-1.816L89.009,362.144
				z M89.235,361.915l2.125,2.125H91.2l-2.045-2.045L89.235,361.915z M89.462,361.688l2.352,2.354h-0.16l-2.272-2.273
				L89.462,361.688z M89.69,361.461l2.579,2.581h-0.161l-2.499-2.5L89.69,361.461z M89.917,361.234l2.807,2.808h-0.161l-2.727-2.728
				L89.917,361.234z M90.145,361.008l3.034,3.034h-0.16l-2.955-2.954L90.145,361.008z M90.371,360.779l3.262,3.263h-0.161
				l-3.181-3.181L90.371,360.779z M90.602,360.557l3.485,3.485h-0.161l-3.408-3.409L90.602,360.557z M90.76,343.906l3.484,3.485
				h-0.161l-3.485-3.485H90.76z M90.77,327.995l3.485,3.485h-0.16l-3.485-3.485H90.77z M91.057,360.557l3.485,3.485h-0.161
				l-3.484-3.485H91.057z M91.208,343.906l3.485,3.485h-0.16l-3.485-3.485H91.208z M91.218,327.995l3.485,3.485h-0.16l-3.485-3.485
				H91.218z M91.511,360.557l3.485,3.485h-0.161l-3.485-3.485H91.511z M91.656,343.906l3.485,3.485h-0.161l-3.485-3.485H91.656z
				 M91.666,327.995l3.484,3.485h-0.16l-3.485-3.485H91.666z M91.966,360.557l3.485,3.485h-0.161l-3.484-3.485H91.966z
				 M92.105,343.906l3.484,3.485h-0.161l-3.484-3.485H92.105z M92.113,327.995l3.484,3.485h-0.16l-3.485-3.485H92.113z
				 M92.421,360.557l3.484,3.485h-0.16l-3.485-3.485H92.421z M92.553,343.906l3.484,3.485h-0.16l-3.484-3.485H92.553z
				 M92.561,327.995l3.485,3.485h-0.161l-3.485-3.485H92.561z M92.875,360.557l3.485,3.485H96.2l-3.484-3.485H92.875z
				 M93.001,343.906l3.484,3.485h-0.161l-3.484-3.485H93.001z M93.009,327.995l3.484,3.485h-0.161l-3.485-3.485H93.009z
				 M93.331,360.557l3.484,3.485h-0.16l-3.485-3.485H93.331z M93.45,343.906l3.484,3.485h-0.161l-3.484-3.485H93.45z
				 M93.456,327.995l3.484,3.485h-0.16l-3.485-3.485H93.456z M93.786,360.557l3.484,3.485H97.11l-3.485-3.485H93.786z
				 M93.897,343.906l3.484,3.485h-0.16l-3.484-3.485H93.897z M93.903,327.995l3.485,3.485h-0.161l-3.485-3.485H93.903z
				 M94.24,360.557l3.485,3.485h-0.161l-3.485-3.485H94.24z M94.346,343.906l3.484,3.485h-0.161l-3.484-3.485H94.346z
				 M94.352,327.995l3.484,3.485h-0.161l-3.485-3.485H94.352z M94.695,360.557l3.484,3.485h-0.161l-3.485-3.485H94.695z
				 M94.794,343.906l3.484,3.485h-0.161l-3.484-3.485H94.794z M94.799,327.995l3.484,3.485h-0.16l-3.485-3.485H94.799z
				 M95.15,360.557l3.485,3.485h-0.161l-3.485-3.485H95.15z M95.243,343.906l3.483,3.485h-0.16l-3.485-3.485H95.243z
				 M95.246,327.995l3.485,3.485H98.57l-3.485-3.485H95.246z M95.604,360.557l3.485,3.485h-0.16l-3.485-3.485H95.604z
				 M95.69,343.906l3.484,3.485h-0.16l-3.485-3.485H95.69z M95.694,327.995l3.484,3.485h-0.161l-3.485-3.485H95.694z
				 M96.057,360.557l3.487,3.485h-0.161l-3.484-3.485h0.087H96.057z M96.139,343.906l3.483,3.485h-0.16l-3.485-3.485H96.139z
				 M96.141,327.995l3.484,3.485h-0.16l-3.485-3.485H96.141z M96.512,360.557l3.487,3.485h-0.161l-3.486-3.485H96.512z
				 M96.587,343.906l3.483,3.485h-0.16l-3.485-3.485H96.587z M96.588,327.995l3.485,3.485h-0.161l-3.485-3.485H96.588z
				 M96.967,360.557l3.486,3.485h-0.161l-3.485-3.485H96.967z M97.035,343.906l3.484,3.485h-0.16l-3.485-3.485H97.035z
				 M97.037,327.995l3.485,3.485h-0.161l-3.485-3.485H97.037z M97.422,360.557l3.486,3.485h-0.16l-3.486-3.485H97.422z
				 M97.483,343.906l3.483,3.485h-0.16l-3.485-3.485H97.483z M97.484,327.995l3.484,3.485h-0.16l-3.485-3.485H97.484z
				 M97.875,360.557l3.486,3.485h-0.161l-3.485-3.485H97.875z M97.93,343.906l3.484,3.485h-0.161l-3.484-3.485H97.93z
				 M97.931,327.995l3.485,3.485h-0.16l-3.485-3.485H97.931z M98.331,360.557l3.486,3.485h-0.161l-3.485-3.485H98.331z
				 M98.378,343.906l3.483,3.485h-0.161l-3.484-3.485H98.378z M98.379,327.995l3.485,3.485h-0.161l-3.485-3.485H98.379z
				 M98.785,360.557l3.487,3.485h-0.16l-3.486-3.485H98.785z M98.826,343.906l3.483,3.485h-0.16l-3.484-3.485H98.826z
				 M98.826,327.995l3.484,3.485h-0.16l-3.485-3.485H98.826z M99.241,360.557l3.485,3.485h-0.16l-3.486-3.485H99.241z
				 M99.273,343.906l3.483,3.485h-0.161l-3.483-3.485H99.273z M99.273,327.995l3.485,3.485h-0.161l-3.485-3.485H99.273z
				 M99.696,360.557l3.485,3.485h-0.16l-3.487-3.485H99.696z M99.72,343.906l3.483,3.483h-0.16l-3.484-3.483H99.72z M99.722,327.995
				l3.485,3.485h-0.162l-3.485-3.485H99.722z M100.15,360.557l3.486,3.485h-0.161l-3.486-3.485H100.15z M100.168,343.906
				l3.484,3.483h-0.161l-3.484-3.483H100.168z M100.169,327.995l3.484,3.485h-0.16l-3.485-3.485H100.169z M100.605,360.557
				l3.487,3.485h-0.162l-3.485-3.485H100.605z M100.615,343.906l3.484,3.483h-0.161l-3.483-3.483H100.615z M100.616,327.995
				l3.485,3.485h-0.161l-3.485-3.485H100.616z M101.06,343.906l3.483,3.483h-0.161l-3.484-3.483H101.06z M101.056,360.557
				l3.483,3.485h-0.155l-3.486-3.485H101.056z M101.063,327.995l3.484,3.485h-0.16l-3.485-3.485H101.063z"/>
			<path fill="#1C5031" d="M111.341,364.033l0.08-0.081l0.085,0.085h-0.161L111.341,364.033z M111.567,363.802l0.081-0.081
				l0.311,0.312h-0.161L111.567,363.802z M111.795,363.575l0.08-0.081l0.538,0.539h-0.16L111.795,363.575z M112.023,363.346
				l0.08-0.08l0.764,0.765h-0.16L112.023,363.346z M112.249,363.119l0.08-0.08l0.992,0.991h-0.161L112.249,363.119z
				 M112.476,362.892l0.08-0.08l1.219,1.219h-0.16L112.476,362.892z M112.705,362.665l0.08-0.08l1.445,1.445h-0.161L112.705,362.665
				z M112.931,362.438l0.08-0.08l1.673,1.673h-0.161L112.931,362.438z M113.157,362.21l0.08-0.08l1.901,1.901h-0.161L113.157,362.21
				z M113.385,361.983l0.08-0.079l2.128,2.127h-0.162L113.385,361.983z M113.612,361.757l0.081-0.079l2.355,2.354h-0.161
				L113.612,361.757z M113.839,361.529l0.081-0.082l2.582,2.583h-0.161L113.839,361.529z M114.067,361.301l0.081-0.08l2.809,2.81
				h-0.161L114.067,361.301z M114.293,361.083l0.08-0.08l3.037,3.037h-0.162L114.293,361.083z M114.521,360.854l0.08-0.08
				l3.264,3.264h-0.161L114.521,360.854z M114.747,360.626l0.081-0.079l3.491,3.491h-0.161L114.747,360.626z M115.002,328.002
				l3.492,3.491h-0.16l-3.492-3.491H115.002z M115.005,343.911l3.395,3.396l-0.073,0.088l-3.482-3.483H115.005z M115.457,328.002
				l3.492,3.491h-0.16l-3.492-3.491H115.457z M118.605,347.058l-3.146-3.146h-0.161l3.234,3.234L118.605,347.058z M115.913,328.002
				l3.492,3.491h-0.161l-3.492-3.491H115.913z M115.914,343.911l2.897,2.896l-0.072,0.088l-2.985-2.984H115.914z M116.366,328.002
				l3.492,3.491h-0.16l-3.492-3.491H116.366z M116.369,343.911l2.648,2.649l-0.072,0.086l-2.736-2.735H116.369z M116.82,328.002
				l3.492,3.491h-0.16l-3.492-3.491H116.82z M116.823,343.911l2.398,2.399l-0.072,0.088l-2.488-2.487H116.823z M117.275,328.002
				l3.492,3.491h-0.161l-3.493-3.491H117.275z M117.277,343.909l2.151,2.15l-0.073,0.089l-2.239-2.239H117.277z M117.73,328.002
				l3.492,3.491h-0.16l-3.492-3.491H117.73z M117.732,343.911l1.901,1.901l-0.072,0.088l-1.99-1.989H117.732z M118.184,328.002
				l3.492,3.491h-0.16l-3.492-3.491H118.184z M118.187,343.911l1.652,1.653l-0.073,0.088l-1.741-1.741H118.187z M118.639,328.002
				l3.416,3.415l-0.083,0.076l-3.493-3.491H118.639z M118.641,343.911l1.404,1.404l-0.073,0.088l-1.492-1.492H118.641z
				 M119.093,328.002l3.188,3.187l-0.08,0.08l-3.268-3.267H119.093z M119.095,343.911l1.156,1.155l-0.072,0.088l-1.243-1.243
				H119.095z M119.548,328.002l2.96,2.959l-0.081,0.081l-3.042-3.04H119.548z M119.55,343.911l0.907,0.907l-0.072,0.088
				l-0.996-0.995H119.55z M120.002,328.002l2.732,2.73l-0.08,0.082l-2.813-2.812H120.002z M120.005,343.911l0.657,0.658
				l-0.072,0.088l-0.746-0.746H120.005z M120.457,328l2.504,2.506l-0.08,0.08l-2.584-2.584L120.457,328z M120.458,343.911
				l0.409,0.409l-0.071,0.088l-0.497-0.497H120.458z M120.912,328l2.276,2.278l-0.08,0.08L120.75,328H120.912z M120.913,343.911
				l0.161,0.159l-0.073,0.088l-0.249-0.247H120.913z M121.365,328.002l2.049,2.048l-0.08,0.082l-2.129-2.13H121.365z
				 M121.208,343.911h0.16l0.951,0.949L121.208,343.911z M121.821,328.002l1.821,1.82l-0.08,0.081l-1.902-1.901H121.821z
				 M121.822,343.911l3.492,3.491h-0.023l-0.948-0.812l-2.681-2.68H121.822z M122.274,328.002l1.594,1.594l-0.08,0.081l-1.674-1.675
				H122.274z M122.277,343.911l3.492,3.491h-0.161l-3.492-3.491H122.277z M122.729,328.002l1.366,1.365l-0.08,0.08l-1.447-1.445
				H122.729z M122.731,343.907l3.48,3.48c-0.051,0.005-0.101,0.007-0.152,0.009l-3.488-3.489H122.731z M123.183,328.002l1.139,1.139
				l-0.08,0.08l-1.219-1.219H123.183z M123.187,343.904l3.422,3.422c-0.044,0.01-0.09,0.018-0.135,0.026l-3.448-3.45
				L123.187,343.904z M123.191,364.038l0.057-0.071l0.07,0.071H123.191z M123.38,363.806l0.072-0.089l0.321,0.321h-0.161
				L123.38,363.806z M123.639,328.002l0.91,0.911l-0.08,0.079l-0.992-0.99H123.639z M123.642,343.902l3.323,3.322
				c-0.04,0.015-0.08,0.028-0.121,0.041l-3.363-3.363H123.642z M123.583,363.555l0.072-0.088l0.572,0.571h-0.16L123.583,363.555z
				 M123.787,363.304l0.072-0.088l0.823,0.822h-0.161L123.787,363.304z M124.092,328.002l0.683,0.683l-0.08,0.08l-0.763-0.763
				H124.092z M124.097,343.902l3.189,3.189c-0.036,0.018-0.074,0.034-0.109,0.05l-3.241-3.239H124.097z M123.991,363.053
				l0.072-0.088l1.074,1.073h-0.161L123.991,363.053z M124.194,362.802l0.072-0.088l1.325,1.324h-0.161L124.194,362.802z
				 M124.546,328.002l0.456,0.454l-0.081,0.082l-0.535-0.536H124.546z M124.55,343.904l3.026,3.025
				c-0.033,0.021-0.066,0.041-0.1,0.061l-3.086-3.086H124.55z M124.398,362.551l0.071-0.088l1.576,1.575h-0.16L124.398,362.551z
				 M124.602,362.3l0.071-0.09l1.827,1.827h-0.161L124.602,362.3z M124.806,362.049l0.072-0.09l2.077,2.078h-0.161L124.806,362.049z
				 M125.002,328.002l0.227,0.227l-0.08,0.081l-0.307-0.308H125.002z M125.004,343.902l2.836,2.839
				c-0.029,0.022-0.059,0.047-0.089,0.07l-2.908-2.907L125.004,343.902z M125.009,361.798l0.072-0.088l2.328,2.327h-0.161
				L125.009,361.798z M125.213,361.547l0.072-0.09l2.579,2.58h-0.161L125.213,361.547z M125.375,328.082l-0.079-0.08h0.158
				L125.375,328.082z M127.326,345.774l0.754,0.757c-0.026,0.025-0.054,0.052-0.082,0.078l-2.701-2.702h0.156L127.326,345.774z
				 M125.417,361.296l0.072-0.088l2.83,2.829h-0.161L125.417,361.296z M125.62,361.045l0.072-0.088l3.081,3.08h-0.161
				L125.62,361.045z M125.824,360.794l0.072-0.089l3.332,3.332h-0.161L125.824,360.794z M126.054,360.569l1.08,0.921l2.548,2.547
				h-0.16L126.054,360.569z M129.976,364.037l-0.864-0.862l1.014,0.862H129.976z"/>
			<path fill="#1C5031" d="M148.233,363.962l0.08,0.08h-0.161L148.233,363.962z M148.46,363.735l0.306,0.307h-0.16l-0.227-0.226
				L148.46,363.735z M148.687,363.509l0.533,0.533h-0.161l-0.453-0.453L148.687,363.509z M148.914,363.284l0.76,0.759h-0.161
				l-0.68-0.68L148.914,363.284z M149.142,363.056l0.986,0.987h-0.16l-0.906-0.905L149.142,363.056z M149.368,362.829l1.213,1.214
				h-0.161l-1.133-1.134L149.368,362.829z M149.596,362.603l1.44,1.44h-0.16l-1.361-1.36L149.596,362.603z M149.823,362.375
				l1.668,1.668h-0.16l-1.588-1.587L149.823,362.375z M150.051,362.148l1.895,1.895h-0.16l-1.815-1.814L150.051,362.148z
				 M150.279,361.92l2.122,2.123h-0.16l-2.042-2.041L150.279,361.92z M150.505,361.693l2.35,2.35h-0.16l-2.27-2.27L150.505,361.693z
				 M150.733,361.467l2.578,2.576h-0.161l-2.497-2.496L150.733,361.467z M150.961,361.239l2.804,2.804h-0.161l-2.723-2.723
				L150.961,361.239z M151.189,361.013l3.031,3.03h-0.161l-2.951-2.95L151.189,361.013z M151.417,360.786l3.259,3.257h-0.161
				l-3.179-3.177L151.417,360.786z M151.642,360.56l3.484,3.483h-0.156l-3.406-3.405L151.642,360.56z M151.812,343.909l3.485,3.485
				h-0.161l-3.485-3.485H151.812z M152.267,343.909l3.485,3.485h-0.162l-3.484-3.485H152.267z M152.721,343.909l3.483,3.485h-0.094
				h-0.065l-3.485-3.485H152.721z M153.176,343.909l3.484,3.485H156.5l-3.484-3.485H153.176z M153.63,343.909l3.462,3.485h-0.139
				l-3.485-3.485H153.63z M154.085,343.909l3.483,3.483h-0.161l-3.483-3.483H154.085z M154.539,343.909l3.484,3.483h-0.073h-0.088
				l-3.483-3.483H154.539z M154.993,343.909l3.483,3.483h-0.16l-3.483-3.483H154.993z M155.447,343.909l3.325,3.325l-0.08,0.08
				l-3.405-3.405H155.447z M155.902,343.909l3.097,3.099l-0.08,0.08l-3.178-3.179H155.902z M156.354,343.909l2.871,2.871l-0.08,0.08
				l-2.951-2.951H156.354z M156.81,343.911l2.644,2.643l-0.081,0.08l-2.724-2.725L156.81,343.911z M157.263,343.911l2.417,2.416
				l-0.08,0.081l-2.498-2.497H157.263z M157.717,343.911l2.19,2.189l-0.08,0.08l-2.27-2.27H157.717z M158.171,343.911l1.962,1.963
				l-0.081,0.08l-2.043-2.043H158.171z M158.625,343.911l1.736,1.735l-0.081,0.079l-1.816-1.814H158.625z M158.685,363.965
				l0.076,0.077h-0.15L158.685,363.965z M158.913,363.738l0.303,0.304h-0.161l-0.223-0.224L158.913,363.738z M159.079,343.911
				l1.509,1.509l-0.08,0.08l-1.588-1.589H159.079z M159.139,363.512l0.53,0.53h-0.16l-0.45-0.45L159.139,363.512z M159.367,363.285
				l0.758,0.757h-0.161l-0.676-0.677L159.367,363.285z M159.534,343.911l1.28,1.282l-0.08,0.08l-1.361-1.362H159.534z
				 M159.595,363.059l0.984,0.984h-0.16l-0.905-0.904L159.595,363.059z M159.822,362.831l1.212,1.212h-0.16l-1.132-1.132
				L159.822,362.831z M159.987,343.911l1.054,1.054l-0.081,0.08l-1.133-1.134H159.987z M160.05,362.604l1.44,1.438h-0.161
				l-1.359-1.358L160.05,362.604z M160.278,362.376l1.667,1.667h-0.16l-1.586-1.585L160.278,362.376z M160.443,343.911l0.826,0.827
				l-0.08,0.08l-0.908-0.907H160.443z M160.505,362.149l1.894,1.894h-0.161l-1.813-1.813L160.505,362.149z M160.733,361.922
				l2.121,2.121h-0.16l-2.041-2.04L160.733,361.922z M160.896,343.911l0.599,0.6l-0.08,0.081l-0.68-0.681H160.896z M160.96,361.695
				l2.349,2.348h-0.161l-2.267-2.268L160.96,361.695z M161.188,361.467l2.575,2.576h-0.16l-2.496-2.494L161.188,361.467z
				 M161.35,343.911l0.373,0.373l-0.08,0.08l-0.452-0.453H161.35z M161.416,361.24l2.803,2.803h-0.161l-2.723-2.723L161.416,361.24z
				 M161.644,361.013l3.03,3.03h-0.161l-2.949-2.949L161.644,361.013z M161.805,343.912l0.145,0.146l-0.08,0.08l-0.226-0.227
				L161.805,343.912z M161.872,360.786l3.257,3.257h-0.162l-3.177-3.177L161.872,360.786z M162.1,360.56l3.484,3.483h-0.16
				l-3.406-3.403L162.1,360.56z"/>
			<path fill="#1C5031" d="M172.444,363.962l0.079,0.08l-0.15-0.009L172.444,363.962z M172.671,363.735l0.307,0.307h-0.161
				l-0.227-0.227L172.671,363.735z M172.897,363.509l0.533,0.533h-0.16l-0.453-0.453L172.897,363.509z M173.124,363.282l0.759,0.76
				h-0.16l-0.68-0.68L173.124,363.282z M173.351,363.054l0.987,0.988h-0.162l-0.906-0.908L173.351,363.054z M173.577,362.828
				l1.213,1.214h-0.16l-1.133-1.133L173.577,362.828z M173.805,362.602l1.44,1.44h-0.161l-1.36-1.361L173.805,362.602z
				 M174.032,362.373l1.667,1.669h-0.16l-1.588-1.589L174.032,362.373z M174.26,362.146l1.895,1.896h-0.16l-1.815-1.815
				L174.26,362.146z M174.488,361.92l2.122,2.122h-0.161L174.406,362L174.488,361.92z M174.714,361.692l2.349,2.35h-0.16
				l-2.27-2.269L174.714,361.692z M174.942,361.466l2.576,2.576h-0.16l-2.496-2.497L174.942,361.466z M175.169,361.239l2.805,2.804
				h-0.162l-2.724-2.724L175.169,361.239z M175.397,361.011l3.031,3.032h-0.161l-2.951-2.952L175.397,361.011z M175.625,360.784
				l3.259,3.259h-0.162l-3.179-3.179L175.625,360.784z M175.86,360.56l3.483,3.483h-0.156l-3.406-3.405L175.86,360.56z"/>
			<path fill="#1C5031" d="M186.177,363.967l0.08,0.08h-0.158L186.177,363.967z M186.404,363.74l0.307,0.307h-0.161l-0.227-0.227
				L186.404,363.74z M186.631,363.514l0.534,0.534h-0.161l-0.454-0.454L186.631,363.514z M186.858,363.287l0.761,0.761h-0.161
				l-0.68-0.681L186.858,363.287z M187.084,363.059l0.988,0.989h-0.16l-0.908-0.907L187.084,363.059z M187.312,362.833l1.214,1.214
				h-0.161l-1.134-1.135L187.312,362.833z M187.539,362.606l1.44,1.44h-0.16l-1.361-1.361L187.539,362.606z M187.765,362.378
				l1.668,1.669h-0.16l-1.588-1.589L187.765,362.378z M187.993,362.149l1.895,1.897h-0.161l-1.815-1.815L187.993,362.149z
				 M188.22,361.924l2.122,2.121h-0.161l-2.042-2.042L188.22,361.924z M188.446,361.695l2.35,2.35h-0.161l-2.269-2.269
				L188.446,361.695z M188.674,361.469l2.577,2.576h-0.161l-2.497-2.496L188.674,361.469z M188.901,361.24l2.803,2.805h-0.16
				l-2.724-2.725L188.901,361.24z M189.127,361.015l3.031,3.03h-0.161l-2.95-2.951L189.127,361.015z M189.355,360.788l3.257,3.257
				h-0.161l-3.178-3.178L189.355,360.788z M189.582,360.562l3.485,3.485h-0.16l-3.406-3.405L189.582,360.562z M189.745,327.994
				l3.485,3.484h-0.161l-3.485-3.484H189.745z M189.747,343.909l3.485,3.485h-0.162l-3.484-3.485H189.747z M189.875,360.562h0.16
				l3.487,3.485h-0.16L189.875,360.562z M190.2,327.994l3.484,3.484h-0.161l-3.485-3.484H190.2z M190.201,343.909l3.485,3.485
				h-0.162l-3.485-3.485H190.201z M190.331,360.562h0.161l3.485,3.486h-0.16L190.331,360.562z M190.653,327.994l3.485,3.484h-0.161
				l-3.485-3.484H190.653z M190.655,343.909l3.485,3.485h-0.161l-3.485-3.485H190.655z M190.786,360.562h0.16l3.486,3.486h-0.16
				L190.786,360.562z M191.108,327.994l3.484,3.484h-0.16l-3.485-3.484H191.108z M191.109,343.909l3.484,3.485h-0.16l-3.485-3.485
				H191.109z M191.241,360.562h0.161l3.484,3.485h-0.16L191.241,360.562z M191.562,327.994l3.485,3.484h-0.161l-3.484-3.484H191.562
				z M191.563,343.909l3.485,3.485h-0.16l-3.485-3.485H191.563z M191.695,360.562h0.16l3.485,3.485h-0.162L191.695,360.562z
				 M192.016,327.994l3.485,3.484h-0.161l-3.485-3.484H192.016z M192.018,343.909l3.485,3.485h-0.16l-3.484-3.485H192.018z
				 M192.15,360.562h0.161l3.483,3.485h-0.161L192.15,360.562z M192.471,327.994l3.485,3.484h-0.161l-3.484-3.484H192.471z
				 M192.473,343.909l3.485,3.485h-0.161l-3.484-3.485H192.473z M192.604,360.564h0.161l3.483,3.483h-0.161L192.604,360.564z
				 M192.925,327.994l3.485,3.484h-0.161l-3.485-3.484H192.925z M192.927,343.909l3.485,3.485h-0.161l-3.485-3.485H192.927z
				 M193.059,360.564h0.161l3.482,3.483h-0.16L193.059,360.564z M193.38,327.994l3.33,3.33l-0.08,0.08l-3.41-3.41H193.38z
				 M193.382,343.909l3.327,3.327l-0.08,0.08l-3.408-3.407H193.382z M193.515,360.564h0.16l3.482,3.483h-0.16L193.515,360.564z
				 M193.834,327.994l3.103,3.102l-0.08,0.08l-3.182-3.184L193.834,327.994z M193.836,343.909l3.1,3.099l-0.081,0.08l-3.181-3.181
				L193.836,343.909z M193.97,360.566h0.16l3.482,3.481h-0.16L193.97,360.566z M194.289,327.992l2.876,2.876l-0.08,0.08
				l-2.956-2.956H194.289z M194.291,343.907l2.873,2.875l-0.08,0.079l-2.953-2.952L194.291,343.907z M194.424,360.566h0.162
				l3.48,3.481h-0.16L194.424,360.566z M194.744,327.992l2.648,2.647l-0.08,0.08l-2.729-2.728H194.744z M194.746,343.909
				l2.645,2.645l-0.08,0.081l-2.726-2.726H194.746z M195.042,360.564l3.479,3.48h-0.161l-3.48-3.48H195.042z M195.199,327.992
				l2.42,2.421l-0.08,0.08l-2.501-2.501H195.199z M195.2,343.909l2.418,2.418l-0.08,0.08l-2.5-2.5L195.2,343.909z M195.496,360.564
				l3.479,3.48h-0.16l-3.48-3.48H195.496z M195.653,327.992l2.194,2.193l-0.08,0.079l-2.274-2.272H195.653z M195.655,343.907
				l2.19,2.192l-0.081,0.079l-2.271-2.271H195.655z M195.95,360.564l3.48,3.48h-0.16l-3.479-3.48H195.95z M196.107,327.992
				l1.967,1.967l-0.08,0.08l-2.046-2.047H196.107z M196.109,343.907l1.963,1.966l-0.08,0.079l-2.045-2.045H196.109z
				 M196.404,360.564l3.48,3.48h-0.16l-3.479-3.48H196.404z M196.562,327.992l1.74,1.738l-0.081,0.08l-1.819-1.82L196.562,327.992z
				 M196.564,343.907l1.735,1.737l-0.08,0.08l-1.817-1.817H196.564z M196.859,360.564l3.48,3.48h-0.161l-3.479-3.48H196.859z
				 M197.017,327.99l1.512,1.513l-0.08,0.081l-1.592-1.594H197.017z M197.018,343.907l1.51,1.511l-0.08,0.08l-1.59-1.591H197.018z
				 M197.313,360.564l3.47,3.471l-0.152,0.008l-3.478-3.479H197.313z M197.471,327.99l1.286,1.286l-0.08,0.079l-1.366-1.365H197.471
				z M197.473,343.907l1.281,1.282l-0.08,0.082l-1.363-1.364H197.473z M197.768,360.564l3.413,3.413l-0.135,0.026l-3.438-3.439
				H197.768z M197.926,327.99l1.058,1.058l-0.08,0.082l-1.137-1.14H197.926z M197.927,343.907l1.055,1.057l-0.08,0.079l-1.135-1.136
				H197.927z M198.223,360.564l3.313,3.315l-0.12,0.039l-3.354-3.354H198.223z M198.38,327.99l0.831,0.831l-0.081,0.08l-0.91-0.911
				H198.38z M198.382,343.907l0.828,0.828l-0.081,0.08l-0.908-0.908H198.382z M198.677,360.564l3.181,3.183l-0.11,0.05l-3.231-3.23
				L198.677,360.564z M198.835,327.99l0.603,0.604l-0.08,0.079l-0.683-0.683H198.835z M198.837,343.907l0.6,0.602l-0.08,0.08
				l-0.68-0.682H198.837z M199.132,360.566l3.017,3.018l-0.099,0.06l-3.079-3.077H199.132z M199.29,327.99l0.376,0.377l-0.08,0.079
				l-0.457-0.456H199.29z M199.292,343.907l0.373,0.374l-0.08,0.079l-0.453-0.453H199.292z M199.586,360.566l2.828,2.828
				l-0.089,0.07l-2.9-2.898H199.586z M199.744,327.99l0.149,0.148l-0.08,0.08l-0.229-0.229H199.744z M199.746,343.907l0.146,0.147
				l-0.08,0.079l-0.227-0.227H199.746z M200.035,360.566l2.617,2.616l-0.08,0.077l-2.693-2.693H200.035z M200.037,341.472
				l1.217,1.217l-0.079,0.08l-1.137-1.137L200.037,341.472z M200.037,341.927l0.991,0.99l-0.08,0.08l-0.911-0.911V341.927z
				 M200.037,342.381l0.764,0.763l-0.08,0.081l-0.684-0.684V342.381z M200.038,342.836l0.536,0.535l-0.081,0.08l-0.457-0.456
				L200.038,342.836z M200.038,340.561l1.673,1.674l-0.08,0.081l-1.593-1.593V340.561z M200.038,341.018l1.445,1.445l-0.08,0.079
				l-1.365-1.365V341.018z M200.038,343.29l0.31,0.31l-0.082,0.08l-0.228-0.229V343.29z M200.038,343.745l0.082,0.081l-0.082,0.08
				V343.745z M200.194,340.421h0.16l1.587,1.585l-0.08,0.08L200.194,340.421z M200.648,340.421h0.16l1.359,1.358l-0.08,0.08
				L200.648,340.421z M201.102,340.421h0.161l1.131,1.132l-0.08,0.08L201.102,340.421z M201.556,340.421h0.161l0.903,0.904
				l-0.08,0.08L201.556,340.421z M202.011,340.421h0.159l0.678,0.678l-0.08,0.08L202.011,340.421z M202.465,340.423h0.16
				l0.449,0.449l-0.08,0.08L202.465,340.423z M202.92,340.423h0.159l0.224,0.222l-0.082,0.079L202.92,340.423z M203.374,340.423
				h0.15l-0.075,0.074L203.374,340.423z"/>
			<path fill="#1C5031" d="M210.229,363.967l0.08,0.08h-0.158L210.229,363.967z M210.457,363.74l0.306,0.307h-0.161l-0.227-0.227
				L210.457,363.74z M210.684,363.514l0.534,0.534h-0.161l-0.453-0.454L210.684,363.514z M210.91,363.287l0.761,0.761h-0.16
				l-0.681-0.681L210.91,363.287z M211.137,363.059l0.987,0.989h-0.16l-0.907-0.907L211.137,363.059z M211.364,362.833l1.214,1.214
				h-0.161l-1.134-1.135L211.364,362.833z M211.591,362.606l1.44,1.44h-0.16l-1.361-1.361L211.591,362.606z M211.817,362.378
				l1.668,1.669h-0.159l-1.589-1.589L211.817,362.378z M212.046,362.149l1.895,1.897h-0.161l-1.815-1.815L212.046,362.149z
				 M212.271,361.924l2.122,2.121h-0.16l-2.043-2.042L212.271,361.924z M212.498,361.695l2.35,2.35h-0.159l-2.27-2.269
				L212.498,361.695z M212.727,361.469l2.576,2.576h-0.161l-2.496-2.496L212.727,361.469z M212.953,361.24l2.803,2.805h-0.16
				l-2.723-2.725L212.953,361.24z M213.18,361.015l3.03,3.03h-0.159l-2.951-2.951L213.18,361.015z M213.407,360.788l3.258,3.257
				h-0.16l-3.179-3.178L213.407,360.788z M213.634,360.562l3.485,3.485h-0.159l-3.405-3.405L213.634,360.562z M213.797,327.994
				l3.485,3.484h-0.161l-3.485-3.484H213.797z M213.799,343.909l3.485,3.485h-0.162l-3.483-3.485H213.799z M213.928,360.562h0.161
				l3.486,3.485h-0.161L213.928,360.562z M214.252,327.994l3.484,3.484h-0.161l-3.485-3.484H214.252z M214.253,343.909l3.485,3.485
				h-0.161l-3.485-3.485H214.253z M214.384,360.562h0.159l3.485,3.486h-0.159L214.384,360.562z M214.706,327.994l3.485,3.484h-0.161
				l-3.485-3.484H214.706z M214.708,343.909l3.485,3.485h-0.162l-3.484-3.485H214.708z M214.838,360.562h0.16l3.486,3.486h-0.161
				L214.838,360.562z M215.161,327.994l3.483,3.484h-0.16l-3.485-3.484H215.161z M215.162,343.909l3.483,3.485h-0.159l-3.485-3.485
				H215.162z M215.293,360.562h0.161l3.483,3.485h-0.159L215.293,360.562z M215.613,327.994l3.485,3.484h-0.159l-3.485-3.484
				H215.613z M215.615,343.909l3.485,3.485h-0.16l-3.484-3.485H215.615z M215.747,360.562h0.16l3.485,3.485h-0.162L215.747,360.562z
				 M216.068,327.994l3.485,3.484h-0.16l-3.485-3.484H216.068z M216.07,343.909l3.484,3.485h-0.159l-3.485-3.485H216.07z
				 M216.202,360.562h0.161l3.483,3.485h-0.161L216.202,360.562z M216.522,327.994l3.485,3.484h-0.161l-3.483-3.484H216.522z
				 M216.524,343.909l3.485,3.485h-0.161l-3.483-3.485H216.524z M216.656,360.564h0.161l3.484,3.483h-0.162L216.656,360.564z
				 M216.978,327.994l3.485,3.484h-0.161l-3.485-3.484H216.978z M216.979,343.909l3.484,3.485h-0.161l-3.485-3.485H216.979z
				 M217.111,360.564h0.161l3.481,3.483h-0.159L217.111,360.564z M217.432,327.994l3.331,3.33l-0.08,0.08l-3.41-3.41H217.432z
				 M217.434,343.909l3.327,3.327l-0.08,0.08l-3.406-3.407H217.434z M217.567,360.564h0.159l3.482,3.483h-0.16L217.567,360.564z
				 M217.887,327.994l3.103,3.102l-0.08,0.08l-3.183-3.184L217.887,327.994z M217.889,343.909l3.101,3.099l-0.082,0.08l-3.181-3.181
				L217.889,343.909z M218.021,360.566h0.16l3.481,3.481h-0.159L218.021,360.566z M218.341,327.992l2.876,2.876l-0.079,0.08
				l-2.956-2.956H218.341z M218.343,343.907l2.873,2.875l-0.08,0.079l-2.952-2.952L218.343,343.907z M218.477,360.566h0.161
				l3.48,3.481h-0.16L218.477,360.566z M218.796,327.992l2.649,2.647l-0.08,0.08l-2.729-2.728H218.796z M218.798,343.909
				l2.646,2.645l-0.08,0.081l-2.726-2.726H218.798z M219.094,360.564l3.48,3.48h-0.161l-3.48-3.48H219.094z M219.252,327.992
				l2.42,2.421l-0.08,0.08l-2.501-2.501H219.252z M219.252,343.909l2.418,2.418l-0.08,0.08l-2.499-2.5L219.252,343.909z
				 M219.549,360.564l3.479,3.48h-0.16l-3.479-3.48H219.549z M219.705,327.992l2.194,2.193l-0.079,0.079l-2.275-2.272H219.705z
				 M219.707,343.907l2.191,2.192l-0.082,0.079l-2.27-2.271H219.707z M220.002,360.564l3.479,3.48h-0.159l-3.48-3.48H220.002z
				 M220.159,327.992l1.967,1.967l-0.079,0.08L220,327.992H220.159z M220.161,343.907l1.964,1.966l-0.08,0.079L220,343.907H220.161z
				 M220.456,360.564l3.48,3.48h-0.16l-3.479-3.48H220.456z M220.614,327.992l1.74,1.738l-0.08,0.08l-1.82-1.82L220.614,327.992z
				 M220.616,343.907l1.735,1.737l-0.08,0.08l-1.817-1.817H220.616z M220.911,360.564l3.479,3.48h-0.161l-3.479-3.48H220.911z
				 M221.068,327.99l1.513,1.513l-0.08,0.081l-1.592-1.594H221.068z M221.07,343.907l1.509,1.511l-0.08,0.08l-1.59-1.591H221.07z
				 M221.365,360.564l3.471,3.471l-0.151,0.008l-3.479-3.479H221.365z M221.523,327.99l1.285,1.286l-0.079,0.079l-1.366-1.365
				H221.523z M221.525,343.907l1.282,1.282l-0.08,0.082l-1.364-1.364H221.525z M221.82,360.564l3.413,3.413l-0.135,0.026
				l-3.438-3.439H221.82z M221.978,327.99l1.058,1.058l-0.079,0.082l-1.138-1.14H221.978z M221.979,343.907l1.055,1.057l-0.08,0.079
				l-1.134-1.136H221.979z M222.274,360.564l3.314,3.315l-0.121,0.039l-3.353-3.354H222.274z M222.433,327.99l0.831,0.831
				l-0.08,0.08l-0.911-0.911H222.433z M222.435,343.907l0.827,0.828l-0.08,0.08l-0.907-0.908H222.435z M222.729,360.564l3.182,3.183
				l-0.11,0.05l-3.231-3.23L222.729,360.564z M222.887,327.99l0.604,0.604l-0.08,0.079l-0.683-0.683H222.887z M222.889,343.907
				l0.6,0.602l-0.08,0.08l-0.679-0.682H222.889z M223.184,360.566l3.018,3.018l-0.1,0.06l-3.077-3.077H223.184z M223.342,327.99
				l0.376,0.377l-0.079,0.079l-0.457-0.456H223.342z M223.344,343.907l0.373,0.374l-0.08,0.079l-0.453-0.453H223.344z
				 M223.639,360.566l2.828,2.828l-0.09,0.07l-2.9-2.898H223.639z M223.796,327.99l0.15,0.148l-0.08,0.08l-0.229-0.229H223.796z
				 M223.798,343.907l0.146,0.147l-0.079,0.079l-0.227-0.227H223.798z M224.088,360.566l2.617,2.616l-0.08,0.077l-2.693-2.693
				H224.088z M224.09,341.472l1.217,1.217l-0.08,0.08l-1.137-1.137V341.472z M224.09,341.927l0.99,0.99l-0.08,0.08l-0.91-0.911
				V341.927z M224.09,342.381l0.763,0.763l-0.08,0.081l-0.683-0.684V342.381z M224.09,342.836l0.536,0.535l-0.08,0.08l-0.456-0.456
				V342.836z M224.09,340.561l1.673,1.674l-0.079,0.081l-1.594-1.593V340.561z M224.09,341.018l1.445,1.445l-0.08,0.079
				l-1.365-1.365V341.018z M224.09,343.29l0.31,0.31l-0.082,0.08l-0.228-0.229V343.29z M224.09,343.745l0.081,0.081l-0.081,0.08
				V343.745z M224.246,340.421h0.159l1.588,1.585l-0.08,0.08L224.246,340.421z M224.7,340.421h0.16l1.358,1.358l-0.079,0.08
				L224.7,340.421z M225.153,340.421h0.161l1.131,1.132l-0.079,0.08L225.153,340.421z M225.608,340.421h0.161l0.902,0.904
				l-0.079,0.08L225.608,340.421z M226.062,340.421h0.16l0.678,0.678l-0.08,0.08L226.062,340.421z M226.518,340.423h0.159
				l0.45,0.449l-0.08,0.08L226.518,340.423z M226.972,340.423h0.16l0.223,0.222l-0.081,0.079L226.972,340.423z M227.427,340.423
				h0.149l-0.074,0.074L227.427,340.423z"/>
			<path fill="#1C5031" d="M231.995,363.965l0.114,0.082h-0.171L231.995,363.965z M232.222,363.74l0.341,0.307h-0.17l-0.227-0.227
				L232.222,363.74z M232.45,363.512l0.566,0.536h-0.171l-0.453-0.454L232.45,363.512z M232.677,363.285l0.793,0.762h-0.169
				l-0.682-0.682L232.677,363.285z M232.902,363.058l1.022,0.989h-0.172l-0.907-0.908L232.902,363.058z M233.129,362.829
				l1.237,1.218h-0.158l-1.134-1.136L233.129,362.829z M233.355,362.603l1.464,1.444h-0.16l-1.36-1.364L233.355,362.603z
				 M233.582,362.375l1.691,1.672h-0.159l-1.589-1.593L233.582,362.375z M233.809,362.146l1.92,1.9h-0.16l-1.815-1.82
				L233.809,362.146z M234.037,361.919l2.146,2.128h-0.161L233.979,362L234.037,361.919z M234.283,361.692l2.354,2.354h-0.162
				l-2.27-2.275L234.283,361.692z M234.51,361.464l2.582,2.583h-0.161l-2.501-2.503L234.51,361.464z M234.735,361.235l2.81,2.812
				h-0.16l-2.73-2.731L234.735,361.235z M234.962,361.008l3.037,3.037h-0.161l-2.957-2.957L234.962,361.008z M235.188,360.779
				l3.266,3.266h-0.161l-3.184-3.186L235.188,360.779z M235.407,360.56l3.485,3.485h-0.144l-3.414-3.414L235.407,360.56z
				 M236.885,354.293l3.202,3.203h-0.16l-3.203-3.203H236.885z M237.338,354.293l3.203,3.202h-0.161l-3.202-3.202H237.338z
				 M237.792,354.293l3.202,3.202h-0.16l-3.203-3.202H237.792z M238.247,354.293l3.202,3.202h-0.162l-3.201-3.202H238.247z
				 M238.701,354.293l3.2,3.2h-0.159l-3.202-3.2H238.701z M239.154,354.293l3.202,3.2h-0.16l-3.201-3.202L239.154,354.293z
				 M239.609,354.291l3.201,3.202h-0.161l-3.2-3.202H239.609z M240.063,354.291l3.2,3.2h-0.159l-3.2-3.2H240.063z M240.519,354.291
				l3.2,3.2h-0.162l-3.199-3.2H240.519z M240.973,354.291l3.198,3.2h-0.159l-3.2-3.2H240.973z M241.428,354.291l3.105,3.106
				l-0.08,0.079l-3.186-3.186H241.428z M241.882,354.291l2.878,2.878l-0.08,0.081l-2.957-2.959H241.882z M242.337,354.291
				l2.65,2.651l-0.079,0.08l-2.731-2.731H242.337z M242.791,354.291l2.423,2.423l-0.079,0.08l-2.503-2.503H242.791z
				 M243.246,354.291l2.196,2.197l-0.08,0.079l-2.276-2.276H243.246z M243.7,354.291l1.969,1.969l-0.08,0.08l-2.048-2.049H243.7z
				 M244.155,354.291l1.741,1.74l-0.081,0.08l-1.82-1.821L244.155,354.291z M244.609,354.29l1.514,1.514l-0.079,0.081l-1.594-1.595
				H244.609z M245.064,354.29l1.285,1.287l-0.08,0.08l-1.366-1.367H245.064z M245.519,354.29l1.058,1.059l-0.08,0.08l-1.139-1.139
				H245.519z M245.516,363.972l0.075,0.073h-0.148L245.516,363.972z M245.744,363.743l0.301,0.302h-0.161l-0.22-0.22
				L245.744,363.743z M245.974,354.29l0.831,0.831l-0.082,0.079l-0.91-0.912L245.974,354.29z M245.972,363.517l0.528,0.53h-0.161
				l-0.448-0.448L245.972,363.517z M246.198,363.29l0.756,0.757h-0.161l-0.675-0.677L246.198,363.29z M246.427,354.288l0.604,0.604
				l-0.08,0.08l-0.685-0.685H246.427z M246.425,363.062l0.984,0.982h-0.161l-0.903-0.902L246.425,363.062z M246.653,362.836
				l1.21,1.209h-0.161l-1.129-1.129L246.653,362.836z M246.881,354.288l0.377,0.377l-0.08,0.081l-0.456-0.458H246.881z
				 M246.879,362.607l1.438,1.438h-0.159l-1.357-1.357L246.879,362.607z M247.105,362.38l1.666,1.665h-0.162l-1.583-1.584
				L247.105,362.38z M247.336,354.288l0.149,0.15l-0.08,0.079l-0.229-0.229H247.336z M247.334,362.153l1.892,1.892h-0.161
				l-1.812-1.812L247.334,362.153z M247.561,361.925l2.12,2.12h-0.162l-2.038-2.038L247.561,361.925z M247.788,361.698l2.347,2.347
				h-0.161l-2.265-2.267L247.788,361.698z M248.015,361.471l2.575,2.574h-0.162l-2.492-2.495L248.015,361.471z M248.241,361.244
				l2.801,2.801h-0.159l-2.721-2.721L248.241,361.244z M248.47,361.016l3.027,3.027h-0.161l-2.948-2.947L248.47,361.016z
				 M248.696,360.789l3.255,3.254h-0.161l-3.174-3.174L248.696,360.789z M248.924,360.562l3.482,3.481h-0.16l-3.403-3.402
				L248.924,360.562z"/>
			<path fill="#1C5031" d="M257.354,364.033l0.08-0.081l0.084,0.085h-0.159L257.354,364.033z M257.581,363.802l0.081-0.081
				l0.312,0.312h-0.161L257.581,363.802z M257.809,363.575l0.08-0.081l0.538,0.539h-0.16L257.809,363.575z M258.037,363.346
				l0.08-0.08l0.764,0.765h-0.159L258.037,363.346z M258.264,363.119l0.08-0.08l0.99,0.991h-0.159L258.264,363.119z M258.49,362.892
				l0.08-0.08l1.219,1.219h-0.16L258.49,362.892z M258.718,362.665l0.08-0.08l1.445,1.445h-0.159L258.718,362.665z M258.944,362.438
				l0.08-0.08l1.674,1.673h-0.16L258.944,362.438z M259.171,362.21l0.08-0.08l1.901,1.901h-0.161L259.171,362.21z M259.399,361.983
				l0.08-0.079l2.128,2.127h-0.162L259.399,361.983z M259.626,361.757l0.081-0.079l2.354,2.354H261.9L259.626,361.757z
				 M259.854,361.529l0.08-0.082l2.583,2.583h-0.162L259.854,361.529z M260.082,361.301l0.08-0.08l2.809,2.81h-0.159
				L260.082,361.301z M260.307,361.083l0.08-0.08l3.037,3.037h-0.161L260.307,361.083z M260.535,360.854l0.08-0.08l3.263,3.264
				h-0.161L260.535,360.854z M260.762,360.626l0.079-0.079l3.492,3.491h-0.161L260.762,360.626z M261.016,328.002l3.491,3.491
				h-0.159l-3.492-3.491H261.016z M261.019,343.911l3.396,3.396l-0.073,0.088l-3.481-3.483H261.019z M261.47,328.002l3.492,3.491
				h-0.16l-3.491-3.491H261.47z M264.62,347.058l-3.146-3.146h-0.161l3.234,3.234L264.62,347.058z M261.927,328.002l3.491,3.491
				h-0.161l-3.492-3.491H261.927z M261.928,343.911l2.897,2.896l-0.072,0.088l-2.984-2.984H261.928z M262.381,328.002l3.492,3.491
				h-0.162l-3.491-3.491H262.381z M262.383,343.911l2.647,2.649l-0.071,0.086l-2.736-2.735H262.383z M262.834,328.002l3.493,3.491
				h-0.161l-3.492-3.491H262.834z M262.837,343.911l2.398,2.399l-0.071,0.088l-2.488-2.487H262.837z M263.288,328.002l3.492,3.491
				h-0.16l-3.493-3.491H263.288z M263.292,343.909l2.15,2.15l-0.073,0.089l-2.238-2.239H263.292z M263.745,328.002l3.491,3.491
				h-0.161l-3.492-3.491H263.745z M263.746,343.911l1.901,1.901l-0.071,0.088l-1.991-1.989H263.746z M264.197,328.002l3.492,3.491
				h-0.16l-3.491-3.491H264.197z M264.201,343.911l1.652,1.653l-0.072,0.088l-1.741-1.741H264.201z M264.652,328.002l3.417,3.415
				l-0.085,0.076l-3.492-3.491H264.652z M264.655,343.911l1.405,1.404l-0.074,0.088l-1.492-1.492H264.655z M265.106,328.002
				l3.189,3.187l-0.08,0.08l-3.269-3.267H265.106z M265.108,343.911l1.157,1.155l-0.073,0.088l-1.243-1.243H265.108z
				 M265.562,328.002l2.961,2.959l-0.08,0.081l-3.042-3.04H265.562z M265.564,343.911l0.906,0.907l-0.071,0.088l-0.996-0.995
				H265.564z M266.016,328.002l2.732,2.73l-0.079,0.082l-2.812-2.812H266.016z M266.02,343.911l0.656,0.658l-0.071,0.088
				l-0.746-0.746H266.02z M266.471,328l2.504,2.506l-0.079,0.08l-2.585-2.584L266.471,328z M266.473,343.911l0.408,0.409
				l-0.071,0.088l-0.497-0.497H266.473z M266.925,328l2.276,2.278l-0.079,0.08L266.764,328H266.925z M266.927,343.911l0.161,0.159
				l-0.073,0.088l-0.247-0.247H266.927z M267.38,328.002l2.048,2.048l-0.08,0.082l-2.128-2.13H267.38z M267.222,343.911h0.16
				l0.951,0.949L267.222,343.911z M267.834,328.002l1.822,1.82l-0.08,0.081l-1.903-1.901H267.834z M267.836,343.911l3.492,3.491
				h-0.023l-0.948-0.812l-2.68-2.68H267.836z M268.289,328.002l1.594,1.594l-0.08,0.081l-1.674-1.675H268.289z M268.291,343.911
				l3.491,3.491h-0.161l-3.492-3.491H268.291z M268.743,328.002l1.366,1.365l-0.08,0.08l-1.447-1.445H268.743z M268.745,343.907
				l3.48,3.48c-0.051,0.005-0.101,0.007-0.151,0.009l-3.488-3.489H268.745z M269.196,328.002l1.14,1.139l-0.08,0.08l-1.219-1.219
				H269.196z M269.201,343.904l3.422,3.422c-0.044,0.01-0.09,0.018-0.134,0.026l-3.449-3.45L269.201,343.904z M269.205,364.038
				l0.057-0.071l0.07,0.071H269.205z M269.394,363.806l0.072-0.089l0.32,0.321h-0.159L269.394,363.806z M269.652,328.002
				l0.911,0.911l-0.08,0.079l-0.992-0.99H269.652z M269.656,343.902l3.322,3.322c-0.039,0.015-0.08,0.028-0.121,0.041l-3.362-3.363
				H269.656z M269.598,363.555l0.071-0.088l0.572,0.571h-0.16L269.598,363.555z M269.801,363.304l0.072-0.088l0.822,0.822h-0.159
				L269.801,363.304z M270.105,328.002l0.683,0.683l-0.079,0.08l-0.763-0.763H270.105z M270.11,343.902l3.188,3.189
				c-0.035,0.018-0.073,0.034-0.108,0.05l-3.241-3.239H270.11z M270.005,363.053l0.071-0.088l1.074,1.073h-0.161L270.005,363.053z
				 M270.208,362.802l0.072-0.088l1.324,1.324h-0.161L270.208,362.802z M270.561,328.002l0.456,0.454l-0.081,0.082l-0.535-0.536
				H270.561z M270.563,343.904l3.027,3.025c-0.034,0.021-0.066,0.041-0.101,0.061l-3.086-3.086H270.563z M270.412,362.551
				l0.071-0.088l1.576,1.575h-0.16L270.412,362.551z M270.615,362.3l0.072-0.09l1.826,1.827h-0.159L270.615,362.3z M270.819,362.049
				l0.071-0.09l2.078,2.078h-0.16L270.819,362.049z M271.017,328.002l0.227,0.227l-0.08,0.081l-0.308-0.308H271.017z
				 M271.019,343.902l2.836,2.839c-0.029,0.022-0.059,0.047-0.089,0.07l-2.907-2.907L271.019,343.902z M271.023,361.798l0.071-0.088
				l2.328,2.327h-0.161L271.023,361.798z M271.227,361.547l0.072-0.09l2.579,2.58h-0.16L271.227,361.547z M271.39,328.082
				l-0.08-0.08h0.158L271.39,328.082z M273.34,345.774l0.755,0.757c-0.026,0.025-0.054,0.052-0.082,0.078l-2.699-2.702h0.154
				L273.34,345.774z M271.431,361.296l0.071-0.088l2.83,2.829h-0.161L271.431,361.296z M271.634,361.045l0.072-0.088l3.081,3.08
				h-0.161L271.634,361.045z M271.838,360.794l0.071-0.089l3.332,3.332h-0.159L271.838,360.794z M272.067,360.569l1.08,0.921
				l2.549,2.547h-0.161L272.067,360.569z M275.989,364.037l-0.863-0.862l1.014,0.862H275.989z"/>
			<path fill="#1C5031" d="M281.938,363.963l0.078,0.079h-0.158L281.938,363.963z M282.163,363.735l0.307,0.307h-0.16l-0.227-0.226
				L282.163,363.735z M282.39,363.509l0.532,0.533h-0.159l-0.453-0.452L282.39,363.509z M282.617,363.282l0.76,0.76h-0.161
				l-0.68-0.679L282.617,363.282z M282.844,363.056l0.986,0.986h-0.162l-0.905-0.906L282.844,363.056z M283.07,362.829l1.213,1.213
				h-0.162l-1.132-1.133L283.07,362.829z M283.297,362.603l1.44,1.439h-0.161l-1.359-1.359L283.297,362.603z M283.525,362.375
				l1.666,1.667h-0.161l-1.587-1.588L283.525,362.375z M283.752,362.148l1.895,1.895h-0.16l-1.814-1.814L283.752,362.148z
				 M283.979,361.92l2.123,2.123h-0.16l-2.043-2.041L283.979,361.92z M284.206,361.693l2.35,2.35h-0.161l-2.27-2.27L284.206,361.693
				z M284.433,361.466l2.577,2.577h-0.161l-2.496-2.496L284.433,361.466z M284.661,361.239l2.804,2.804h-0.161l-2.725-2.724
				L284.661,361.239z M284.887,361.011l3.031,3.032h-0.16l-2.952-2.952L284.887,361.011z M285.113,360.784l3.259,3.259h-0.159
				l-3.179-3.179L285.113,360.784z M285.34,360.56l3.485,3.485h-0.159l-3.407-3.405L285.34,360.56L285.34,360.56z M285.498,327.982
				l3.485,3.485h-0.159l-3.485-3.485H285.498z M285.795,360.56l3.485,3.485h-0.161l-3.485-3.485H285.795z M285.939,327.982
				l3.485,3.485h-0.159l-3.485-3.485H285.939z M286.249,360.56l3.485,3.485h-0.159l-3.487-3.485H286.249z M286.395,327.982
				l3.485,3.485h-0.162l-3.483-3.485H286.395z M286.702,360.56l3.487,3.485h-0.16l-3.486-3.485H286.702z M286.849,327.982
				l3.485,3.485h-0.161l-3.485-3.485H286.849z M287.158,360.56l3.485,3.485h-0.159l-3.487-3.485H287.158z M287.304,327.982
				l3.485,3.485h-0.162l-3.484-3.485H287.304z M287.613,360.56l3.485,3.485h-0.16l-3.486-3.485H287.613z M287.758,327.982
				l3.485,3.485h-0.161l-3.485-3.485H287.758z M288.067,360.56l3.485,3.485h-0.159l-3.487-3.485H288.067z M288.211,327.982
				l3.485,3.485h-0.16l-3.484-3.485H288.211z M288.522,360.56l3.485,3.485h-0.16l-3.486-3.485H288.522z M288.666,327.982
				l3.484,3.485h-0.159l-3.485-3.485H288.666z M288.976,360.56l3.486,3.485h-0.161l-3.485-3.485H288.976z M289.12,327.982
				l3.337,3.337l-0.08,0.08l-3.416-3.419L289.12,327.982z M289.43,360.56l3.485,3.485h-0.159l-3.485-3.485H289.43z M289.575,327.98
				l3.108,3.11l-0.08,0.08l-3.19-3.19H289.575z M289.885,360.56l3.484,3.485h-0.159l-3.485-3.485H289.885z M290.029,327.98
				l2.883,2.884l-0.08,0.08l-2.962-2.964H290.029z M290.339,360.56l3.487,3.485h-0.162l-3.486-3.485H290.339z M290.484,327.98
				l2.655,2.656l-0.079,0.08l-2.736-2.736H290.484z M290.797,360.558l3.485,3.485h-0.161l-3.485-3.485H290.797z M290.938,327.98
				l2.428,2.428l-0.08,0.08l-2.507-2.508H290.938z M291.252,360.558l3.484,3.485h-0.161l-3.485-3.485H291.252z M291.394,327.98
				l2.201,2.201l-0.08,0.08l-2.281-2.281H291.394z M291.706,360.558l3.483,3.485h-0.159l-3.485-3.485H291.706z M291.848,327.98
				l1.974,1.974l-0.08,0.08l-2.053-2.054H291.848z M292.159,360.558l3.485,3.485h-0.16l-3.485-3.485H292.159z M292.303,327.98
				l1.746,1.747l-0.08,0.08l-1.826-1.827H292.303z M292.613,360.558l3.485,3.485h-0.159l-3.485-3.485H292.613z M292.757,327.98
				l1.519,1.519l-0.08,0.08l-1.598-1.6L292.757,327.98z M293.068,360.558l3.476,3.476c-0.051,0.005-0.102,0.007-0.153,0.009
				l-3.482-3.484H293.068z M293.212,327.979l1.292,1.292l-0.08,0.079l-1.372-1.371H293.212z M293.522,360.558l3.419,3.419
				c-0.044,0.01-0.09,0.018-0.136,0.025l-3.444-3.444H293.522z M293.666,327.979l1.065,1.063l-0.079,0.082l-1.146-1.146H293.666z
				 M293.978,360.558l3.318,3.319c-0.04,0.013-0.079,0.027-0.12,0.041l-3.359-3.36H293.978z M294.122,327.979l0.836,0.837
				l-0.08,0.08l-0.917-0.917H294.122z M294.432,360.558l3.186,3.186c-0.037,0.019-0.073,0.034-0.11,0.051l-3.236-3.236H294.432z
				 M294.575,327.979l0.611,0.609l-0.08,0.079l-0.69-0.688H294.575z M294.887,360.558l3.021,3.022
				c-0.032,0.021-0.065,0.041-0.1,0.062l-3.082-3.083L294.887,360.558z M295.031,327.979l0.383,0.383l-0.079,0.079l-0.465-0.462
				H295.031z M295.341,360.56l2.832,2.832c-0.029,0.022-0.061,0.047-0.09,0.07l-2.903-2.902H295.341z M295.486,327.979l0.154,0.154
				l-0.079,0.08l-0.236-0.236L295.486,327.979z M295.796,360.56l2.616,2.617c-0.025,0.027-0.054,0.054-0.081,0.078l-2.696-2.695
				H295.796z M295.797,327.978l-0.008,0.01l-0.01-0.01H295.797z"/>
			<path fill="#1C5031" d="M318.458,363.962l0.08,0.08l-0.151-0.009L318.458,363.962z M318.685,363.735l0.307,0.307h-0.16
				l-0.226-0.227L318.685,363.735z M318.911,363.509l0.533,0.533h-0.16l-0.453-0.453L318.911,363.509z M319.138,363.282l0.76,0.76
				h-0.16l-0.68-0.68L319.138,363.282z M319.366,363.054l0.985,0.988h-0.161l-0.906-0.908L319.366,363.054z M319.591,362.828
				l1.214,1.214h-0.16l-1.134-1.133L319.591,362.828z M319.819,362.602l1.439,1.44h-0.161l-1.358-1.361L319.819,362.602z
				 M320.047,362.373l1.667,1.669h-0.16l-1.588-1.589L320.047,362.373z M320.273,362.146l1.895,1.896h-0.159l-1.815-1.815
				L320.273,362.146z M320.502,361.92l2.123,2.122h-0.162L320.42,362L320.502,361.92z M320.729,361.692l2.349,2.35h-0.159
				l-2.27-2.269L320.729,361.692z M320.956,361.466l2.576,2.576h-0.16l-2.496-2.497L320.956,361.466z M321.185,361.239l2.804,2.804
				h-0.161l-2.725-2.724L321.185,361.239z M321.411,361.011l3.032,3.032h-0.162l-2.95-2.952L321.411,361.011z M321.639,360.784
				l3.259,3.259h-0.161l-3.179-3.179L321.639,360.784z M321.875,360.56l3.482,3.483h-0.155l-3.407-3.405L321.875,360.56z"/>
			<path fill="#1C5031" d="M332.192,363.958l0.08,0.08h-0.158L332.192,363.958z M332.42,363.732l0.307,0.306h-0.161l-0.225-0.227
				L332.42,363.732z M332.648,363.506l0.533,0.532h-0.16l-0.453-0.453L332.648,363.506z M332.875,363.277l0.761,0.761h-0.159
				l-0.682-0.681L332.875,363.277z M333.103,363.051l0.988,0.987h-0.16l-0.907-0.907L333.103,363.051z M333.331,362.823l1.216,1.215
				h-0.161l-1.135-1.136L333.331,362.823z M333.558,362.595l1.443,1.443h-0.161l-1.362-1.362L333.558,362.595z M333.786,362.368
				l1.67,1.67h-0.161l-1.589-1.59L333.786,362.368z M334.014,362.142l1.896,1.896h-0.159l-1.817-1.816L334.014,362.142z
				 M334.242,361.914l2.123,2.123h-0.16l-2.045-2.044L334.242,361.914z M334.469,361.686l2.351,2.352h-0.159l-2.271-2.271
				L334.469,361.686z M334.696,361.459l2.579,2.578h-0.161l-2.498-2.498L334.696,361.459z M334.923,361.23l2.806,2.807h-0.159
				l-2.727-2.727L334.923,361.23z M335.151,361.005l3.033,3.032h-0.161l-2.952-2.953L335.151,361.005z M335.378,360.776l3.262,3.261
				h-0.161l-3.181-3.181L335.378,360.776z M335.603,360.552l3.485,3.485h-0.155l-3.407-3.407L335.603,360.552z M342.645,363.957
				l0.081,0.081h-0.161L342.645,363.957z M342.873,363.73l0.308,0.308h-0.161l-0.227-0.228L342.873,363.73z M343.101,363.504
				l0.534,0.534h-0.159l-0.455-0.454L343.101,363.504z M343.327,363.275l0.763,0.763h-0.161l-0.682-0.683L343.327,363.275z
				 M343.556,363.049l0.99,0.989h-0.161l-0.909-0.909L343.556,363.049z M343.783,362.821l1.217,1.217h-0.161l-1.136-1.136
				L343.783,362.821z M344.012,362.595l1.443,1.443h-0.161l-1.364-1.363L344.012,362.595z M344.239,362.366l1.671,1.672h-0.16
				l-1.592-1.59L344.239,362.366z M344.466,362.139l1.898,1.899h-0.159l-1.818-1.818L344.466,362.139z M344.694,361.912l2.124,2.125
				h-0.159l-2.047-2.045L344.694,361.912z M344.921,361.684l2.353,2.354h-0.16l-2.272-2.271L344.921,361.684z M345.148,361.457
				l2.581,2.58h-0.161l-2.499-2.5L345.148,361.457z M345.377,361.229l2.806,2.808h-0.159l-2.729-2.728L345.377,361.229z
				 M345.604,361.001l3.033,3.036h-0.159l-2.954-2.954L345.604,361.001z M345.83,360.774l3.262,3.263h-0.16l-3.182-3.183
				L345.83,360.774z M346.053,360.552l3.483,3.485h-0.149l-3.408-3.409L346.053,360.552z"/>
			<path fill="#1C5031" d="M357.325,363.058l0.693,0.694l-0.378-0.217l-0.396-0.397L357.325,363.058z M357.552,362.831l1.151,1.151
				l-0.213-0.054l-1.019-1.018L357.552,362.831z M357.779,362.603l1.438,1.438l-0.171-0.01l-1.348-1.348L357.779,362.603z
				 M358.006,362.376l1.667,1.666h-0.16l-1.588-1.586L358.006,362.376z M358.232,362.148l1.895,1.894h-0.161l-1.813-1.813
				L358.232,362.148z M358.461,361.92l2.121,2.122h-0.161l-2.042-2.04L358.461,361.92z M358.688,361.693l2.349,2.349h-0.161
				l-2.268-2.269L358.688,361.693z M358.913,361.467l2.576,2.575h-0.159l-2.496-2.495L358.913,361.467z M359.142,361.239
				l2.804,2.803h-0.161l-2.723-2.723L359.142,361.239z M359.368,361.011l3.032,3.031h-0.161l-2.951-2.949L359.368,361.011z
				 M359.597,360.784l3.257,3.258h-0.16l-3.177-3.178L359.597,360.784z M359.824,360.558l3.485,3.484h-0.161l-3.405-3.404
				L359.824,360.558z M359.979,327.995l3.484,3.485h-0.161l-3.483-3.485H359.979z M360.279,360.558l3.484,3.484h-0.161l-3.485-3.484
				H360.279z M360.434,327.995l3.485,3.485h-0.161l-3.485-3.485H360.434z M360.733,360.558l3.485,3.484h-0.161l-3.485-3.484H360.733
				z M360.889,327.995l3.484,3.485h-0.161l-3.485-3.485H360.889z M361.188,360.558l3.483,3.484h-0.16l-3.485-3.484H361.188z
				 M361.343,327.995l3.483,3.485h-0.159l-3.485-3.485H361.343z M361.641,360.558l3.485,3.484h-0.159l-3.485-3.484H361.641z
				 M361.796,327.995l3.485,3.485h-0.16l-3.485-3.485H361.796z M362.096,360.558l3.485,3.484h-0.16l-3.485-3.484H362.096z
				 M362.25,327.995l3.485,3.485h-0.159l-3.485-3.485H362.25z M362.55,360.558l3.485,3.484h-0.161l-3.483-3.484H362.55z
				 M362.705,327.995l3.485,3.485h-0.16l-3.485-3.485H362.705z M363.005,360.558l3.485,3.484h-0.161l-3.485-3.484H363.005z
				 M363.159,327.995l3.485,3.485h-0.161l-3.485-3.485H363.159z M363.459,360.558l3.485,3.484h-0.161l-3.485-3.484H363.459z
				 M363.614,327.995l3.33,3.331l-0.079,0.079l-3.412-3.41H363.614z M363.914,360.558l3.485,3.484h-0.161l-3.485-3.484H363.914z
				 M364.068,327.995l3.103,3.104l-0.08,0.079l-3.182-3.184H364.068z M364.367,360.558l3.485,3.484h-0.16l-3.485-3.484H364.367z
				 M364.523,327.995l2.876,2.876l-0.08,0.08l-2.956-2.956H364.523z M364.821,360.558l3.485,3.484h-0.159l-3.485-3.484H364.821z
				 M364.978,327.995l2.649,2.648l-0.081,0.081l-2.728-2.729H364.978z M365.274,360.558l3.487,3.484H368.6l-3.484-3.484h0.094
				H365.274z M365.433,327.995l2.421,2.422l-0.08,0.079l-2.501-2.501H365.433z M365.729,360.558l3.486,3.485h-0.161l-3.485-3.485
				H365.729z M365.887,327.995l2.195,2.193l-0.08,0.081l-2.274-2.274H365.887z M366.184,360.558l3.487,3.485h-0.162l-3.484-3.485
				H366.184z M366.342,327.995l1.967,1.967l-0.08,0.08l-2.047-2.047H366.342z M366.639,360.558l3.484,3.485h-0.159l-3.485-3.485
				H366.639z M366.796,327.995l1.74,1.739l-0.079,0.081l-1.82-1.82H366.796z M366.873,340.341l0.081,0.082h-0.161L366.873,340.341z
				 M367.093,360.558l3.485,3.485h-0.16l-3.486-3.485H367.093z M367.101,340.114l0.309,0.31h-0.161l-0.229-0.228L367.101,340.114z
				 M367.251,327.995l1.514,1.513l-0.081,0.079l-1.593-1.593L367.251,327.995z M367.327,339.888l0.536,0.536h-0.161l-0.454-0.456
				L367.327,339.888z M367.548,360.558l3.477,3.478l-0.153,0.007l-3.483-3.484H367.548z M367.554,339.661l0.765,0.763h-0.161
				l-0.683-0.683L367.554,339.661z M367.705,327.994l1.286,1.285l-0.08,0.08l-1.365-1.365H367.705z M367.782,339.434l0.989,0.99
				h-0.16l-0.909-0.91L367.782,339.434z M368.002,360.558l3.42,3.42l-0.135,0.026l-3.444-3.446H368.002z M368.009,339.207
				l1.217,1.217h-0.159l-1.138-1.137L368.009,339.207z M368.162,327.994l1.057,1.059l-0.079,0.08l-1.14-1.139H368.162z
				 M368.235,338.979l1.445,1.445h-0.16l-1.365-1.363L368.235,338.979z M368.457,360.558l3.318,3.321l-0.12,0.039l-3.36-3.36
				H368.457z M368.463,338.752l1.672,1.672h-0.161l-1.591-1.592L368.463,338.752z M368.614,327.994l0.831,0.831l-0.079,0.079
				l-0.911-0.91H368.614z M368.689,338.524l1.9,1.899h-0.162l-1.818-1.819L368.689,338.524z M368.911,360.558l3.188,3.188
				l-0.111,0.051l-3.237-3.238H368.911z M368.918,338.298l2.126,2.126h-0.161l-2.047-2.046L368.918,338.298z M369.069,327.994
				l0.604,0.603l-0.08,0.08l-0.685-0.683H369.069z M369.145,338.069l2.354,2.354h-0.162l-2.272-2.274L369.145,338.069z
				 M369.366,360.558l3.022,3.022l-0.102,0.062l-3.083-3.085H369.366z M369.371,337.843l2.58,2.581h-0.159l-2.501-2.501
				L369.371,337.843z M369.523,327.994l0.377,0.376l-0.08,0.08l-0.456-0.458L369.523,327.994z M369.599,337.615l2.808,2.809h-0.16
				l-2.728-2.729L369.599,337.615z M369.818,360.558l2.834,2.834l-0.09,0.07l-2.903-2.902L369.818,360.558z M369.825,337.389
				l3.035,3.035h-0.159l-2.956-2.955L369.825,337.389z M369.979,327.992l0.149,0.149l-0.079,0.08l-0.23-0.229H369.979z
				 M370.054,337.16l3.262,3.264h-0.16l-3.182-3.182L370.054,337.16z M370.273,360.56l2.62,2.618l-0.083,0.078l-2.697-2.696H370.273
				z M370.275,336.938l3.484,3.485h-0.149l-3.41-3.41L370.275,336.938z"/>
		</g>
	</g>
</g>
</svg>
