<?xml version="1.0" encoding="utf-8"?>
<!-- Generator: Adobe Illustrator 16.0.4, SVG Export Plug-In . SVG Version: 6.00 Build 0)  -->
<!DOCTYPE svg PUBLIC "-//W3C//DTD SVG 1.1//EN" "http://www.w3.org/Graphics/SVG/1.1/DTD/svg11.dtd">
<svg version="1.1" id="Layer_1" xmlns="http://www.w3.org/2000/svg" xmlns:xlink="http://www.w3.org/1999/xlink" x="0px" y="0px"
	 width="400px" height="371px" viewBox="0 16.5 400 371" enable-background="new 0 16.5 400 371" xml:space="preserve">
<g>
	<g>
		<g>
			<path fill="#03A04D" d="M153.857,38.787l-37.521,135.856l37.521,138.573h-47.846l-31.5-114.559v114.559H26.134V38.842h48.377
				v110.4l31.5-110.451L153.857,38.787z"/>
			<path fill="#03A04D" d="M294.755,313.211h-48.376V197.632h-24.212v115.583h-48.376V38.787h48.384v110.451h24.199V38.787h48.377
				L294.755,313.211z"/>
			<path fill="#03A04D" d="M373.757,38.846v274.377h-48.375V38.846H373.757z"/>
		</g>
		<g>
			<path fill="#2E2925" d="M148.135,308.545l-25.602-25.6l0.791,2.832l13.605,13.604l16.888,13.81h-47.846l-31.5-114.559v-1.178
				l-24.185-24.186v2.044l24.185,24.185v1.114l-24.185-24.185v2.043l24.185,24.185v1.114l-24.185-24.185v2.04l24.185,24.184v1.114
				l-24.185-24.186v2.044l24.185,24.185v1.115l-24.185-24.186v2.043l24.185,24.186v1.113l-24.185-24.185v2.043l24.185,24.185v1.114
				l-24.185-24.185v2.04l24.185,24.184v1.114l-24.185-24.185v2.04l24.185,24.184v1.115l-24.185-24.185v2.043l24.185,24.185v1.113
				l-24.185-24.184v2.039l24.185,24.186v1.114l-24.185-24.185v2.039l24.185,24.186v1.113l-24.185-24.185v2.044l24.185,24.186v1.113
				L50.286,211.14v2.043l24.185,24.185v1.114l-24.184-24.179v2.039l24.185,24.186v1.114l-24.185-24.185v2.039l24.185,24.185v1.114
				l-24.185-24.186v2.045l24.185,24.186v1.113l-24.185-24.185v2.038l24.185,24.185v1.115l-24.185-24.185v2.043l24.185,24.186v1.114
				L50.287,230.08v2.045l24.185,24.185v1.114l-24.185-24.186v2.038l24.185,24.185v1.115l-24.185-24.184v2.04l24.185,24.185v1.114
				l-24.185-24.185v2.039l24.185,24.186v1.113l-24.185-24.184v2.039l24.185,24.186v1.111l-24.185-24.185v2.045l24.185,24.185v1.114
				l-24.185-24.184v2.043l24.185,24.185v1.114L50.287,252.17v2.043l24.185,24.185v1.114l-24.185-24.186v2.041l24.185,24.185v1.114
				l-24.185-24.185v2.043l24.185,24.185v1.115l-24.185-24.186v2.04l24.185,24.185v1.112l-24.185-24.185v2.039l24.185,24.186v1.115
				l-24.185-24.186v2.043l24.185,24.186v1.113l-24.185-24.185v2.045l24.185,24.185v1.115l-24.185-24.186v2.038l24.185,24.185v1.115
				l-24.185-24.186v2.043l24.185,24.186v1.114l-24.185-24.185v2.045l24.185,24.185v1.114L50.287,283.73v2.039l24.185,24.184v1.115
				l-24.185-24.185v2.143l24.185,24.192H26.095V38.846L50.287,62.99v1.934l24.185,24.185v1.114L50.287,66.039v2.04l24.185,24.184
				v1.115L50.287,69.192v2.04l24.185,24.186v1.113L50.287,72.347v2.04l24.185,24.185v1.115L50.287,75.501v2.04l24.185,24.185v1.114
				L50.287,78.654v2.043l24.185,24.186v1.114L50.287,81.812v2.04l24.185,24.186v1.113L50.287,84.967v2.04l24.185,24.184v1.115
				L50.287,88.121v2.043l24.185,24.185v1.115L50.287,91.277v2.04l24.185,24.186v1.113L50.287,94.432v2.04l24.185,24.185v1.114
				L50.287,97.587v2.04l24.185,24.184v1.114l-24.185-24.186v2.04l24.185,24.186v1.114l-24.185-24.185v2.04l24.185,24.184v1.114
				l-24.185-24.185v2.04l24.185,24.185v1.114l-24.185-24.184v2.043l24.185,24.185v1.114l-24.185-24.186v2.044l24.185,24.185v1.113
				l-24.185-24.185v2.04l24.185,24.185v1.114l-24.185-24.184v2.04l24.185,24.184v1.115l-24.185-24.186v2.044l24.228,24.228
				l31.457-110.303l18.254,24.248l18.01,17.684l-0.239,0.87l-17.948-17.947l-0.461,1.579l17.967,17.967l-0.239,0.874L123.337,66.09
				l-0.563,1.929l18.1,17.648l-0.239,0.875L122.624,68.53l-0.461,1.579l18.031,18.03l-0.24,0.874l-18.043-18.041l-0.46,1.579
				l18.062,18.062l-0.241,0.874l-18.069-18.068l-0.46,1.579l18.093,18.089l-0.24,0.875L120.495,75.86l-0.46,1.579l18.125,18.121
				l-0.241,0.874l-18.131-18.132l-0.461,1.579l18.152,18.151l-0.24,0.874l-18.164-18.164l-0.46,1.579l18.184,18.184l-0.24,0.875
				L118.36,83.183l-0.461,1.579l18.215,18.215l-0.241,0.874l-18.227-18.227l-0.46,1.579l18.246,18.246l-0.239,0.874l-18.259-18.258
				l-0.461,1.579l18.278,18.278l-0.239,0.875l-18.286-18.29l-0.461,1.579l18.31,18.31l-0.24,0.874l-18.317-18.316l-0.461,1.578
				l18.337,18.338l-0.24,0.874l-18.35-18.352l-0.46,1.579l18.369,18.369l-0.24,0.875l-18.381-18.381l-0.46,1.579l18.4,18.399
				l-0.24,0.874l-18.412-18.412l-0.461,1.58l18.431,18.433l-0.24,0.869l-18.444-18.443l-0.46,1.579l18.463,18.463l-0.24,0.874
				l-18.475-18.476l-0.461,1.579l18.495,18.495l-0.239,0.874l-18.507-18.506l-0.46,1.579l18.525,18.526l-0.239,0.875l-18.535-18.534
				l-0.46,1.579l18.558,18.554l-0.24,0.874l-18.566-18.565l-0.46,1.579l18.584,18.585l-0.239,0.874l-18.6-18.6l-0.46,1.579
				l18.616,18.616l-0.239,0.875l-18.628-18.629l-0.461,1.579l18.648,18.648l-0.24,0.871l-18.661-18.66l-0.46,1.579l18.68,18.68
				l-0.24,0.875l-18.692-18.691l-0.461,1.578l18.711,18.711l-0.24,0.874l-18.723-18.723l-0.46,1.579l18.742,18.743l-0.24,0.875
				l-18.75-18.755l-0.46,1.579l18.773,18.773l-0.24,0.874l-18.782-18.782l-0.46,1.579l18.801,18.806l-0.239,0.875l-18.814-18.813
				l-0.461,1.579l18.833,18.833l-0.239,0.874l-18.845-18.845l-0.461,1.579l18.865,18.864l-0.241,0.874L102.706,136.9l-0.46,1.579
				l18.896,18.896l-0.24,0.875l-18.908-18.908l-0.461,1.579l18.928,18.928l-0.24,0.87l-18.94-18.939l-0.46,1.579l18.959,18.959
				l-0.24,0.874l-18.971-18.971l-0.461,1.579l18.992,18.991l-0.241,0.874l-18.998-18.999l-0.461,1.578l19.022,19.023l-0.239,0.874
				l-19.031-19.03l-0.461,1.579l19.05,19.05l-0.24,0.874l-19.062-19.062l-0.46,1.58l19.081,19.081l-0.24,0.87l-19.093-19.094
				l-0.46,1.579l19.125,19.125l0.414,1.527l-19.791-19.79l-0.461,1.579l21.01,21.011l0.414,1.528l-21.676-21.676l-0.46,1.578
				l22.896,22.896l0.413,1.528l-23.562-23.562l-0.461,1.579l24.779,24.779l0.414,1.526l-25.449-25.447l-0.46,1.579l26.665,26.665
				l0.414,1.527L94.16,166.193l-0.46,1.579l28.551,28.551l0.413,1.528l-29.216-29.217l-0.461,1.579l30.437,30.437l0.414,1.527
				l-31.104-31.103l-0.46,1.579l32.319,32.32l0.414,1.527l-32.934-32.935l0.792,2.831l32.902,32.902l0.413,1.526l-32.882-32.882
				l0.792,2.831l32.851,32.853l0.413,1.526l-32.836-32.833l0.792,2.831l32.799,32.8l0.413,1.528l-32.784-32.785l0.792,2.831
				l32.749,32.75l0.414,1.525L96.96,191.071l0.791,2.831l32.698,32.697l0.414,1.527L98.18,195.445l0.791,2.832l32.65,32.65
				l0.414,1.527l-32.631-32.632l0.792,2.832l32.599,32.599l0.414,1.526l-32.579-32.577l0.791,2.83l32.548,32.549l0.413,1.526
				l-32.528-32.526l0.792,2.83l32.497,32.497l0.413,1.526l-32.476-32.477l0.791,2.83l32.446,32.445l0.413,1.528l-32.43-32.431
				l0.792,2.832l32.394,32.395l0.413,1.527l-32.378-32.379l0.792,2.83l32.343,32.348l0.414,1.527l-32.328-32.326l0.792,2.83
				l32.295,32.297l0.414,1.526l-32.276-32.274l0.792,2.83L141,265.543l0.413,1.526l-32.225-32.226l0.791,2.832l32.194,32.193
				l0.413,1.527l-32.174-32.174l0.792,2.83l32.142,32.143l0.413,1.528l-32.123-32.122l0.792,2.831l32.091,32.091l0.414,1.527
				l-32.075-32.071l-0.422-1.508l1.213,4.34l32.04,32.039l0.413,1.528l-32.024-32.024l0.792,2.831l31.988,31.988l0.413,1.527
				L115.3,256.729l0.792,2.832l31.941,31.942l0.413,1.525l-31.92-31.923l0.791,2.832l31.89,31.89l0.413,1.528l-31.871-31.87
				l0.792,2.83l31.839,31.84l0.414,1.528l-31.819-31.82l0.791,2.832l31.788,31.787l0.414,1.528l-31.768-31.77l0.791,2.831
				l31.736,31.737l0.414,1.527l-31.717-31.723l0.792,2.832l31.685,31.688L148.135,308.545z M50.377,62.928l0.56-0.555L74.514,85.95
				v1.114L50.377,62.928z M74.582,152.224v-2.04L50.397,126v2.04L74.582,152.224z M74.582,155.382v-2.04l-24.185-24.186v2.04
				L74.582,155.382z M74.582,158.54v-2.04l-24.185-24.186v2.04L74.582,158.54z M74.582,161.697v-2.044L50.397,135.47v2.043
				L74.582,161.697z M74.582,164.855v-2.044l-24.185-24.185v2.044L74.582,164.855z M74.582,168.01v-2.04l-24.185-24.186v2.04
				L74.582,168.01z M74.582,171.164v-2.04l-24.185-24.186v2.04L74.582,171.164z M74.582,174.32v-2.04l-24.185-24.184v2.043
				L74.582,174.32z M74.582,177.479v-2.04l-24.185-24.185v2.04L74.582,177.479z M74.582,180.633v-2.04l-24.185-24.186v2.04
				L74.582,180.633z M74.582,183.791v-2.043l-24.185-24.186v2.044L74.582,183.791z M74.582,186.944v-2.04L50.397,160.72v2.04
				L74.582,186.944z M74.582,190.104v-2.044l-24.185-24.184v2.043L74.582,190.104z M74.582,193.261v-2.04l-24.185-24.185v2.043
				L74.582,193.261z M74.582,194.379l-24.185-24.185v2.043l24.185,24.186V194.379z M52.511,60.794l-0.559,0.555l22.559,22.559
				v-1.114L52.511,60.794z M54.083,59.215l-0.559,0.555l20.979,20.979v-1.115L54.083,59.215z M55.67,57.644l-0.56,0.555
				l19.397,19.396V76.48L55.67,57.644z M57.245,56.064l-0.559,0.556l17.817,17.817v-1.115L57.245,56.064z M58.832,54.493
				l-0.559,0.556l16.238,16.239v-1.115L58.832,54.493z M60.375,52.891l-0.559,0.555l14.66,14.66v-1.114L60.375,52.891z
				 M61.961,51.323l-0.559,0.556l13.08,13.081v-1.114L61.961,51.323z M63.537,49.74l-0.559,0.556L74.48,61.798v-1.114L63.537,49.74z
				 M65.108,48.163l-0.559,0.555l9.923,9.922v-1.114L65.108,48.163z M66.695,46.591l-0.556,0.555l8.344,8.344v-1.113L66.695,46.591z
				 M68.293,45.031l-0.559,0.556l6.765,6.765v-1.115L68.293,45.031z M69.869,43.452l-0.559,0.556l5.185,5.186V48.08L69.869,43.452z
				 M71.443,41.874l-0.559,0.555l3.606,3.606v-1.113L71.443,41.874z M73.018,40.295l-0.559,0.555l2.028,2.028v-1.114L73.018,40.295z
				 M74.042,39.274l0.449,0.449v-0.898L74.042,39.274z M124.333,289.072l6.599,5.395l-7.063-7.062L124.333,289.072z M126.254,61.495
				l-0.61,0.5l17.152,17.151l0.24-0.874L126.254,61.495z M127.987,60.077l-0.61,0.5l16.101,16.102l0.24-0.874L127.987,60.077z
				 M129.728,58.644l-0.614,0.5l15.048,15.049l0.24-0.874L129.728,58.644z M131.464,57.227l-0.614,0.5l13.998,13.998l0.241-0.875
				L131.464,57.227z M133.192,55.809l-0.609,0.5l12.946,12.946l0.24-0.874L133.192,55.809z M134.929,54.387l-0.61,0.5l11.895,11.896
				l0.241-0.875L134.929,54.387z M136.653,52.974l-0.61,0.5l10.844,10.844l0.241-0.874L136.653,52.974z M138.39,51.567l-0.609,0.5
				l9.792,9.793l0.24-0.875L138.39,51.567z M140.122,50.139l-0.614,0.5l8.742,8.741l0.24-0.874L140.122,50.139z M141.855,48.721
				l-0.611,0.5l7.69,7.689l0.24-0.873L141.855,48.721z M143.595,47.304l-0.614,0.5l6.639,6.639l0.24-0.874L143.595,47.304z
				 M145.324,45.875l-0.61,0.5l5.587,5.587l0.24-0.874L145.324,45.875z M147.061,44.461l-0.614,0.5l4.536,4.536l0.239-0.874
				L147.061,44.461z M148.793,43.031l-0.614,0.5l3.485,3.485l0.24-0.874L148.793,43.031z M150.525,41.609l-0.609,0.5l2.433,2.434
				l0.241-0.874L150.525,41.609z M152.262,40.205l-0.61,0.5l1.383,1.382l0.239-0.874L152.262,40.205z"/>
			<path fill="#2E2925" d="M197.836,170.115v5.198l24.216,24.185v1.114l-24.216-24.185v2.04l24.216,24.184v1.115l-24.216-24.185
				v2.04l24.216,24.185v1.115l-24.216-24.186v2.043l24.216,24.186v1.113l-24.216-24.185v2.043l24.216,24.185v1.114l-24.216-24.185
				v2.039l24.216,24.186v1.114l-24.216-24.185v2.043l24.216,24.185v1.114l-24.216-24.186v2.043l24.216,24.184v1.115l-24.216-24.185
				v2.04l24.216,24.186v1.113l-24.216-24.185v2.04l24.216,24.186v1.111l-24.216-24.184v2.045l24.216,24.185v1.114l-24.216-24.185
				v2.039l24.216,24.185v1.113l-24.216-24.185v2.04l24.216,24.185v1.114l-24.216-24.186v2.041l24.216,24.185v1.114l-24.216-24.186
				v2.043l24.216,24.186v1.115l-24.216-24.186v2.043l24.216,24.186v1.113l-24.216-24.186v2.041l24.216,24.185v1.114l-24.216-24.186
				v2.041l24.216,24.185v1.114l-24.216-24.186v2.044l24.216,24.185v1.115l-24.216-24.186v2.043l24.216,24.186v1.113l-24.216-24.186
				v2.041l24.216,24.185v1.114l-24.216-24.186v2.039l24.216,24.186v1.113l-24.216-24.185v2.04l24.216,24.186v1.113l-24.216-24.185
				v2.043l24.216,24.185v1.114l-24.216-24.185v2.039l24.217,24.191v1.115l-24.216-24.186v2.043l24.216,24.186v1.113l-24.216-24.185
				v2.043l24.216,24.185v1.115l-24.216-24.185v2.043l24.216,24.185v1.114l-24.216-24.185v2.045l24.216,24.185v1.114l-24.216-24.186
				v2.043l24.216,24.186v1.115l-24.216-24.186v2.043l24.216,24.186v1.113l-24.216-24.185v2.043l24.216,24.185v1.115l-24.216-24.185
				v2.04l24.216,24.184v1.115l-24.216-24.186v2.043l24.216,24.186v1.114l-24.216-24.185v2.043l24.216,24.185v1.114l-24.216-24.185
				v2.043l24.216,24.185v1.115l-24.216-24.186v2.043l24.216,24.204l-24.216-24.177l24.216,24.186h-48.235V38.724l24.019,24.192
				v2.008l24.22,24.196v1.114l-24.22-24.195v2.04l24.22,24.195v1.114l-24.22-24.196v2.04l24.22,24.196v1.114l-24.22-24.196v2.04
				l24.22,24.196v1.114l-24.22-24.195v2.043l24.22,24.195v1.114l-24.22-24.196v2.043l24.22,24.196v1.115l-24.22-24.196v2.04
				l24.22,24.196v1.115l-24.22-24.196v2.043l24.22,24.196v1.113l-24.22-24.195v2.043l24.22,24.195v1.115l-24.22-24.195v2.043
				l24.22,24.195v1.114l-24.22-24.196v2.04l24.22,24.196v1.114l-24.22-24.196v2.04l24.22,24.196v1.113l-24.22-24.195v2.04
				l24.22,24.195v1.114l-24.22-24.196v2.043l24.22,24.196v1.115l-24.22-24.196v2.043l24.22,24.196v1.114l-24.22-24.196v2.043
				l24.22,24.196v1.113l-24.22-24.195v2.044l24.22,24.195v1.114l-24.22-24.196v2.04l24.22,24.196v1.114l-24.22-24.196v2.043
				l24.22,24.193v1.114l-24.22-24.192v2.044l24.22,24.31l-0.5,0.5l-23.724-23.695v2.04l22.703,22.677l-0.56,0.555l-22.145-22.117
				v2.043l21.124,21.098l-0.556,0.555l-20.565-20.542v2.043l19.546,19.52l-0.556,0.555l-18.991-18.963v2.043l17.971,17.943
				l-0.556,0.556l-17.412-17.385v2.04l16.392,16.364l-0.556,0.557l-15.836-15.807v2.04l14.813,14.786l-0.557,0.555l-14.257-14.229
				v2.04l13.237,13.211l-0.555,0.555l-12.679-12.651v2.044l11.66,11.631l-0.556,0.555l-11.104-11.076v2.04l10.083,10.053
				l-0.556,0.56l-9.523-9.498v2.04l8.662,8.478l-0.787,0.556l-7.875-7.918v2.043l7.087,6.897l-0.787,0.557l-6.3-6.345v2.043
				l5.513,5.32l-0.787,0.555l-4.726-4.764v2.043l3.937,3.741l-0.786,0.555l-3.15-3.186v2.04l2.362,2.166l-0.788,0.555
				L197.836,170.115z M197.809,173.385v-1.115l0.788,0.586L197.809,173.385z M222.033,86.025v1.114l-24.22-24.185l0.787-0.556
				L222.033,86.025z M270.456,264.76v2.039l24.185,24.185v1.113l-24.185-24.185v2.039l24.185,24.186v1.113l-24.185-24.185v2.043
				l24.185,24.185v1.114l-24.185-24.184v2.039l24.185,24.185v1.115l-24.185-24.186v2.041l24.185,24.185v1.114l-24.185-24.186v2.043
				l24.185,24.186v1.113l-24.185-24.185v2.044l24.185,24.184v1.115l-24.185-24.185v2.036l24.188,24.188h-48.377V197.49h-24.216
				l-24.216-24.191h72.62v2.02l24.183,24.182v1.113l-24.183-24.181v2.04l24.183,24.181v1.114l-24.183-24.181v2.044l24.183,24.181
				v1.112l-24.183-24.179v2.04l24.183,24.18v1.115l-24.183-24.182v2.044l24.185,24.181v1.114l-24.185-24.185v2.043l24.185,24.185
				v1.114l-24.185-24.181v2.04l24.185,24.18v1.115l-24.185-24.18v2.043l24.185,24.18v1.113l-24.185-24.18v2.044l24.185,24.181v1.114
				l-24.185-24.185v2.04l24.185,24.181v1.114l-24.185-24.185v2.039l24.185,24.18v1.115l-24.185-24.185v2.044l24.185,24.184v1.114
				l-24.185-24.185v2.044l24.185,24.181v1.114l-24.185-24.185v2.039l24.185,24.186v1.113l-24.185-24.185v2.04l24.185,24.186v1.113
				l-24.185-24.185v2.044l24.185,24.186v1.113l-24.185-24.186v2.041l24.185,24.185v1.112l-24.185-24.186v2.045l24.185,24.186v1.113
				l-24.185-24.185v2.044l24.185,24.186v1.113l-24.185-24.185v2.043l24.185,24.185v1.114l-24.185-24.185v2.039l24.185,24.186v1.114
				l-24.185-24.185v2.043l24.185,24.186v1.113l-24.185-24.185v2.04l24.185,24.186v1.111l-24.185-24.185v2.045l24.185,24.185v1.114
				l-24.185-24.184v2.043l24.185,24.185v1.114l-24.185-24.185v2.039l24.185,24.186v1.111l-24.185-24.185v2.046l24.185,24.184v1.115
				l-24.185-24.185v2.038l24.185,24.186v1.113l-24.185-24.186v2.041l24.185,24.185v1.114L270.456,264.76z M222.033,82.876v1.113
				L199.387,61.38l0.789-0.556L222.033,82.876z M222.033,79.729v1.114l-21.071-21.03l0.788-0.555L222.033,79.729z M222.033,76.571
				v1.114l-19.495-19.451l0.787-0.555L222.033,76.571z M222.033,73.414v1.114l-17.922-17.873l0.789-0.555L222.033,73.414z
				 M222.033,70.256v1.114l-16.346-16.294l0.787-0.555L222.033,70.256z M222.033,67.109v1.114l-14.721-14.719l0.557-0.556
				L222.033,67.109z M222.033,63.936v1.115L208.893,51.91l0.559-0.555L222.033,63.936z M222.037,60.777v1.114l-11.561-11.561
				l0.553-0.556L222.037,60.777z M222.037,57.621v1.113l-9.98-9.98l0.555-0.556L222.037,57.621z M222.04,54.466v1.115l-8.406-8.407
				l0.556-0.556L222.04,54.466z M222.037,51.315v1.114l-6.827-6.828l0.554-0.555L222.037,51.315z M222.037,48.166v1.114
				l-5.249-5.249l0.555-0.556L222.037,48.166z M222.033,45.008v1.114l-3.672-3.671l0.557-0.555L222.033,45.008z M222.033,41.854
				v1.114l-2.092-2.091l0.559-0.556L222.033,41.854z M222.033,38.782v1.028l-0.518-0.516L222.033,38.782z M294.648,197.525
				l-24.188-24.161l-24.192-24.191V38.72l24.186,24.193v2.035l24.191,24.192v1.114l-24.191-24.192v2.04l24.191,24.192v1.113
				l-24.191-24.191v2.04l24.191,24.192v1.114l-24.191-24.191v2.04l24.191,24.191v1.115l-24.191-24.192v2.044l24.191,24.192v1.115
				l-24.191-24.193v2.04l24.191,24.192v1.113l-24.191-24.191v2.043l24.191,24.191v1.114l-24.191-24.191v2.044l24.191,24.191v1.115
				l-24.191-24.193v2.04l24.191,24.192v1.114l-24.191-24.192v2.043l24.191,24.192v1.113l-24.191-24.191v2.043l24.191,24.191v1.115
				l-24.191-24.191v2.04l24.191,24.191v1.114l-24.191-24.192v2.04l24.191,24.192v1.115l-24.191-24.193v2.044l24.191,24.192v1.113
				l-24.191-24.191v2.04l24.191,24.191v1.114l-24.191-24.192v2.04l24.191,24.192v1.115l-24.191-24.192v2.04l24.191,24.192v1.114
				l-24.191-24.191v2.04l24.191,24.191v1.114l-24.191-24.191v2.04l24.191,24.191v1.115l-24.191-24.193v2.044l24.191,24.192v1.114
				l-24.191-24.192v2.043l24.191,24.192v1.113l-24.191-24.191v2.043l24.191,24.191v1.114l-24.191-24.191v2.04l24.191,24.191v1.114
				l-24.188-24.192v2.04l24.188,24.193v1.114l-24.188-24.188v2.04l24.188,24.188v1.113l-24.188-24.191v2.043l24.188,24.188v1.114
				l-24.188-24.188v2.04l24.188,24.188v1.115l-24.188-24.189v2.044l24.188,24.188v1.113l-24.188-24.188v2.044l24.188,24.188v1.113
				l-24.188-24.188v2.043l24.188,24.188v1.114l-24.188-24.188v2.039l24.188,24.188v1.114l-24.188-24.19v2.04l24.188,24.188v1.114
				l-24.188-24.188v2.043l24.188,24.188v1.114l-24.188-24.188v2.039l24.188,24.188v1.114l-24.188-24.188v2.04l24.188,24.188
				L294.648,197.525z M294.639,86.01v1.114L270.45,62.936l0.555-0.555L294.639,86.01z M294.646,82.852v1.115l-22.615-22.614
				l0.556-0.555L294.646,82.852z M294.646,79.693v1.114l-21.037-21.034l0.557-0.555L294.646,79.693z M294.641,76.544v1.114
				l-19.459-19.459l0.555-0.555L294.641,76.544z M294.646,73.386V74.5l-17.881-17.88l0.555-0.557L294.646,73.386z M294.618,70.252
				v1.113l-16.302-16.301l0.556-0.555L294.618,70.252z M294.629,67.094v1.115l-14.727-14.728l0.557-0.555L294.629,67.094z
				 M294.629,63.936v1.115L281.48,51.902l0.557-0.555L294.629,63.936z M294.629,60.777v1.114l-11.568-11.568l0.557-0.555
				L294.629,60.777z M294.621,57.628v1.114l-9.993-9.993l0.556-0.556L294.621,57.628z M294.618,54.474v1.114l-8.414-8.415
				l0.554-0.556L294.618,54.474z M294.626,51.319v1.114l-6.84-6.839l0.556-0.556L294.626,51.319z M294.634,48.153v1.114l-5.261-5.26
				l0.557-0.557L294.634,48.153z M294.634,44.997v1.113l-3.683-3.682l0.556-0.555L294.634,44.997z M294.639,41.843v1.114
				l-2.107-2.106l0.556-0.555L294.639,41.843z M294.629,38.752v1.055l-0.527-0.527L294.629,38.752z"/>
			<path fill="#2E2925" d="M349.541,62.9v1.934l24.185,24.185v1.114l-24.185-24.186v2.044l24.185,24.185v1.114l-24.185-24.186v2.04
				l24.185,24.186v1.113l-24.185-24.185v2.04l24.185,24.184v1.115l-24.185-24.185v2.039l24.185,24.186v1.114l-24.185-24.185v2.043
				l24.185,24.186v1.113l-24.185-24.185v2.04l24.185,24.185v1.114l-24.185-24.185v2.04l24.185,24.185v1.114l-24.185-24.186v2.044
				l24.185,24.185v1.115L349.541,91.19v2.043l24.185,24.186v1.114l-24.185-24.185v2.04l24.185,24.185v1.114l-24.185-24.185v2.04
				l24.185,24.185v1.114l-24.185-24.186v2.04l24.185,24.186v1.114l-24.185-24.186v2.04l24.185,24.185v1.114l-24.185-24.185v2.04
				l24.185,24.185v1.114l-24.185-24.186v2.045l24.185,24.184v1.115l-24.185-24.186v2.04l24.185,24.186v1.113l-24.185-24.185v2.044
				l24.185,24.184v1.114l-24.185-24.185v2.04l24.185,24.185v1.115l-24.185-24.186v2.044l24.185,24.185v1.114L349.541,125.9v2.039
				l24.185,24.186v1.114l-24.185-24.185v2.04l24.185,24.185v1.114l-24.185-24.185v2.04l24.185,24.185v1.114l-24.185-24.186v2.043
				l24.185,24.186v1.114l-24.185-24.185v2.043l24.185,24.186v1.113l-24.185-24.185v2.04l24.185,24.185v1.115l-24.185-24.185v2.04
				l24.185,24.185v1.114l-24.185-24.186v2.044l24.185,24.186v1.114l-24.185-24.186v2.04l24.185,24.186v1.113L349.541,154.3v2.043
				l24.185,24.185v1.114l-24.185-24.185v2.043l24.185,24.185v1.114l-24.185-24.186v2.04l24.185,24.186v1.115l-24.185-24.186v2.04
				l24.185,24.185v1.114l-24.185-24.185v2.04l24.185,24.185v1.114l-24.185-24.185v2.04l24.185,24.185v1.115l-24.185-24.186v2.043
				l24.185,24.186v1.113l-24.185-24.185v2.04l24.185,24.184v1.115l-24.185-24.186v2.04l24.185,24.185v1.114l-24.185-24.186v2.043
				l24.185,24.186v1.113l-24.185-24.185v2.043l24.185,24.185v1.114l-24.185-24.185v2.04l24.185,24.185v1.115l-24.185-24.186v2.043
				l24.185,24.185v1.114l-24.185-24.186v2.04l24.185,24.185v1.113l-24.185-24.184v2.04l24.185,24.185v1.114l-24.185-24.181v2.039
				l24.185,24.186v1.113l-24.185-24.184v2.039l24.185,24.186v1.113l-24.185-24.186v2.044l24.185,24.185v1.115l-24.185-24.185v2.038
				l24.185,24.186v1.115l-24.185-24.186v2.039l24.185,24.185v1.114l-24.185-24.186v2.043l24.185,24.186v1.115l-24.185-24.186v2.045
				l24.185,24.184v1.115l-24.185-24.185v2.038l24.185,24.185v1.114l-24.185-24.186v2.041l24.185,24.185v1.114l-24.185-24.186v2.044
				l24.185,24.185v1.115l-24.185-24.186v2.043l24.185,24.186v1.113l-24.185-24.186v2.041l24.185,24.185v1.114l-24.185-24.186v2.041
				l24.185,24.185v1.114l-24.185-24.185v2.039l24.185,24.185v1.113l-24.185-24.185v2.045l24.185,24.185v1.114l-24.185-24.185V251
				l24.185,24.186v1.113l-24.185-24.184v2.045l24.185,24.185v1.112l-24.185-24.185v2.045l24.185,24.185v1.115l-24.185-24.186v2.043
				l24.185,24.186v1.114l-24.185-24.185v2.039l24.185,24.186v1.114l-24.185-24.187v2.045l24.185,24.185v1.114L349.541,267.9v2.044
				l24.185,24.185v1.115l-24.185-24.186v2.043l24.185,24.186v1.113l-24.185-24.185v2.04l24.185,24.185v1.114l-24.185-24.186v2.045
				l24.185,24.185v1.114l-24.185-24.186v2.043l24.185,24.186v1.113l-24.185-24.185v2.044l24.185,24.184v1.115l-24.185-24.185v2.146
				l24.189,24.189h-48.378V38.807L349.541,62.9z M349.625,62.928l0.556-0.555l23.576,23.577v1.114L349.625,62.928z M351.2,61.345
				l0.559-0.555l21.998,21.999v1.113L351.2,61.345z M352.774,59.762l0.559-0.555l20.421,20.42v1.113L352.774,59.762z M354.361,58.19
				l0.556-0.555l18.84,18.841v1.115L354.361,58.19z M355.938,56.611l0.559-0.555l17.262,17.262v1.114L355.938,56.611z
				 M357.519,55.045l0.561-0.556l15.684,15.684v1.114L357.519,55.045z M359.07,53.438l0.561-0.555l14.104,14.104v1.114
				L359.07,53.438z M360.653,51.867l0.56-0.555l12.524,12.525v1.114L360.653,51.867z M362.229,50.289l0.56-0.556l10.946,10.946
				v1.114L362.229,50.289z M363.808,48.71l0.561-0.556l9.367,9.368v1.114L363.808,48.71z M365.391,47.138l0.556-0.555l7.789,7.789
				v1.113L365.391,47.138z M366.985,45.574l0.559-0.555l6.21,6.209v1.115L366.985,45.574z M368.561,43.996l0.561-0.556l4.63,4.63
				v1.114L368.561,43.996z M370.135,42.418l0.56-0.556l3.052,3.053v1.113L370.135,42.418z M371.711,40.838l0.559-0.556l1.474,1.474
				v1.114L371.711,40.838z M373.293,39.268l0.449-0.449v0.898L373.293,39.268z"/>
		</g>
	</g>
	<g>
		<g>
			<path fill="#03A04D" d="M44.475,325.739l-5.405,19.572l5.405,19.961h-6.892l-4.538-16.502v16.502h-6.969v-39.524h6.969v15.903
				l4.538-15.91L44.475,325.739z"/>
			<path fill="#03A04D" d="M56.7,325.75v39.524h-6.969V325.75H56.7z"/>
			<path fill="#03A04D" d="M80.93,328.703v16.957c0,0.817-0.332,1.559-0.868,2.094c-0.536,0.537-1.276,0.869-2.094,0.869h-7.541
				v16.651h-6.969v-39.519l14.509-0.016c0.818,0,1.558,0.332,2.094,0.868S80.93,327.885,80.93,328.703L80.93,328.703z
				 M70.428,332.711v8.94h3.533v-8.94H70.428z"/>
			<path fill="#03A04D" d="M104.539,332.711H94.083v8.942h10.456v6.97H94.083v9.682h10.43l0.025,6.969H90.076
				c-0.818,0-1.559-0.333-2.094-0.868c-0.536-0.536-0.869-1.276-0.869-2.094v-33.72c0-0.707,0.331-1.448,0.867-1.984
				c0.536-0.535,1.277-0.866,2.096-0.866h0.585h13.878V332.711z"/>
			<path fill="#03A04D" d="M123.189,365.272l-4.871-16.64v16.64h-6.982v-39.517l14.639-0.015c0.815,0,1.554,0.333,2.089,0.87
				c0.535,0.536,0.866,1.279,0.866,2.1v16.955c0,0.819-0.312,1.562-0.847,2.101c-0.534,0.536-1.292,0.868-2.107,0.868h-0.684
				l4.834,16.64L123.189,365.272z M118.319,332.726v8.926h3.659v-8.926H118.319z"/>
			<path fill="#03A04D" d="M165.577,365.272h-6.969v-16.649h-3.488v16.649h-6.969v-39.533h6.97v15.912h3.486v-15.912h6.969
				L165.577,365.272L165.577,365.272z"/>
			<path fill="#03A04D" d="M179.341,325.75v39.524h-6.968V325.75H179.341z"/>
			<path fill="#03A04D" d="M203.529,341.648l-3.485,3.484l3.485,3.483v13.696c0,0.816-0.334,1.559-0.869,2.094
				c-0.536,0.536-1.282,0.863-2.1,0.863h-14.459v-39.533l14.458-0.006c0.818,0,1.564,0.339,2.101,0.875s0.868,1.275,0.868,2.094
				L203.529,341.648z M193.072,341.646h3.487v-8.941h-3.487V341.646z M193.072,358.299h3.487v-9.683h-3.487V358.299z"/>
			<path fill="#03A04D" d="M227.581,341.648l-3.485,3.484l3.485,3.483v13.696c0,0.816-0.332,1.559-0.868,2.094
				c-0.536,0.536-1.281,0.863-2.102,0.863h-14.459v-39.533l14.459-0.006c0.816,0,1.562,0.339,2.1,0.875s0.869,1.275,0.869,2.094
				L227.581,341.648z M217.124,341.646h3.487v-8.941h-3.487V341.646z M217.124,358.299h3.487v-9.683h-3.487V358.299z"/>
			<path fill="#03A04D" d="M245.76,325.752l6.649,39.525h-6.97l-1-6.552h-4.522l-1.024,6.549h-6.955l6.805-39.533L245.76,325.752z
				 M243.355,352.043l-1.131-6.9l-1.156,6.898L243.355,352.043z"/>
			<path fill="#03A04D" d="M269.203,365.272l-4.87-16.64v16.64h-6.983v-39.517l14.641-0.015c0.814,0,1.555,0.333,2.089,0.87
				c0.534,0.536,0.864,1.279,0.864,2.1v16.955c0,0.819-0.312,1.562-0.848,2.101c-0.533,0.536-1.291,0.868-2.105,0.868h-0.686
				l4.836,16.64L269.203,365.272z M264.333,332.726v8.926h3.659v-8.926H264.333z"/>
			<path fill="#03A04D" d="M299.281,362.309c0,0.818-0.333,1.56-0.867,2.096c-0.536,0.535-1.277,0.868-2.096,0.868h-14.463v-39.533
				l14.463-0.015c0.817,0,1.56,0.332,2.096,0.867c0.536,0.537,0.868,1.277,0.868,2.097L299.281,362.309z M288.825,358.301h3.487
				v-25.607h-3.487V358.301z"/>
			<path fill="#03A04D" d="M325.355,325.75v39.524h-6.97V325.75H325.355z"/>
			<path fill="#03A04D" d="M349.533,325.739v39.531h-6.967l-3.47-12.824l-0.015,12.826h-6.969v-39.533h6.97l3.523,13.001
				l-0.01-12.998L349.533,325.739z"/>
			<path fill="#03A04D" d="M373.762,341.65h-6.969v-8.943h-3.486v25.596h3.486v-9.684h6.969v13.689c0,0.818-0.332,1.56-0.868,2.096
				c-0.535,0.535-1.275,0.868-2.094,0.868h-11.5c-0.817,0-1.56-0.333-2.096-0.868c-0.536-0.536-0.866-1.275-0.866-2.096v-1.241
				v-32.366c0-0.816,0.33-1.559,0.866-2.095s1.276-0.867,2.094-0.867H370.8c0.817,0,1.561,0.333,2.095,0.868
				c0.536,0.536,0.867,1.275,0.867,2.094V341.65z"/>
		</g>
		<g>
			<path fill="#1C5031" d="M26.156,365.194l0.079,0.078l-0.15-0.009L26.156,365.194z M26.383,364.965l0.307,0.308h-0.162
				l-0.225-0.228L26.383,364.965z M26.609,364.739l0.533,0.533h-0.161l-0.452-0.451L26.609,364.739z M26.836,364.512l0.76,0.761
				h-0.161l-0.68-0.681L26.836,364.512z M27.064,364.287l0.986,0.987h-0.16l-0.907-0.908L27.064,364.287z M27.291,364.061
				l1.214,1.212h-0.161l-1.133-1.133L27.291,364.061z M27.519,363.832l1.44,1.44h-0.161l-1.36-1.36L27.519,363.832z M27.747,363.605
				l1.668,1.667h-0.161l-1.588-1.587L27.747,363.605z M27.974,363.377l1.896,1.896h-0.161l-1.815-1.814L27.974,363.377z
				 M28.201,363.151l2.123,2.121h-0.161l-2.042-2.042L28.201,363.151z M28.429,362.922l2.35,2.351h-0.161l-2.27-2.269
				L28.429,362.922z M28.657,362.696l2.576,2.576h-0.161l-2.496-2.496L28.657,362.696z M28.884,362.467l2.804,2.806h-0.16
				l-2.725-2.726L28.884,362.467z M29.111,362.246l3.031,3.029h-0.16l-2.952-2.95L29.111,362.246z M29.338,362.019l3.259,3.257
				h-0.16l-3.178-3.177L29.338,362.019z M29.575,361.793l3.484,3.484h-0.156l-3.406-3.406L29.575,361.793z M37.824,364.965
				l0.308,0.31H37.97l-0.216-0.217L37.824,364.965z M38.019,364.707l0.568,0.567h-0.162l-0.476-0.478L38.019,364.707z
				 M38.215,364.448l0.826,0.826h-0.16l-0.736-0.735L38.215,364.448z M38.412,364.188l1.086,1.086h-0.161l-0.994-0.994
				L38.412,364.188z M38.607,363.928l1.344,1.345h-0.16l-1.253-1.253L38.607,363.928z M38.804,363.67l1.603,1.604h-0.161
				l-1.512-1.512L38.804,363.67z M38.999,363.412l1.862,1.862h-0.16l-1.772-1.771L38.999,363.412z M39.194,363.151l2.123,2.123
				h-0.161l-2.03-2.032L39.194,363.151z M39.39,362.892l2.382,2.383h-0.161l-2.289-2.291L39.39,362.892z M39.586,362.633l2.64,2.642
				h-0.161l-2.548-2.549L39.586,362.633z M39.782,362.377l2.899,2.898H42.52l-2.807-2.809L39.782,362.377z M39.978,362.118
				l3.158,3.157h-0.16l-3.067-3.066L39.978,362.118z M40.174,361.86l3.417,3.417h-0.16l-3.327-3.325L40.174,361.86z M41.175,362.564
				l0.881,0.72l1.989,1.99h-0.161L41.175,362.564z M43.666,364.604l0.818,0.67h-0.149L43.666,364.604z"/>
			<path fill="#1C5031" d="M49.802,365.194l0.08,0.08l-0.15-0.009L49.802,365.194z M50.029,364.967l0.307,0.308h-0.161l-0.227-0.228
				L50.029,364.967z M50.255,364.741l0.534,0.533h-0.161l-0.453-0.453L50.255,364.741z M50.483,364.515l0.759,0.76H51.08
				l-0.679-0.681L50.483,364.515z M50.709,364.287l0.986,0.987h-0.16l-0.907-0.908L50.709,364.287z M50.936,364.061l1.213,1.214
				h-0.161l-1.132-1.133L50.936,364.061z M51.163,363.834l1.439,1.44h-0.16l-1.36-1.36L51.163,363.834z M51.39,363.605l1.668,1.669
				h-0.161l-1.588-1.589L51.39,363.605z M51.618,363.379l1.896,1.896h-0.161l-1.815-1.815L51.618,363.379z M51.845,363.152
				l2.123,2.122h-0.16l-2.043-2.042L51.845,363.152z M52.073,362.924l2.35,2.351h-0.161l-2.269-2.269L52.073,362.924z M52.3,362.698
				l2.576,2.576h-0.161l-2.496-2.497L52.3,362.698z M52.527,362.472l2.804,2.804h-0.16l-2.725-2.725L52.527,362.472z
				 M52.755,362.243l3.031,3.032h-0.16l-2.952-2.952L52.755,362.243z M52.982,362.017l3.259,3.259h-0.16l-3.179-3.179
				L52.982,362.017z M53.218,361.793l3.484,3.482h-0.157l-3.405-3.404L53.218,361.793z"/>
			<path fill="#1C5031" d="M63.539,365.194l0.078,0.08h-0.158L63.539,365.194z M63.765,364.967l0.306,0.308H63.91l-0.226-0.226
				L63.765,364.967z M63.992,364.741l0.533,0.533h-0.161l-0.452-0.452L63.992,364.741z M64.219,364.515l0.759,0.76h-0.16
				l-0.68-0.681L64.219,364.515z M64.446,364.289l0.986,0.985H65.27l-0.906-0.906L64.446,364.289z M64.673,364.062l1.212,1.213
				h-0.16l-1.132-1.131L64.673,364.062z M64.899,363.836l1.44,1.438h-0.161l-1.359-1.358L64.899,363.836z M65.127,363.608
				l1.667,1.667h-0.16l-1.587-1.587L65.127,363.608z M65.354,363.381l1.895,1.895h-0.161l-1.813-1.814L65.354,363.381z
				 M65.582,363.154l2.121,2.121h-0.161l-2.042-2.041L65.582,363.154z M65.809,362.928l2.349,2.348h-0.161l-2.268-2.268
				L65.809,362.928z M66.035,362.699l2.576,2.576h-0.16l-2.496-2.496L66.035,362.699z M66.263,362.473l2.802,2.803h-0.16
				l-2.724-2.723L66.263,362.473z M66.49,362.246l3.031,3.029H69.36l-2.951-2.949L66.49,362.246z M66.718,362.019l3.257,3.257h-0.16
				l-3.178-3.177L66.718,362.019z M66.943,361.793l3.484,3.482h-0.159l-3.404-3.404L66.943,361.793z M67.104,345.139l3.485,3.484
				h-0.161l-3.485-3.484H67.104z M67.107,329.228l3.485,3.485h-0.161l-3.485-3.485H67.107z M67.553,345.139l3.485,3.484h-0.161
				l-3.485-3.484H67.553z M67.562,329.228l3.485,3.485h-0.16l-3.485-3.485H67.562z M68.003,345.139l3.485,3.484h-0.161l-3.484-3.484
				H68.003z M68.016,329.228l3.485,3.485H71.34l-3.484-3.485H68.016z M68.453,345.139l3.485,3.484h-0.161l-3.484-3.484H68.453z
				 M68.472,329.228l3.484,3.485h-0.16l-3.485-3.485H68.472z M68.902,345.139l3.485,3.484h-0.16l-3.485-3.484H68.902z
				 M68.926,329.228l3.485,3.485h-0.16l-3.485-3.485H68.926z M69.352,345.139l3.485,3.484h-0.16l-3.485-3.484H69.352z
				 M69.381,329.228l3.484,3.485h-0.16l-3.485-3.485H69.381z M69.803,345.139l3.484,3.484h-0.16l-3.485-3.484H69.803z
				 M69.834,329.228l3.485,3.485h-0.16l-3.485-3.485H69.834z M70.252,345.139l3.485,3.484h-0.161l-3.485-3.484H70.252z
				 M70.289,329.228l3.485,3.485h-0.161l-3.485-3.485H70.289z M70.701,345.139l3.485,3.484h-0.161l-3.484-3.484H70.701z
				 M70.744,329.229l3.353,3.354l-0.08,0.078l-3.434-3.435L70.744,329.229z M71.151,345.139l3.485,3.484h-0.16l-3.485-3.484H71.151z
				 M71.198,329.229l3.125,3.125l-0.08,0.08l-3.207-3.205H71.198z M71.601,345.139l3.485,3.484h-0.16l-3.485-3.484H71.601z
				 M71.653,329.229l2.898,2.897l-0.081,0.08l-2.979-2.979L71.653,329.229L71.653,329.229z M72.051,345.139l3.484,3.484h-0.16
				l-3.485-3.484H72.051z M72.106,329.229l2.671,2.671l-0.08,0.081l-2.752-2.752H72.106L72.106,329.229z M72.501,345.139
				l3.486,3.486h-0.16l-3.486-3.486H72.501z M72.561,329.229l2.444,2.444l-0.08,0.078l-2.524-2.522H72.561z M72.951,345.139
				l3.486,3.486h-0.161l-3.485-3.486H72.951z M73.015,329.229l2.217,2.218l-0.082,0.079l-2.295-2.297H73.015z M73.399,345.139
				l3.487,3.486h-0.161l-3.485-3.486H73.399z M73.47,329.229l1.989,1.989l-0.08,0.08l-2.069-2.069H73.47z M73.851,345.139
				l3.485,3.486h-0.161l-3.485-3.486H73.851z M73.924,329.229l1.763,1.763l-0.081,0.08l-1.842-1.843H73.924z M74.301,345.139
				l3.485,3.486h-0.161l-3.486-3.486H74.301z M74.379,329.231l1.535,1.534l-0.08,0.08l-1.616-1.616L74.379,329.231z M74.75,345.139
				l3.474,3.474l-0.152,0.011l-3.483-3.483L74.75,345.139L74.75,345.139z M74.833,329.231l1.308,1.308l-0.08,0.08l-1.388-1.388
				H74.833z M75.2,345.139l3.414,3.414l-0.134,0.027l-3.442-3.441H75.2z M75.288,329.231l1.08,1.08l-0.08,0.08l-1.16-1.16H75.288
				L75.288,329.231z M75.649,345.139l3.314,3.312l-0.121,0.041l-3.354-3.354H75.649L75.649,345.139z M75.743,329.231l0.853,0.854
				l-0.08,0.08l-0.934-0.935H75.743z M76.099,345.139l3.181,3.181l-0.109,0.05l-3.232-3.229L76.099,345.139L76.099,345.139z
				 M76.196,329.231l0.626,0.625l-0.08,0.08l-0.708-0.705H76.196z M76.549,345.139l3.018,3.018l-0.099,0.062l-3.079-3.079
				L76.549,345.139L76.549,345.139z M76.65,329.231l0.399,0.397l-0.08,0.08l-0.479-0.479L76.65,329.231L76.65,329.231z
				 M76.999,345.139l2.831,2.828l-0.091,0.072l-2.9-2.9H76.999z M77.104,329.231l0.172,0.172l-0.08,0.08l-0.252-0.252H77.104
				L77.104,329.231z M77.445,345.139l2.616,2.615l-0.082,0.078l-2.695-2.693H77.445z"/>
			<path fill="#1C5031" d="M88.101,364.285l0.704,0.704l-0.37-0.211l-0.414-0.413L88.101,364.285z M88.328,364.057l1.157,1.158
				l-0.212-0.053l-1.025-1.023L88.328,364.057z M88.554,363.83l1.442,1.44l-0.169-0.009l-1.353-1.353L88.554,363.83z
				 M88.781,363.603l1.671,1.67h-0.161l-1.589-1.589L88.781,363.603z M89.009,363.377l1.897,1.896h-0.161l-1.817-1.815
				L89.009,363.377z M89.235,363.147l2.125,2.125H91.2l-2.045-2.045L89.235,363.147z M89.462,362.92l2.352,2.354h-0.16l-2.272-2.272
				L89.462,362.92z M89.69,362.693l2.579,2.581h-0.161l-2.499-2.5L89.69,362.693z M89.917,362.467l2.807,2.808h-0.161l-2.727-2.728
				L89.917,362.467z M90.145,362.24l3.034,3.034h-0.16l-2.955-2.954L90.145,362.24z M90.371,362.012l3.262,3.263h-0.161
				l-3.181-3.181L90.371,362.012z M90.602,361.789l3.485,3.485h-0.161l-3.408-3.409L90.602,361.789z M90.76,345.139l3.484,3.484
				h-0.161l-3.485-3.484H90.76z M90.77,329.228l3.485,3.485h-0.16l-3.485-3.485H90.77z M91.057,361.789l3.485,3.485h-0.161
				l-3.484-3.485H91.057z M91.208,345.139l3.485,3.484h-0.16l-3.485-3.484H91.208z M91.218,329.228l3.485,3.485h-0.16l-3.485-3.485
				H91.218z M91.511,361.789l3.485,3.485h-0.161l-3.485-3.485H91.511z M91.656,345.139l3.485,3.484H94.98l-3.485-3.484H91.656z
				 M91.666,329.228l3.484,3.485h-0.16l-3.485-3.485H91.666z M91.966,361.789l3.485,3.485H95.29l-3.484-3.485H91.966z
				 M92.105,345.139l3.484,3.484h-0.161l-3.484-3.484H92.105z M92.113,329.228l3.484,3.485h-0.16l-3.485-3.485H92.113z
				 M92.421,361.789l3.484,3.485h-0.16l-3.485-3.485H92.421z M92.553,345.139l3.484,3.484h-0.16l-3.484-3.484H92.553z
				 M92.561,329.228l3.485,3.485h-0.161l-3.485-3.485H92.561z M92.875,361.789l3.485,3.485H96.2l-3.484-3.485H92.875z
				 M93.001,345.139l3.484,3.484h-0.161l-3.484-3.484H93.001z M93.009,329.228l3.484,3.485h-0.161l-3.485-3.485H93.009z
				 M93.331,361.789l3.484,3.485h-0.16l-3.485-3.485H93.331z M93.45,345.139l3.484,3.484h-0.161l-3.484-3.484H93.45z
				 M93.456,329.228l3.484,3.485h-0.16l-3.485-3.485H93.456z M93.786,361.789l3.484,3.485h-0.16l-3.485-3.485H93.786z
				 M93.897,345.139l3.484,3.484h-0.16l-3.484-3.484H93.897z M93.903,329.228l3.485,3.485h-0.161l-3.485-3.485H93.903z
				 M94.24,361.789l3.485,3.485h-0.161l-3.485-3.485H94.24z M94.346,345.139l3.484,3.484h-0.161l-3.484-3.484H94.346z
				 M94.352,329.228l3.484,3.485h-0.161l-3.485-3.485H94.352z M94.695,361.789l3.484,3.485h-0.161l-3.485-3.485H94.695z
				 M94.794,345.139l3.484,3.484h-0.161l-3.484-3.484H94.794z M94.799,329.228l3.484,3.485h-0.16l-3.485-3.485H94.799z
				 M95.15,361.789l3.485,3.485h-0.161l-3.485-3.485H95.15z M95.243,345.139l3.483,3.484h-0.16l-3.485-3.484H95.243z
				 M95.246,329.228l3.485,3.485H98.57l-3.485-3.485H95.246z M95.604,361.789l3.485,3.485h-0.16l-3.485-3.485H95.604z
				 M95.69,345.139l3.484,3.484h-0.16l-3.485-3.484H95.69z M95.694,329.228l3.484,3.485h-0.161l-3.485-3.485H95.694z
				 M96.057,361.789l3.487,3.485h-0.161l-3.484-3.485h0.087H96.057z M96.139,345.139l3.483,3.484h-0.16l-3.485-3.484H96.139z
				 M96.141,329.228l3.484,3.485h-0.16l-3.485-3.485H96.141z M96.512,361.789l3.487,3.485h-0.161l-3.486-3.485H96.512z
				 M96.587,345.139l3.483,3.484h-0.16l-3.485-3.484H96.587z M96.588,329.228l3.485,3.485h-0.161l-3.485-3.485H96.588z
				 M96.967,361.789l3.486,3.485h-0.161l-3.485-3.485H96.967z M97.035,345.139l3.484,3.484h-0.16l-3.485-3.484H97.035z
				 M97.037,329.228l3.485,3.485h-0.161l-3.485-3.485H97.037z M97.422,361.789l3.486,3.485h-0.16l-3.486-3.485H97.422z
				 M97.483,345.139l3.483,3.484h-0.16l-3.485-3.484H97.483z M97.484,329.228l3.484,3.485h-0.16l-3.485-3.485H97.484z
				 M97.875,361.789l3.486,3.485H101.2l-3.485-3.485H97.875z M97.93,345.139l3.484,3.484h-0.161l-3.484-3.484H97.93z
				 M97.931,329.228l3.485,3.485h-0.16l-3.485-3.485H97.931z M98.331,361.789l3.486,3.485h-0.161l-3.485-3.485H98.331z
				 M98.378,345.139l3.483,3.484H101.7l-3.484-3.484H98.378z M98.379,329.228l3.485,3.485h-0.161l-3.485-3.485H98.379z
				 M98.785,361.789l3.487,3.485h-0.16l-3.486-3.485H98.785z M98.826,345.139l3.483,3.484h-0.16l-3.484-3.484H98.826z
				 M98.826,329.228l3.484,3.485h-0.16l-3.485-3.485H98.826z M99.241,361.789l3.485,3.485h-0.16l-3.486-3.485H99.241z
				 M99.273,345.139l3.483,3.484h-0.161l-3.483-3.484H99.273z M99.273,329.228l3.485,3.485h-0.161l-3.485-3.485H99.273z
				 M99.696,361.789l3.485,3.485h-0.16l-3.487-3.485H99.696z M99.72,345.139l3.483,3.482h-0.16l-3.484-3.482H99.72z M99.722,329.228
				l3.485,3.485h-0.162l-3.485-3.485H99.722z M100.15,361.789l3.486,3.485h-0.161l-3.486-3.485H100.15z M100.168,345.139
				l3.484,3.482h-0.161l-3.484-3.482H100.168z M100.169,329.228l3.484,3.485h-0.16l-3.485-3.485H100.169z M100.605,361.789
				l3.487,3.485h-0.162l-3.485-3.485H100.605z M100.615,345.139l3.484,3.482h-0.161l-3.483-3.482H100.615z M100.616,329.228
				l3.485,3.485h-0.161l-3.485-3.485H100.616z M101.06,345.139l3.483,3.482h-0.161l-3.484-3.482H101.06z M101.056,361.789
				l3.483,3.485h-0.155l-3.486-3.485H101.056z M101.063,329.228l3.484,3.485h-0.16l-3.485-3.485H101.063z"/>
			<path fill="#1C5031" d="M111.341,365.266l0.08-0.081l0.085,0.085h-0.161L111.341,365.266z M111.567,365.034l0.081-0.081
				l0.311,0.312h-0.161L111.567,365.034z M111.795,364.808l0.08-0.081l0.538,0.539h-0.16L111.795,364.808z M112.023,364.578
				l0.08-0.08l0.764,0.766h-0.16L112.023,364.578z M112.249,364.352l0.08-0.08l0.992,0.99h-0.161L112.249,364.352z M112.476,364.125
				l0.08-0.08l1.219,1.219h-0.16L112.476,364.125z M112.705,363.897l0.08-0.08l1.445,1.445h-0.161L112.705,363.897z M112.931,363.67
				l0.08-0.08l1.673,1.674h-0.161L112.931,363.67z M113.157,363.442l0.08-0.08l1.901,1.901h-0.161L113.157,363.442z
				 M113.385,363.215l0.08-0.078l2.128,2.127h-0.162L113.385,363.215z M113.612,362.989l0.081-0.079l2.355,2.354h-0.161
				L113.612,362.989z M113.839,362.762l0.081-0.082l2.582,2.582h-0.161L113.839,362.762z M114.067,362.533l0.081-0.08l2.809,2.811
				h-0.161L114.067,362.533z M114.293,362.315l0.08-0.08l3.037,3.037h-0.162L114.293,362.315z M114.521,362.086l0.08-0.08
				l3.264,3.265h-0.161L114.521,362.086z M114.747,361.858l0.081-0.079l3.491,3.491h-0.161L114.747,361.858z M115.002,329.234
				l3.492,3.491h-0.16l-3.492-3.491H115.002z M115.005,345.144l3.395,3.396l-0.073,0.088l-3.482-3.482L115.005,345.144
				L115.005,345.144z M115.457,329.234l3.492,3.491h-0.16l-3.492-3.491H115.457z M118.605,348.291l-3.146-3.146h-0.161l3.234,3.234
				L118.605,348.291z M115.913,329.234l3.492,3.491h-0.161l-3.492-3.491H115.913z M115.914,345.144l2.897,2.896l-0.072,0.088
				l-2.985-2.983H115.914z M116.366,329.234l3.492,3.491h-0.16l-3.492-3.491H116.366z M116.369,345.144l2.648,2.649l-0.072,0.086
				l-2.736-2.735H116.369z M116.82,329.234l3.492,3.491h-0.16l-3.492-3.491H116.82z M116.823,345.144l2.398,2.399l-0.072,0.088
				l-2.488-2.487H116.823z M117.275,329.234l3.492,3.491h-0.161l-3.493-3.491H117.275z M117.277,345.142l2.151,2.149l-0.073,0.09
				l-2.239-2.239H117.277L117.277,345.142z M117.73,329.234l3.492,3.491h-0.16l-3.492-3.491H117.73z M117.732,345.144l1.901,1.901
				l-0.072,0.088l-1.99-1.989H117.732z M118.184,329.234l3.492,3.491h-0.16l-3.492-3.491H118.184z M118.187,345.144l1.652,1.653
				l-0.073,0.088l-1.741-1.741H118.187L118.187,345.144z M118.639,329.234l3.416,3.415l-0.083,0.076l-3.493-3.491H118.639z
				 M118.641,345.144l1.404,1.403l-0.073,0.088l-1.492-1.491H118.641z M119.093,329.234l3.188,3.188l-0.08,0.08l-3.268-3.268
				H119.093z M119.095,345.144l1.156,1.155l-0.072,0.088l-1.243-1.243H119.095z M119.548,329.234l2.96,2.959l-0.081,0.081
				l-3.042-3.04H119.548z M119.55,345.144l0.907,0.907l-0.072,0.088l-0.996-0.995H119.55L119.55,345.144z M120.002,329.234
				l2.732,2.73l-0.08,0.082l-2.813-2.812H120.002z M120.005,345.144l0.657,0.657l-0.072,0.089l-0.746-0.746H120.005z
				 M120.457,329.232l2.504,2.506l-0.08,0.08l-2.584-2.584L120.457,329.232z M120.458,345.144l0.409,0.409l-0.071,0.088
				l-0.497-0.497H120.458z M120.912,329.232l2.276,2.277l-0.08,0.08l-2.358-2.357H120.912z M120.913,345.144l0.161,0.159
				l-0.073,0.088l-0.249-0.247H120.913z M121.365,329.234l2.049,2.048l-0.08,0.082l-2.129-2.13H121.365z M121.208,345.144h0.16
				l0.951,0.948L121.208,345.144z M121.821,329.234l1.821,1.82l-0.08,0.08l-1.902-1.9H121.821z M121.822,345.144l3.492,3.491h-0.023
				l-0.948-0.812l-2.681-2.68L121.822,345.144L121.822,345.144z M122.274,329.234l1.594,1.594l-0.08,0.081l-1.674-1.675H122.274z
				 M122.277,345.144l3.492,3.491h-0.161l-3.492-3.491H122.277z M122.729,329.234l1.366,1.365l-0.08,0.08l-1.447-1.445H122.729
				L122.729,329.234z M122.731,345.14l3.48,3.479c-0.051,0.006-0.101,0.008-0.152,0.01l-3.488-3.489H122.731z M123.183,329.234
				l1.139,1.139l-0.08,0.08l-1.219-1.219H123.183z M123.187,345.137l3.422,3.422c-0.044,0.01-0.09,0.018-0.135,0.025l-3.448-3.449
				L123.187,345.137z M123.191,365.271l0.057-0.071l0.07,0.071H123.191z M123.38,365.039l0.072-0.09l0.321,0.321h-0.161
				L123.38,365.039z M123.639,329.234l0.91,0.911l-0.08,0.079l-0.992-0.99H123.639L123.639,329.234z M123.642,345.135l3.323,3.322
				c-0.04,0.015-0.08,0.027-0.121,0.041l-3.363-3.363H123.642L123.642,345.135z M123.583,364.787l0.072-0.088l0.572,0.571h-0.16
				L123.583,364.787z M123.787,364.537l0.072-0.089l0.823,0.822h-0.161L123.787,364.537z M124.092,329.234l0.683,0.684l-0.08,0.08
				l-0.763-0.764H124.092z M124.097,345.135l3.189,3.188c-0.036,0.019-0.074,0.034-0.109,0.05l-3.241-3.238H124.097L124.097,345.135
				z M123.991,364.285l0.072-0.088l1.074,1.073h-0.161L123.991,364.285z M124.194,364.034l0.072-0.088l1.325,1.324h-0.161
				L124.194,364.034z M124.546,329.234l0.456,0.454l-0.081,0.082l-0.535-0.536H124.546z M124.55,345.137l3.026,3.025
				c-0.033,0.021-0.066,0.04-0.1,0.061l-3.086-3.086H124.55z M124.398,363.783l0.071-0.088l1.576,1.575h-0.16L124.398,363.783z
				 M124.602,363.532l0.071-0.09l1.827,1.827h-0.161L124.602,363.532z M124.806,363.281l0.072-0.09l2.077,2.078h-0.161
				L124.806,363.281z M125.002,329.234l0.227,0.227l-0.08,0.082l-0.307-0.309H125.002L125.002,329.234z M125.004,345.135
				l2.836,2.839c-0.029,0.022-0.059,0.047-0.089,0.069l-2.908-2.906L125.004,345.135z M125.009,363.03l0.072-0.088l2.328,2.327
				h-0.161L125.009,363.03z M125.213,362.779l0.072-0.09l2.579,2.58h-0.161L125.213,362.779z M125.375,329.314l-0.079-0.08h0.158
				L125.375,329.314z M127.326,347.006l0.754,0.758c-0.026,0.025-0.054,0.052-0.082,0.078l-2.701-2.702h0.156L127.326,347.006z
				 M125.417,362.528l0.072-0.088l2.83,2.829h-0.161L125.417,362.528z M125.62,362.277l0.072-0.088l3.081,3.08h-0.161
				L125.62,362.277z M125.824,362.026l0.072-0.089l3.332,3.332h-0.161L125.824,362.026z M126.054,361.801l1.08,0.922l2.548,2.547
				h-0.16L126.054,361.801z M129.976,365.27l-0.864-0.862l1.014,0.862H129.976z"/>
			<path fill="#1C5031" d="M148.233,365.194l0.08,0.08h-0.161L148.233,365.194z M148.46,364.967l0.306,0.308h-0.16l-0.227-0.226
				L148.46,364.967z M148.687,364.741l0.533,0.533h-0.161l-0.453-0.453L148.687,364.741z M148.914,364.517l0.76,0.759h-0.161
				l-0.68-0.68L148.914,364.517z M149.142,364.289l0.986,0.986h-0.16l-0.906-0.904L149.142,364.289z M149.368,364.062l1.213,1.214
				h-0.161l-1.133-1.134L149.368,364.062z M149.596,363.836l1.44,1.439h-0.16l-1.361-1.359L149.596,363.836z M149.823,363.607
				l1.668,1.668h-0.16l-1.588-1.587L149.823,363.607z M150.051,363.381l1.895,1.895h-0.16l-1.815-1.814L150.051,363.381z
				 M150.279,363.152l2.122,2.123h-0.16l-2.042-2.041L150.279,363.152z M150.505,362.926l2.35,2.35h-0.16l-2.27-2.27
				L150.505,362.926z M150.733,362.699l2.578,2.576h-0.161l-2.497-2.496L150.733,362.699z M150.961,362.472l2.804,2.804h-0.161
				l-2.723-2.723L150.961,362.472z M151.189,362.246l3.031,3.029h-0.161l-2.951-2.95L151.189,362.246z M151.417,362.019l3.259,3.257
				h-0.161l-3.179-3.177L151.417,362.019z M151.642,361.793l3.484,3.482h-0.156l-3.406-3.404L151.642,361.793z M151.812,345.142
				l3.485,3.485h-0.161l-3.485-3.485H151.812z M152.267,345.142l3.485,3.485h-0.162l-3.484-3.485H152.267z M152.721,345.142
				l3.483,3.485h-0.094h-0.065l-3.485-3.485H152.721z M153.176,345.142l3.484,3.485h-0.16l-3.484-3.485H153.176z M153.63,345.142
				l3.462,3.485h-0.139l-3.485-3.485H153.63z M154.085,345.142l3.483,3.483h-0.161l-3.483-3.483H154.085z M154.539,345.142
				l3.484,3.483h-0.073h-0.088l-3.483-3.483H154.539z M154.993,345.142l3.483,3.483h-0.16l-3.483-3.483H154.993z M155.447,345.142
				l3.325,3.325l-0.08,0.08l-3.405-3.405H155.447z M155.902,345.142l3.097,3.099l-0.08,0.08l-3.178-3.179H155.902z M156.354,345.142
				l2.871,2.87l-0.08,0.08l-2.951-2.95H156.354z M156.81,345.144l2.644,2.644l-0.081,0.079l-2.724-2.725L156.81,345.144z
				 M157.263,345.144l2.417,2.416l-0.08,0.081l-2.498-2.497H157.263L157.263,345.144z M157.717,345.144l2.19,2.188l-0.08,0.08
				l-2.27-2.27L157.717,345.144L157.717,345.144z M158.171,345.144l1.962,1.963l-0.081,0.08l-2.043-2.043H158.171z M158.625,345.144
				l1.736,1.735l-0.081,0.078l-1.816-1.813H158.625z M158.685,365.197l0.076,0.077h-0.15L158.685,365.197z M158.913,364.971
				l0.303,0.304h-0.161l-0.223-0.224L158.913,364.971z M159.079,345.144l1.509,1.509l-0.08,0.08l-1.588-1.589H159.079z
				 M159.139,364.744l0.53,0.53h-0.16l-0.45-0.45L159.139,364.744z M159.367,364.518l0.758,0.757h-0.161l-0.676-0.677
				L159.367,364.518z M159.534,345.144l1.28,1.282l-0.08,0.08l-1.361-1.362H159.534z M159.595,364.291l0.984,0.984h-0.16
				l-0.905-0.904L159.595,364.291z M159.822,364.063l1.212,1.212h-0.16l-1.132-1.132L159.822,364.063z M159.987,345.144l1.054,1.054
				l-0.081,0.08l-1.133-1.134H159.987L159.987,345.144z M160.05,363.836l1.44,1.438h-0.161l-1.359-1.358L160.05,363.836z
				 M160.278,363.608l1.667,1.667h-0.16l-1.586-1.585L160.278,363.608z M160.443,345.144l0.826,0.827l-0.08,0.08l-0.908-0.907
				H160.443L160.443,345.144z M160.505,363.381l1.894,1.895h-0.161l-1.813-1.812L160.505,363.381z M160.733,363.154l2.121,2.121
				h-0.16l-2.041-2.04L160.733,363.154z M160.896,345.144l0.599,0.601l-0.08,0.08l-0.68-0.681H160.896z M160.96,362.928l2.349,2.348
				h-0.161l-2.267-2.268L160.96,362.928z M161.188,362.699l2.575,2.576h-0.16l-2.496-2.494L161.188,362.699z M161.35,345.144
				l0.373,0.373l-0.08,0.079l-0.452-0.452H161.35L161.35,345.144z M161.416,362.473l2.803,2.803h-0.161l-2.723-2.723
				L161.416,362.473z M161.644,362.246l3.03,3.029h-0.161l-2.949-2.949L161.644,362.246z M161.805,345.145l0.145,0.146l-0.08,0.08
				l-0.226-0.228L161.805,345.145z M161.872,362.019l3.257,3.257h-0.162l-3.177-3.177L161.872,362.019z M162.1,361.793l3.484,3.482
				h-0.16l-3.406-3.402L162.1,361.793z"/>
			<path fill="#1C5031" d="M172.444,365.194l0.079,0.08l-0.15-0.009L172.444,365.194z M172.671,364.967l0.307,0.308h-0.161
				l-0.227-0.228L172.671,364.967z M172.897,364.741l0.533,0.533h-0.16l-0.453-0.453L172.897,364.741z M173.124,364.515l0.759,0.76
				h-0.16l-0.68-0.681L173.124,364.515z M173.351,364.287l0.987,0.987h-0.162l-0.906-0.908L173.351,364.287z M173.577,364.061
				l1.213,1.214h-0.16l-1.133-1.133L173.577,364.061z M173.805,363.834l1.44,1.44h-0.161l-1.36-1.36L173.805,363.834z
				 M174.032,363.605l1.667,1.669h-0.16l-1.588-1.589L174.032,363.605z M174.26,363.379l1.895,1.896h-0.16l-1.815-1.815
				L174.26,363.379z M174.488,363.152l2.122,2.122h-0.161l-2.043-2.042L174.488,363.152z M174.714,362.924l2.349,2.351h-0.16
				l-2.27-2.269L174.714,362.924z M174.942,362.698l2.576,2.576h-0.16l-2.496-2.497L174.942,362.698z M175.169,362.472l2.805,2.804
				h-0.162l-2.724-2.725L175.169,362.472z M175.397,362.243l3.031,3.032h-0.161l-2.951-2.952L175.397,362.243z M175.625,362.017
				l3.259,3.259h-0.162l-3.179-3.179L175.625,362.017z M175.86,361.793l3.483,3.482h-0.156l-3.406-3.404L175.86,361.793z"/>
			<path fill="#1C5031" d="M186.177,365.199l0.08,0.08h-0.158L186.177,365.199z M186.404,364.973l0.307,0.307h-0.161l-0.227-0.227
				L186.404,364.973z M186.631,364.746l0.534,0.534h-0.161l-0.454-0.454L186.631,364.746z M186.858,364.52l0.761,0.761h-0.161
				l-0.68-0.681L186.858,364.52z M187.084,364.291l0.988,0.989h-0.16l-0.908-0.907L187.084,364.291z M187.312,364.065l1.214,1.214
				h-0.161l-1.134-1.135L187.312,364.065z M187.539,363.838l1.44,1.44h-0.16l-1.361-1.36L187.539,363.838z M187.765,363.61
				l1.668,1.669h-0.16l-1.588-1.589L187.765,363.61z M187.993,363.381l1.895,1.897h-0.161l-1.815-1.815L187.993,363.381z
				 M188.22,363.156l2.122,2.121h-0.161l-2.042-2.042L188.22,363.156z M188.446,362.928l2.35,2.35h-0.161l-2.269-2.27
				L188.446,362.928z M188.674,362.701l2.577,2.576h-0.161l-2.497-2.496L188.674,362.701z M188.901,362.473l2.803,2.805h-0.16
				l-2.724-2.725L188.901,362.473z M189.127,362.248l3.031,3.029h-0.161l-2.95-2.951L189.127,362.248z M189.355,362.021l3.257,3.257
				h-0.161l-3.178-3.178L189.355,362.021z M189.582,361.795l3.485,3.484h-0.16l-3.406-3.404L189.582,361.795z M189.745,329.227
				l3.485,3.484h-0.161l-3.485-3.484H189.745z M189.747,345.142l3.485,3.485h-0.162l-3.484-3.485H189.747z M189.875,361.795h0.16
				l3.487,3.484h-0.16L189.875,361.795z M190.2,329.227l3.484,3.484h-0.161l-3.485-3.484H190.2z M190.201,345.142l3.485,3.485
				h-0.162l-3.485-3.485H190.201z M190.331,361.795h0.161l3.485,3.485h-0.16L190.331,361.795z M190.653,329.227l3.485,3.484h-0.161
				l-3.485-3.484H190.653z M190.655,345.142l3.485,3.485h-0.161l-3.485-3.485H190.655z M190.786,361.795h0.16l3.486,3.485h-0.16
				L190.786,361.795z M191.108,329.227l3.484,3.484h-0.16l-3.485-3.484H191.108z M191.109,345.142l3.484,3.485h-0.16l-3.485-3.485
				H191.109z M191.241,361.795h0.161l3.484,3.484h-0.16L191.241,361.795z M191.562,329.227l3.485,3.484h-0.161l-3.484-3.484H191.562
				z M191.563,345.142l3.485,3.485h-0.16l-3.485-3.485H191.563z M191.695,361.795h0.16l3.485,3.484h-0.162L191.695,361.795z
				 M192.016,329.227l3.485,3.484h-0.161l-3.485-3.484H192.016z M192.018,345.142l3.485,3.485h-0.16l-3.484-3.485H192.018z
				 M192.15,361.795h0.161l3.483,3.484h-0.161L192.15,361.795z M192.471,329.227l3.485,3.484h-0.161l-3.484-3.484H192.471z
				 M192.473,345.142l3.485,3.485h-0.161l-3.484-3.485H192.473z M192.604,361.797h0.161l3.483,3.482h-0.161L192.604,361.797z
				 M192.925,329.227l3.485,3.484h-0.161l-3.485-3.484H192.925z M192.927,345.142l3.485,3.485h-0.161l-3.485-3.485H192.927z
				 M193.059,361.797h0.161l3.482,3.482h-0.16L193.059,361.797z M193.38,329.227l3.33,3.33l-0.08,0.08l-3.41-3.41H193.38
				L193.38,329.227z M193.382,345.142l3.327,3.327l-0.08,0.08l-3.408-3.407H193.382L193.382,345.142z M193.515,361.797h0.16
				l3.482,3.482h-0.16L193.515,361.797z M193.834,329.227l3.103,3.102l-0.08,0.08l-3.182-3.184L193.834,329.227z M193.836,345.142
				l3.1,3.099l-0.081,0.08l-3.181-3.181L193.836,345.142z M193.97,361.799h0.16l3.482,3.48h-0.16L193.97,361.799z M194.289,329.225
				l2.876,2.876l-0.08,0.08l-2.956-2.956H194.289z M194.291,345.14l2.873,2.875l-0.08,0.079l-2.953-2.952L194.291,345.14z
				 M194.424,361.799h0.162l3.48,3.48h-0.16L194.424,361.799z M194.744,329.225l2.648,2.646l-0.08,0.08l-2.729-2.728
				L194.744,329.225L194.744,329.225z M194.746,345.142l2.645,2.646l-0.08,0.08l-2.726-2.726H194.746L194.746,345.142z
				 M195.042,361.797l3.479,3.479h-0.161l-3.48-3.479H195.042z M195.199,329.225l2.42,2.421l-0.08,0.08l-2.501-2.501H195.199
				L195.199,329.225z M195.2,345.142l2.418,2.418l-0.08,0.08l-2.5-2.5L195.2,345.142z M195.496,361.797l3.479,3.479h-0.16
				l-3.48-3.479H195.496z M195.653,329.225l2.194,2.193l-0.08,0.078l-2.274-2.271H195.653z M195.655,345.14l2.19,2.192l-0.081,0.078
				l-2.271-2.271H195.655z M195.95,361.797l3.48,3.479h-0.16l-3.479-3.479H195.95z M196.107,329.225l1.967,1.967l-0.08,0.08
				l-2.046-2.047H196.107z M196.109,345.14l1.963,1.966l-0.08,0.079l-2.045-2.045H196.109z M196.404,361.797l3.48,3.479h-0.16
				l-3.479-3.479H196.404z M196.562,329.225l1.74,1.738l-0.081,0.08l-1.819-1.82L196.562,329.225z M196.564,345.14l1.735,1.737
				l-0.08,0.08l-1.817-1.817H196.564z M196.859,361.797l3.48,3.479h-0.161l-3.479-3.479H196.859z M197.017,329.223l1.512,1.513
				l-0.08,0.081l-1.592-1.594H197.017z M197.018,345.14l1.51,1.511l-0.08,0.08l-1.59-1.591H197.018L197.018,345.14z
				 M197.313,361.797l3.47,3.471l-0.152,0.008l-3.478-3.479H197.313z M197.471,329.223l1.286,1.285l-0.08,0.08l-1.366-1.365H197.471
				L197.471,329.223z M197.473,345.14l1.281,1.282l-0.08,0.082l-1.363-1.364H197.473z M197.768,361.797l3.414,3.412l-0.136,0.026
				l-3.438-3.438H197.768z M197.926,329.223l1.058,1.058l-0.08,0.082l-1.137-1.14H197.926z M197.927,345.14l1.055,1.057l-0.08,0.079
				l-1.135-1.136H197.927L197.927,345.14z M198.223,361.797l3.313,3.314l-0.12,0.039l-3.354-3.354H198.223z M198.38,329.223
				l0.831,0.83l-0.081,0.08l-0.91-0.91H198.38L198.38,329.223z M198.382,345.14l0.828,0.827l-0.081,0.08l-0.908-0.907H198.382z
				 M198.677,361.797l3.181,3.183l-0.109,0.05l-3.231-3.23L198.677,361.797z M198.835,329.223l0.603,0.604l-0.08,0.079l-0.683-0.683
				H198.835z M198.837,345.14l0.6,0.602l-0.08,0.08l-0.68-0.682H198.837L198.837,345.14z M199.132,361.799l3.017,3.018l-0.099,0.061
				l-3.079-3.078H199.132L199.132,361.799z M199.29,329.223l0.376,0.377l-0.08,0.078l-0.457-0.455H199.29L199.29,329.223z
				 M199.292,345.14l0.373,0.374l-0.08,0.078l-0.453-0.452H199.292z M199.586,361.799l2.828,2.828l-0.089,0.069l-2.9-2.897H199.586z
				 M199.744,329.223l0.149,0.148l-0.08,0.079l-0.229-0.229h0.16V329.223z M199.746,345.14l0.146,0.147l-0.08,0.078l-0.227-0.227
				L199.746,345.14L199.746,345.14z M200.035,361.799l2.617,2.615l-0.08,0.077l-2.693-2.692H200.035z M200.037,342.705l1.217,1.217
				l-0.079,0.08l-1.137-1.138L200.037,342.705z M200.037,343.159l0.99,0.99l-0.079,0.08l-0.911-0.911V343.159z M200.037,343.613
				l0.764,0.764l-0.08,0.08l-0.684-0.684V343.613z M200.038,344.068l0.536,0.535l-0.081,0.08l-0.457-0.456L200.038,344.068z
				 M200.038,341.793l1.673,1.674l-0.08,0.082l-1.593-1.594V341.793z M200.038,342.25l1.444,1.445l-0.08,0.079l-1.364-1.364V342.25z
				 M200.038,344.522l0.31,0.31l-0.082,0.08l-0.228-0.229V344.522z M200.038,344.978l0.082,0.081l-0.082,0.08V344.978z
				 M200.194,341.653h0.16l1.587,1.585l-0.08,0.08L200.194,341.653z M200.648,341.653h0.16l1.358,1.358l-0.08,0.08L200.648,341.653z
				 M201.102,341.653h0.162l1.131,1.132l-0.08,0.08L201.102,341.653z M201.557,341.653h0.16l0.903,0.904l-0.08,0.079
				L201.557,341.653z M202.012,341.653h0.158l0.678,0.679l-0.08,0.08L202.012,341.653z M202.465,341.655h0.16l0.449,0.449
				l-0.08,0.08L202.465,341.655z M202.92,341.655h0.159l0.224,0.222l-0.082,0.08L202.92,341.655z M203.374,341.655h0.149
				l-0.074,0.074L203.374,341.655z"/>
			<path fill="#1C5031" d="M210.229,365.199l0.08,0.08h-0.158L210.229,365.199z M210.457,364.973l0.307,0.307h-0.162l-0.227-0.227
				L210.457,364.973z M210.684,364.746l0.534,0.534h-0.161l-0.453-0.454L210.684,364.746z M210.91,364.52l0.761,0.761h-0.159
				l-0.682-0.681L210.91,364.52z M211.137,364.291l0.987,0.989h-0.16l-0.907-0.907L211.137,364.291z M211.363,364.065l1.215,1.214
				h-0.161l-1.134-1.135L211.363,364.065z M211.591,363.838l1.44,1.44h-0.16l-1.361-1.36L211.591,363.838z M211.816,363.61
				l1.668,1.669h-0.158l-1.59-1.589L211.816,363.61z M212.046,363.381l1.896,1.897h-0.162l-1.814-1.815L212.046,363.381z
				 M212.271,363.156l2.121,2.121h-0.16l-2.043-2.042L212.271,363.156z M212.498,362.928l2.35,2.35h-0.158l-2.271-2.27
				L212.498,362.928z M212.727,362.701l2.576,2.576h-0.16l-2.496-2.496L212.727,362.701z M212.953,362.473l2.803,2.805h-0.16
				l-2.723-2.725L212.953,362.473z M213.18,362.248l3.03,3.029h-0.159l-2.951-2.951L213.18,362.248z M213.407,362.021l3.258,3.257
				h-0.16l-3.179-3.178L213.407,362.021z M213.634,361.795l3.485,3.484h-0.159l-3.405-3.404L213.634,361.795z M213.797,329.227
				l3.485,3.484h-0.161l-3.484-3.484H213.797z M213.799,345.142l3.485,3.485h-0.162l-3.483-3.485H213.799z M213.928,361.795h0.161
				l3.486,3.484h-0.161L213.928,361.795z M214.252,329.227l3.484,3.484h-0.161l-3.485-3.484H214.252z M214.253,345.142l3.485,3.485
				h-0.161l-3.485-3.485H214.253z M214.384,361.795h0.159l3.484,3.485h-0.158L214.384,361.795z M214.706,329.227l3.485,3.484h-0.162
				l-3.484-3.484H214.706z M214.708,345.142l3.485,3.485h-0.162l-3.484-3.485H214.708z M214.838,361.795h0.16l3.486,3.485h-0.161
				L214.838,361.795z M215.161,329.227l3.483,3.484h-0.16l-3.485-3.484H215.161z M215.162,345.142l3.482,3.485h-0.158l-3.485-3.485
				H215.162z M215.293,361.795h0.161l3.483,3.484h-0.16L215.293,361.795z M215.613,329.227l3.484,3.484h-0.158l-3.485-3.484H215.613
				z M215.615,345.142l3.484,3.485h-0.16l-3.483-3.485H215.615z M215.747,361.795h0.16l3.485,3.484h-0.162L215.747,361.795z
				 M216.068,329.227l3.484,3.484h-0.16l-3.484-3.484H216.068z M216.07,345.142l3.484,3.485h-0.16l-3.484-3.485H216.07z
				 M216.202,361.795h0.161l3.482,3.484h-0.16L216.202,361.795z M216.521,329.227l3.485,3.484h-0.161l-3.482-3.484H216.521z
				 M216.523,345.142l3.485,3.485h-0.161l-3.482-3.485H216.523z M216.656,361.797h0.16l3.484,3.482h-0.162L216.656,361.797z
				 M216.979,329.227l3.484,3.484h-0.161l-3.485-3.484H216.979z M216.979,345.142l3.484,3.485h-0.161l-3.485-3.485H216.979z
				 M217.111,361.797h0.16l3.481,3.482h-0.159L217.111,361.797z M217.432,329.227l3.332,3.33l-0.08,0.08l-3.41-3.41H217.432
				L217.432,329.227z M217.434,345.142l3.328,3.327l-0.08,0.08l-3.406-3.407H217.434L217.434,345.142z M217.566,361.797h0.16
				l3.481,3.482h-0.16L217.566,361.797z M217.887,329.227l3.104,3.102l-0.08,0.08l-3.184-3.184L217.887,329.227z M217.889,345.142
				l3.102,3.099l-0.082,0.08l-3.182-3.181L217.889,345.142z M218.021,361.799h0.16l3.48,3.48h-0.159L218.021,361.799z
				 M218.341,329.225l2.876,2.876l-0.078,0.08l-2.957-2.956H218.341z M218.343,345.14l2.873,2.875l-0.079,0.079l-2.953-2.952
				L218.343,345.14z M218.477,361.799h0.162l3.479,3.48h-0.16L218.477,361.799z M218.796,329.225l2.649,2.646l-0.08,0.08
				l-2.729-2.728L218.796,329.225L218.796,329.225z M218.798,345.142l2.646,2.646l-0.08,0.08l-2.725-2.726H218.798L218.798,345.142z
				 M219.094,361.797l3.48,3.479h-0.161l-3.479-3.479H219.094z M219.252,329.225l2.42,2.421l-0.08,0.08l-2.501-2.501H219.252
				L219.252,329.225z M219.252,345.142l2.418,2.418l-0.08,0.08l-2.499-2.5L219.252,345.142z M219.549,361.797l3.479,3.479h-0.159
				l-3.479-3.479H219.549z M219.705,329.225l2.193,2.193l-0.078,0.078l-2.275-2.271H219.705z M219.707,345.14l2.191,2.192
				l-0.082,0.078l-2.271-2.271H219.707z M220.002,361.797l3.479,3.479h-0.158l-3.48-3.479H220.002z M220.159,329.225l1.967,1.967
				l-0.079,0.08L220,329.225H220.159z M220.161,345.14l1.964,1.966l-0.08,0.079L220,345.14H220.161z M220.456,361.797l3.479,3.479
				h-0.16l-3.479-3.479H220.456z M220.613,329.225l1.74,1.738l-0.08,0.08l-1.819-1.82L220.613,329.225z M220.616,345.14l1.735,1.737
				l-0.08,0.08l-1.817-1.817H220.616z M220.911,361.797l3.479,3.479h-0.162l-3.479-3.479H220.911z M221.068,329.223l1.513,1.513
				l-0.08,0.081l-1.592-1.594H221.068z M221.07,345.14l1.509,1.511l-0.08,0.08l-1.59-1.591H221.07L221.07,345.14z M221.365,361.797
				l3.471,3.471l-0.15,0.008l-3.479-3.479H221.365z M221.523,329.223l1.285,1.285l-0.08,0.08l-1.365-1.365H221.523L221.523,329.223z
				 M221.525,345.14l1.281,1.282l-0.08,0.082l-1.363-1.364H221.525z M221.82,361.797l3.412,3.412l-0.135,0.026l-3.438-3.438H221.82z
				 M221.979,329.223l1.058,1.058l-0.079,0.082l-1.139-1.14H221.979z M221.979,345.14l1.056,1.057l-0.08,0.079l-1.134-1.136H221.979
				L221.979,345.14z M222.273,361.797l3.314,3.314l-0.121,0.039l-3.354-3.354H222.273z M222.434,329.223l0.83,0.83l-0.08,0.08
				l-0.91-0.91H222.434L222.434,329.223z M222.436,345.14l0.826,0.827l-0.08,0.08l-0.906-0.907H222.436z M222.729,361.797
				l3.183,3.183l-0.11,0.05l-3.23-3.23L222.729,361.797z M222.887,329.223l0.604,0.604l-0.08,0.079l-0.683-0.683H222.887z
				 M222.889,345.14l0.601,0.602l-0.08,0.08l-0.679-0.682H222.889L222.889,345.14z M223.184,361.799l3.019,3.018l-0.101,0.061
				l-3.076-3.078H223.184L223.184,361.799z M223.342,329.223l0.376,0.377l-0.079,0.078l-0.457-0.455H223.342L223.342,329.223z
				 M223.344,345.14l0.373,0.374l-0.08,0.078l-0.453-0.452H223.344z M223.639,361.799l2.828,2.828l-0.09,0.069l-2.9-2.897H223.639z
				 M223.796,329.223l0.149,0.148l-0.079,0.079l-0.229-0.229h0.159V329.223z M223.798,345.14l0.146,0.147l-0.078,0.078l-0.227-0.227
				L223.798,345.14L223.798,345.14z M224.088,361.799l2.617,2.615l-0.08,0.077l-2.693-2.692H224.088z M224.09,342.705l1.217,1.217
				l-0.08,0.08l-1.137-1.138V342.705z M224.09,343.159l0.99,0.99l-0.08,0.08l-0.91-0.911V343.159z M224.09,343.613l0.764,0.764
				l-0.08,0.08l-0.684-0.684V343.613z M224.09,344.068l0.536,0.535l-0.08,0.08l-0.456-0.456V344.068z M224.09,341.793l1.674,1.674
				l-0.08,0.082l-1.594-1.594V341.793L224.09,341.793z M224.09,342.25l1.445,1.445l-0.08,0.079l-1.365-1.364V342.25z
				 M224.09,344.522l0.311,0.31l-0.082,0.08l-0.229-0.229V344.522z M224.09,344.978l0.081,0.081l-0.081,0.08V344.978z
				 M224.246,341.653h0.158l1.589,1.585l-0.08,0.08L224.246,341.653z M224.7,341.653h0.159l1.358,1.358l-0.079,0.08L224.7,341.653z
				 M225.152,341.653h0.162l1.131,1.132l-0.079,0.08L225.152,341.653z M225.607,341.653h0.162l0.901,0.904l-0.079,0.079
				L225.607,341.653z M226.062,341.653h0.16l0.678,0.679l-0.08,0.08L226.062,341.653z M226.518,341.655h0.159l0.45,0.449l-0.08,0.08
				L226.518,341.655z M226.973,341.655h0.159l0.224,0.222l-0.082,0.08L226.973,341.655z M227.427,341.655h0.149l-0.074,0.074
				L227.427,341.655z"/>
			<path fill="#1C5031" d="M231.995,365.197l0.114,0.082h-0.172L231.995,365.197z M232.223,364.973l0.34,0.307h-0.17l-0.227-0.227
				L232.223,364.973z M232.45,364.744l0.565,0.536h-0.17l-0.453-0.454L232.45,364.744z M232.677,364.518l0.794,0.762h-0.17
				l-0.682-0.682L232.677,364.518z M232.902,364.291l1.021,0.988h-0.172l-0.906-0.908L232.902,364.291z M233.129,364.062
				l1.237,1.218h-0.158l-1.134-1.136L233.129,364.062z M233.355,363.836l1.463,1.443h-0.159l-1.36-1.363L233.355,363.836z
				 M233.582,363.607l1.691,1.672h-0.16l-1.588-1.593L233.582,363.607z M233.809,363.379l1.92,1.899h-0.16l-1.814-1.819
				L233.809,363.379z M234.037,363.151l2.146,2.128h-0.162l-2.043-2.047L234.037,363.151z M234.283,362.924l2.354,2.354h-0.162
				l-2.27-2.274L234.283,362.924z M234.51,362.696l2.582,2.583h-0.16l-2.502-2.503L234.51,362.696z M234.734,362.467l2.811,2.812
				h-0.16l-2.73-2.73L234.734,362.467z M234.962,362.24l3.037,3.037h-0.161l-2.957-2.957L234.962,362.24z M235.188,362.012
				l3.267,3.266h-0.161l-3.184-3.186L235.188,362.012z M235.407,361.793l3.485,3.484h-0.145l-3.414-3.414L235.407,361.793z
				 M236.885,355.525l3.202,3.203h-0.16l-3.202-3.203H236.885z M237.338,355.525l3.203,3.202h-0.161l-3.202-3.202H237.338z
				 M237.792,355.525l3.202,3.202h-0.16l-3.203-3.202H237.792z M238.247,355.525l3.202,3.202h-0.162l-3.201-3.202H238.247z
				 M238.701,355.525l3.199,3.2h-0.158l-3.202-3.2H238.701z M239.154,355.525l3.201,3.2h-0.16l-3.2-3.202L239.154,355.525z
				 M239.609,355.523l3.201,3.202h-0.162l-3.199-3.202H239.609z M240.062,355.523l3.201,3.2h-0.16l-3.199-3.2H240.062z
				 M240.52,355.523l3.199,3.2h-0.162l-3.199-3.2H240.52z M240.973,355.523l3.198,3.2h-0.159l-3.199-3.2H240.973z M241.428,355.523
				l3.105,3.105l-0.08,0.08l-3.186-3.187L241.428,355.523L241.428,355.523z M241.882,355.523l2.878,2.878l-0.08,0.081l-2.957-2.959
				H241.882L241.882,355.523z M242.337,355.523l2.649,2.65l-0.078,0.08l-2.731-2.73H242.337z M242.791,355.523l2.423,2.423
				l-0.079,0.08l-2.503-2.503H242.791z M243.246,355.523l2.195,2.197l-0.08,0.078l-2.275-2.275H243.246z M243.7,355.523l1.969,1.969
				l-0.08,0.08l-2.048-2.049H243.7L243.7,355.523z M244.154,355.523l1.742,1.74l-0.082,0.08l-1.819-1.821L244.154,355.523z
				 M244.609,355.522l1.514,1.515l-0.079,0.08l-1.594-1.595H244.609z M245.064,355.522l1.285,1.287l-0.08,0.08l-1.367-1.367H245.064
				L245.064,355.522z M245.52,355.522l1.058,1.06l-0.08,0.08l-1.14-1.14H245.52L245.52,355.522z M245.516,365.205l0.075,0.072
				h-0.147L245.516,365.205z M245.744,364.976l0.301,0.302h-0.161l-0.22-0.22L245.744,364.976z M245.975,355.522l0.83,0.831
				l-0.082,0.079l-0.91-0.912L245.975,355.522z M245.973,364.75l0.527,0.529h-0.161l-0.448-0.447L245.973,364.75z M246.198,364.522
				l0.756,0.757h-0.161l-0.675-0.677L246.198,364.522z M246.427,355.521l0.604,0.604l-0.08,0.08l-0.686-0.686L246.427,355.521
				L246.427,355.521z M246.425,364.295l0.984,0.981h-0.161l-0.902-0.901L246.425,364.295z M246.652,364.068l1.211,1.209h-0.161
				l-1.129-1.129L246.652,364.068z M246.881,355.521l0.377,0.377l-0.08,0.081l-0.455-0.458H246.881z M246.879,363.84l1.438,1.438
				h-0.158l-1.357-1.357L246.879,363.84z M247.105,363.612l1.666,1.665h-0.162l-1.584-1.584L247.105,363.612z M247.336,355.521
				l0.148,0.149l-0.08,0.08l-0.229-0.229H247.336z M247.334,363.385l1.893,1.893h-0.162l-1.812-1.812L247.334,363.385z
				 M247.561,363.157l2.121,2.12h-0.162l-2.039-2.038L247.561,363.157z M247.788,362.931l2.347,2.347h-0.16l-2.266-2.268
				L247.788,362.931z M248.016,362.703l2.574,2.574h-0.162l-2.492-2.495L248.016,362.703z M248.241,362.477l2.801,2.801h-0.159
				l-2.721-2.721L248.241,362.477z M248.471,362.248l3.026,3.027h-0.161l-2.947-2.947L248.471,362.248z M248.695,362.021
				l3.256,3.254h-0.161l-3.174-3.174L248.695,362.021z M248.924,361.795l3.482,3.48h-0.16l-3.403-3.402L248.924,361.795z"/>
			<path fill="#1C5031" d="M257.354,365.266l0.08-0.081l0.084,0.085h-0.158L257.354,365.266z M257.581,365.034l0.081-0.081
				l0.312,0.312h-0.162L257.581,365.034z M257.809,364.808l0.08-0.081l0.538,0.539h-0.159L257.809,364.808z M258.037,364.578
				l0.08-0.08l0.764,0.766h-0.158L258.037,364.578z M258.264,364.352l0.08-0.08l0.99,0.99h-0.159L258.264,364.352z M258.49,364.125
				l0.08-0.08l1.219,1.219h-0.16L258.49,364.125z M258.718,363.897l0.08-0.08l1.445,1.445h-0.159L258.718,363.897z M258.943,363.67
				l0.08-0.08l1.675,1.674h-0.16L258.943,363.67z M259.171,363.442l0.08-0.08l1.901,1.901h-0.161L259.171,363.442z M259.398,363.215
				l0.08-0.078l2.129,2.127h-0.162L259.398,363.215z M259.626,362.989l0.081-0.079l2.354,2.354h-0.16L259.626,362.989z
				 M259.854,362.762l0.08-0.082l2.584,2.582h-0.162L259.854,362.762z M260.082,362.533l0.08-0.08l2.809,2.811h-0.158
				L260.082,362.533z M260.307,362.315l0.08-0.08l3.037,3.037h-0.16L260.307,362.315z M260.535,362.086l0.08-0.08l3.263,3.265
				h-0.161L260.535,362.086z M260.762,361.858l0.079-0.079l3.492,3.491h-0.161L260.762,361.858z M261.016,329.234l3.491,3.491
				h-0.159l-3.492-3.491H261.016z M261.02,345.144l3.396,3.396l-0.073,0.088l-3.48-3.482L261.02,345.144L261.02,345.144z
				 M261.471,329.234l3.491,3.491h-0.16l-3.491-3.491H261.471z M264.62,348.291l-3.146-3.146h-0.162l3.234,3.234L264.62,348.291z
				 M261.927,329.234l3.491,3.491h-0.161l-3.491-3.491H261.927z M261.928,345.144l2.897,2.896l-0.072,0.088l-2.983-2.983H261.928z
				 M262.381,329.234l3.492,3.491h-0.162l-3.49-3.491H262.381z M262.383,345.144l2.646,2.649l-0.07,0.086l-2.736-2.735H262.383z
				 M262.834,329.234l3.493,3.491h-0.161l-3.492-3.491H262.834z M262.837,345.144l2.397,2.399l-0.07,0.088l-2.488-2.487H262.837z
				 M263.288,329.234l3.491,3.491h-0.159l-3.493-3.491H263.288z M263.292,345.142l2.149,2.149l-0.072,0.09l-2.238-2.239H263.292
				L263.292,345.142z M263.745,329.234l3.491,3.491h-0.161l-3.492-3.491H263.745z M263.746,345.144l1.9,1.901l-0.07,0.088
				l-1.991-1.989H263.746z M264.197,329.234l3.492,3.491h-0.16l-3.491-3.491H264.197z M264.201,345.144l1.652,1.653l-0.072,0.088
				l-1.741-1.741H264.201L264.201,345.144z M264.652,329.234l3.416,3.415l-0.084,0.076l-3.492-3.491H264.652z M264.654,345.144
				l1.406,1.403l-0.074,0.088l-1.492-1.491H264.654z M265.105,329.234l3.189,3.188l-0.08,0.08l-3.27-3.268H265.105z
				 M265.107,345.144l1.158,1.155l-0.074,0.088l-1.242-1.243H265.107z M265.562,329.234l2.961,2.959l-0.08,0.081l-3.043-3.04
				H265.562z M265.564,345.144l0.906,0.907l-0.072,0.088l-0.996-0.995H265.564L265.564,345.144z M266.016,329.234l2.732,2.73
				l-0.079,0.082l-2.812-2.812H266.016z M266.02,345.144l0.656,0.657l-0.07,0.089l-0.746-0.746H266.02z M266.471,329.232
				l2.504,2.506l-0.078,0.08l-2.586-2.584L266.471,329.232z M266.473,345.144l0.408,0.409l-0.07,0.088l-0.498-0.497H266.473z
				 M266.925,329.232l2.276,2.277l-0.079,0.08l-2.358-2.357H266.925z M266.927,345.144l0.161,0.159l-0.072,0.088l-0.248-0.247
				H266.927z M267.38,329.234l2.048,2.048l-0.08,0.082l-2.127-2.13H267.38z M267.223,345.144h0.159l0.951,0.948L267.223,345.144z
				 M267.834,329.234l1.822,1.82l-0.08,0.08l-1.903-1.9H267.834z M267.836,345.144l3.492,3.491h-0.023l-0.947-0.812l-2.681-2.68
				L267.836,345.144L267.836,345.144z M268.289,329.234l1.594,1.594l-0.08,0.081l-1.674-1.675H268.289z M268.291,345.144
				l3.491,3.491h-0.161l-3.492-3.491H268.291z M268.743,329.234l1.366,1.365l-0.08,0.08l-1.447-1.445H268.743L268.743,329.234z
				 M268.745,345.14l3.479,3.479c-0.051,0.006-0.101,0.008-0.15,0.01l-3.488-3.489H268.745z M269.195,329.234l1.141,1.139
				l-0.08,0.08l-1.219-1.219H269.195z M269.201,345.137l3.422,3.422c-0.044,0.01-0.09,0.018-0.135,0.025l-3.448-3.449
				L269.201,345.137z M269.205,365.271l0.057-0.071l0.07,0.071H269.205z M269.395,365.039l0.071-0.09l0.32,0.321h-0.159
				L269.395,365.039z M269.652,329.234l0.91,0.911l-0.08,0.079l-0.991-0.99H269.652L269.652,329.234z M269.656,345.135l3.322,3.322
				c-0.039,0.015-0.08,0.027-0.121,0.041l-3.362-3.363H269.656L269.656,345.135z M269.598,364.787l0.071-0.088l0.572,0.571h-0.16
				L269.598,364.787z M269.801,364.537l0.072-0.089l0.822,0.822h-0.159L269.801,364.537z M270.105,329.234l0.683,0.684l-0.079,0.08
				l-0.764-0.764H270.105z M270.109,345.135l3.188,3.188c-0.034,0.019-0.073,0.034-0.108,0.05l-3.24-3.238H270.109L270.109,345.135z
				 M270.005,364.285l0.071-0.088l1.074,1.073h-0.161L270.005,364.285z M270.208,364.034l0.071-0.088l1.324,1.324h-0.16
				L270.208,364.034z M270.561,329.234l0.457,0.454l-0.082,0.082l-0.535-0.536H270.561z M270.562,345.137l3.027,3.025
				c-0.033,0.021-0.066,0.04-0.102,0.061l-3.086-3.086H270.562z M270.412,363.783l0.07-0.088l1.576,1.575h-0.16L270.412,363.783z
				 M270.615,363.532l0.072-0.09l1.826,1.827h-0.16L270.615,363.532z M270.818,363.281l0.072-0.09l2.077,2.078h-0.159
				L270.818,363.281z M271.018,329.234l0.227,0.227l-0.08,0.082l-0.309-0.309H271.018L271.018,329.234z M271.02,345.135l2.836,2.839
				c-0.029,0.022-0.06,0.047-0.09,0.069l-2.906-2.906L271.02,345.135z M271.023,363.03l0.07-0.088l2.328,2.327h-0.16L271.023,363.03
				z M271.227,362.779l0.072-0.09l2.579,2.58h-0.16L271.227,362.779z M271.391,329.314l-0.08-0.08h0.157L271.391,329.314z
				 M273.34,347.006l0.756,0.758c-0.027,0.025-0.055,0.052-0.082,0.078l-2.699-2.702h0.153L273.34,347.006z M271.432,362.528
				l0.07-0.088l2.83,2.829h-0.161L271.432,362.528z M271.634,362.277l0.072-0.088l3.081,3.08h-0.161L271.634,362.277z
				 M271.838,362.026l0.071-0.089l3.332,3.332h-0.159L271.838,362.026z M272.066,361.801l1.08,0.922l2.549,2.547h-0.16
				L272.066,361.801z M275.989,365.27l-0.863-0.862l1.015,0.862H275.989z"/>
			<path fill="#1C5031" d="M281.938,365.195l0.078,0.079h-0.158L281.938,365.195z M282.163,364.967l0.308,0.308h-0.16l-0.228-0.226
				L282.163,364.967z M282.391,364.741l0.531,0.533h-0.158l-0.453-0.452L282.391,364.741z M282.617,364.515l0.76,0.76h-0.161
				l-0.68-0.679L282.617,364.515z M282.844,364.289l0.986,0.985h-0.162l-0.904-0.906L282.844,364.289z M283.07,364.062l1.213,1.213
				h-0.162l-1.132-1.133L283.07,364.062z M283.297,363.836l1.439,1.438h-0.16l-1.359-1.358L283.297,363.836z M283.525,363.607
				l1.666,1.667h-0.162l-1.586-1.588L283.525,363.607z M283.752,363.381l1.895,1.895h-0.16l-1.813-1.814L283.752,363.381z
				 M283.979,363.152l2.123,2.123h-0.16l-2.043-2.041L283.979,363.152z M284.206,362.926l2.351,2.35h-0.162l-2.27-2.27
				L284.206,362.926z M284.434,362.698l2.576,2.577h-0.16l-2.496-2.496L284.434,362.698z M284.661,362.472l2.804,2.804h-0.16
				l-2.726-2.725L284.661,362.472z M284.887,362.243l3.031,3.032h-0.16l-2.951-2.952L284.887,362.243z M285.113,362.017l3.259,3.259
				h-0.159l-3.179-3.179L285.113,362.017z M285.34,361.793l3.485,3.484h-0.159l-3.407-3.404L285.34,361.793L285.34,361.793z
				 M285.498,329.215l3.484,3.484h-0.158l-3.485-3.484H285.498z M285.795,361.793l3.484,3.484h-0.16l-3.485-3.484H285.795z
				 M285.939,329.215l3.484,3.484h-0.158l-3.486-3.484H285.939z M286.249,361.793l3.485,3.484h-0.159l-3.487-3.484H286.249z
				 M286.395,329.215l3.485,3.484h-0.162l-3.483-3.484H286.395z M286.702,361.793l3.487,3.484h-0.16l-3.486-3.484H286.702z
				 M286.85,329.215l3.484,3.484h-0.161l-3.485-3.484H286.85z M287.158,361.793l3.484,3.484h-0.158l-3.487-3.484H287.158z
				 M287.305,329.215l3.484,3.484h-0.162l-3.484-3.484H287.305z M287.613,361.793l3.484,3.484h-0.16l-3.485-3.484H287.613z
				 M287.758,329.215l3.485,3.484h-0.161l-3.484-3.484H287.758z M288.066,361.793l3.485,3.484h-0.159l-3.486-3.484H288.066z
				 M288.211,329.215l3.484,3.484h-0.159l-3.484-3.484H288.211z M288.521,361.793l3.485,3.484h-0.159l-3.486-3.484H288.521z
				 M288.666,329.215l3.484,3.484h-0.159l-3.485-3.484H288.666z M288.977,361.793l3.485,3.484h-0.161l-3.484-3.484H288.977z
				 M289.12,329.215l3.337,3.336l-0.08,0.08l-3.416-3.418L289.12,329.215z M289.43,361.793l3.485,3.484h-0.159l-3.484-3.484H289.43z
				 M289.575,329.213l3.108,3.109l-0.08,0.08l-3.19-3.189H289.575L289.575,329.213z M289.885,361.793l3.484,3.484h-0.159
				l-3.485-3.484H289.885z M290.029,329.213l2.883,2.884l-0.08,0.079l-2.962-2.963H290.029z M290.339,361.793l3.487,3.484h-0.162
				l-3.486-3.484H290.339z M290.484,329.213l2.654,2.656l-0.078,0.079l-2.736-2.735H290.484z M290.797,361.791l3.485,3.484h-0.161
				l-3.485-3.484H290.797z M290.938,329.213l2.429,2.428l-0.08,0.08l-2.507-2.508H290.938z M291.252,361.791l3.484,3.484h-0.161
				l-3.485-3.484H291.252z M291.395,329.213l2.201,2.201l-0.08,0.079l-2.281-2.28H291.395L291.395,329.213z M291.706,361.791
				l3.483,3.484h-0.16l-3.484-3.484H291.706z M291.848,329.213l1.975,1.974l-0.08,0.08l-2.053-2.054H291.848z M292.159,361.791
				l3.485,3.484h-0.16l-3.485-3.484H292.159z M292.303,329.213l1.746,1.746l-0.08,0.08l-1.826-1.826H292.303z M292.613,361.791
				l3.484,3.484h-0.158l-3.485-3.484H292.613z M292.757,329.213l1.519,1.519l-0.08,0.08l-1.598-1.601L292.757,329.213z
				 M293.068,361.791l3.476,3.476c-0.051,0.005-0.103,0.007-0.153,0.009l-3.481-3.484H293.068L293.068,361.791z M293.212,329.211
				l1.292,1.293l-0.08,0.078l-1.372-1.371H293.212z M293.521,361.791l3.42,3.418c-0.045,0.01-0.09,0.019-0.137,0.025l-3.443-3.443
				H293.521z M293.666,329.211l1.064,1.063l-0.078,0.082l-1.146-1.146H293.666L293.666,329.211z M293.979,361.791l3.317,3.318
				c-0.04,0.014-0.079,0.027-0.12,0.041l-3.359-3.359H293.979z M294.122,329.211l0.836,0.838l-0.08,0.08l-0.917-0.918H294.122z
				 M294.432,361.791l3.187,3.186c-0.037,0.02-0.073,0.033-0.11,0.051l-3.236-3.236H294.432L294.432,361.791z M294.575,329.211
				l0.61,0.609l-0.08,0.079l-0.689-0.688H294.575L294.575,329.211z M294.887,361.791l3.021,3.021
				c-0.032,0.021-0.065,0.041-0.1,0.062l-3.082-3.084H294.887z M295.031,329.211l0.383,0.383l-0.079,0.08l-0.465-0.463H295.031z
				 M295.341,361.793l2.832,2.832c-0.028,0.021-0.062,0.047-0.09,0.069l-2.903-2.901H295.341z M295.486,329.211l0.154,0.154
				l-0.08,0.08l-0.235-0.236L295.486,329.211z M295.796,361.793l2.616,2.616c-0.025,0.027-0.055,0.054-0.081,0.078l-2.696-2.694
				H295.796z M295.797,329.211l-0.008,0.01l-0.01-0.01H295.797z"/>
			<path fill="#1C5031" d="M318.458,365.194l0.08,0.08l-0.151-0.009L318.458,365.194z M318.685,364.967l0.308,0.308h-0.16
				l-0.226-0.228L318.685,364.967z M318.911,364.741l0.533,0.533h-0.16l-0.453-0.453L318.911,364.741z M319.138,364.515l0.761,0.76
				h-0.16l-0.681-0.681L319.138,364.515z M319.366,364.287l0.984,0.987h-0.16l-0.906-0.908L319.366,364.287z M319.591,364.061
				l1.214,1.214h-0.16l-1.134-1.133L319.591,364.061z M319.819,363.834l1.438,1.44h-0.161l-1.357-1.36L319.819,363.834z
				 M320.047,363.605l1.667,1.669h-0.16l-1.588-1.589L320.047,363.605z M320.273,363.379l1.895,1.896h-0.159l-1.814-1.815
				L320.273,363.379z M320.502,363.152l2.123,2.122h-0.162l-2.043-2.042L320.502,363.152z M320.729,362.924l2.35,2.351h-0.159
				l-2.27-2.269L320.729,362.924z M320.956,362.698l2.576,2.576h-0.16l-2.496-2.497L320.956,362.698z M321.185,362.472l2.805,2.804
				h-0.161l-2.726-2.725L321.185,362.472z M321.411,362.243l3.032,3.032h-0.162l-2.95-2.952L321.411,362.243z M321.639,362.017
				l3.26,3.259h-0.161l-3.18-3.179L321.639,362.017z M321.875,361.793l3.482,3.482h-0.155l-3.407-3.404L321.875,361.793z"/>
			<path fill="#1C5031" d="M332.192,365.19l0.079,0.08h-0.157L332.192,365.19z M332.42,364.965l0.307,0.306h-0.16l-0.226-0.228
				L332.42,364.965z M332.648,364.738l0.532,0.532h-0.159l-0.453-0.453L332.648,364.738z M332.875,364.51l0.761,0.761h-0.159
				l-0.682-0.681L332.875,364.51z M333.103,364.283l0.988,0.987h-0.16l-0.906-0.907L333.103,364.283z M333.331,364.056l1.216,1.215
				h-0.161l-1.135-1.136L333.331,364.056z M333.558,363.828l1.443,1.442h-0.161l-1.362-1.362L333.558,363.828z M333.786,363.601
				l1.67,1.67h-0.161l-1.589-1.59L333.786,363.601z M334.014,363.375l1.896,1.896h-0.159l-1.817-1.815L334.014,363.375z
				 M334.242,363.146l2.123,2.123h-0.16l-2.045-2.044L334.242,363.146z M334.469,362.918l2.352,2.353h-0.159L334.39,363
				L334.469,362.918z M334.696,362.691l2.579,2.578h-0.161l-2.498-2.498L334.696,362.691z M334.923,362.463l2.806,2.807h-0.158
				l-2.728-2.727L334.923,362.463z M335.151,362.237l3.032,3.032h-0.16l-2.952-2.953L335.151,362.237z M335.378,362.008l3.262,3.262
				h-0.161l-3.181-3.182L335.378,362.008z M335.603,361.784l3.485,3.485h-0.155l-3.406-3.407L335.603,361.784z M342.645,365.189
				l0.081,0.081h-0.16L342.645,365.189z M342.873,364.963l0.308,0.308h-0.161l-0.227-0.228L342.873,364.963z M343.101,364.736
				l0.534,0.534h-0.159l-0.454-0.454L343.101,364.736z M343.327,364.508l0.763,0.763h-0.161l-0.682-0.683L343.327,364.508z
				 M343.556,364.281l0.99,0.989h-0.161l-0.909-0.909L343.556,364.281z M343.783,364.053l1.217,1.218h-0.161l-1.136-1.136
				L343.783,364.053z M344.012,363.828l1.443,1.442h-0.161l-1.364-1.363L344.012,363.828z M344.239,363.599l1.671,1.672h-0.16
				l-1.592-1.59L344.239,363.599z M344.466,363.371l1.898,1.899h-0.159l-1.818-1.817L344.466,363.371z M344.694,363.145l2.124,2.125
				h-0.159l-2.047-2.045L344.694,363.145z M344.921,362.916l2.354,2.354h-0.16L344.842,363L344.921,362.916z M345.148,362.689
				l2.58,2.58h-0.16l-2.499-2.5L345.148,362.689z M345.377,362.461l2.806,2.809h-0.158l-2.729-2.729L345.377,362.461z
				 M345.604,362.233l3.033,3.036h-0.159l-2.953-2.954L345.604,362.233z M345.83,362.006l3.262,3.264h-0.16l-3.182-3.184
				L345.83,362.006z M346.053,361.784l3.483,3.485h-0.149l-3.407-3.409L346.053,361.784z"/>
			<path fill="#1C5031" d="M357.325,364.291l0.692,0.693l-0.378-0.217l-0.396-0.396L357.325,364.291z M357.552,364.063l1.151,1.151
				l-0.213-0.055l-1.02-1.018L357.552,364.063z M357.779,363.836l1.438,1.438l-0.171-0.01l-1.348-1.348L357.779,363.836z
				 M358.006,363.608l1.667,1.666h-0.16l-1.588-1.586L358.006,363.608z M358.232,363.381l1.895,1.894h-0.161l-1.812-1.813
				L358.232,363.381z M358.461,363.152l2.121,2.122h-0.161l-2.042-2.04L358.461,363.152z M358.688,362.926l2.35,2.349h-0.161
				l-2.268-2.269L358.688,362.926z M358.913,362.699l2.576,2.575h-0.159l-2.496-2.495L358.913,362.699z M359.142,362.472
				l2.805,2.803h-0.161l-2.724-2.724L359.142,362.472z M359.368,362.243l3.032,3.031h-0.161l-2.951-2.949L359.368,362.243z
				 M359.597,362.017l3.257,3.258h-0.159l-3.178-3.179L359.597,362.017z M359.824,361.791l3.484,3.483h-0.16l-3.405-3.403
				L359.824,361.791z M359.979,329.228l3.484,3.485h-0.161l-3.482-3.485H359.979z M360.279,361.791l3.483,3.483h-0.161l-3.484-3.483
				H360.279z M360.434,329.228l3.485,3.485h-0.161l-3.484-3.485H360.434z M360.733,361.791l3.484,3.483h-0.161l-3.484-3.483H360.733
				z M360.889,329.228l3.484,3.485h-0.161l-3.485-3.485H360.889z M361.188,361.791l3.483,3.483h-0.16l-3.484-3.483H361.188z
				 M361.343,329.228l3.483,3.485h-0.159l-3.485-3.485H361.343z M361.641,361.791l3.485,3.483h-0.159l-3.484-3.483H361.641z
				 M361.796,329.228l3.485,3.485h-0.16l-3.485-3.485H361.796z M362.096,361.791l3.485,3.483h-0.16l-3.485-3.483H362.096z
				 M362.25,329.228l3.485,3.485h-0.159l-3.485-3.485H362.25z M362.55,361.791l3.485,3.483h-0.161l-3.483-3.483H362.55z
				 M362.705,329.228l3.485,3.485h-0.16l-3.485-3.485H362.705z M363.005,361.791l3.485,3.483h-0.161l-3.485-3.483H363.005z
				 M363.159,329.228l3.484,3.485h-0.16l-3.485-3.485H363.159z M363.459,361.791l3.485,3.483h-0.161l-3.485-3.483H363.459z
				 M363.614,329.228l3.33,3.331l-0.079,0.078l-3.412-3.409H363.614z M363.914,361.791l3.485,3.483h-0.161l-3.485-3.483H363.914z
				 M364.068,329.228l3.103,3.104l-0.08,0.078l-3.182-3.184L364.068,329.228L364.068,329.228z M364.367,361.791l3.484,3.483h-0.159
				l-3.485-3.483H364.367z M364.523,329.228l2.876,2.876l-0.08,0.08l-2.956-2.956H364.523z M364.821,361.791l3.484,3.483h-0.158
				l-3.485-3.483H364.821z M364.978,329.228l2.649,2.647l-0.081,0.082l-2.728-2.729H364.978z M365.274,361.791l3.486,3.483H368.6
				l-3.483-3.483h0.094H365.274z M365.433,329.228l2.421,2.422l-0.079,0.079l-2.501-2.501H365.433z M365.729,361.791l3.486,3.484
				h-0.161l-3.484-3.484H365.729z M365.887,329.228l2.195,2.192l-0.08,0.082l-2.273-2.274H365.887z M366.184,361.791l3.487,3.484
				h-0.162l-3.483-3.484H366.184z M366.342,329.228l1.967,1.967l-0.079,0.08l-2.048-2.047H366.342z M366.639,361.791l3.484,3.484
				h-0.159l-3.484-3.484H366.639z M366.796,329.228l1.74,1.739l-0.079,0.08l-1.82-1.819H366.796z M366.873,341.573l0.081,0.082
				h-0.161L366.873,341.573z M367.093,361.791l3.485,3.484h-0.16l-3.486-3.484H367.093z M367.101,341.347l0.31,0.31h-0.161
				l-0.229-0.229L367.101,341.347z M367.251,329.228l1.514,1.513l-0.081,0.079l-1.593-1.593L367.251,329.228z M367.327,341.121
				l0.536,0.535h-0.161l-0.454-0.456L367.327,341.121z M367.548,361.791l3.478,3.478l-0.153,0.007l-3.483-3.484H367.548
				L367.548,361.791z M367.554,340.894l0.766,0.763h-0.161l-0.684-0.683L367.554,340.894z M367.705,329.227l1.286,1.285l-0.08,0.08
				l-1.365-1.365H367.705z M367.782,340.666l0.989,0.99h-0.16l-0.909-0.91L367.782,340.666z M368.002,361.791l3.42,3.42
				l-0.135,0.025l-3.444-3.445H368.002z M368.009,340.439l1.217,1.217h-0.158l-1.139-1.137L368.009,340.439z M368.162,329.227
				l1.057,1.059l-0.079,0.08l-1.14-1.139H368.162L368.162,329.227z M368.235,340.211l1.444,1.445h-0.16l-1.364-1.363
				L368.235,340.211z M368.457,361.791l3.318,3.32l-0.12,0.039l-3.36-3.359H368.457L368.457,361.791z M368.463,339.984l1.672,1.672
				h-0.161l-1.591-1.592L368.463,339.984z M368.614,329.227l0.831,0.831l-0.079,0.079l-0.911-0.91H368.614z M368.689,339.756
				l1.899,1.899h-0.162l-1.817-1.819L368.689,339.756z M368.911,361.791l3.188,3.188l-0.11,0.051l-3.237-3.238H368.911
				L368.911,361.791z M368.918,339.53l2.126,2.126h-0.161l-2.047-2.046L368.918,339.53z M369.069,329.227l0.604,0.604l-0.08,0.079
				l-0.685-0.683H369.069L369.069,329.227z M369.145,339.301l2.354,2.354h-0.162l-2.271-2.274L369.145,339.301z M369.366,361.791
				l3.021,3.021l-0.102,0.062l-3.083-3.086h0.163V361.791z M369.371,339.075l2.58,2.581h-0.159l-2.501-2.501L369.371,339.075z
				 M369.523,329.227l0.377,0.376l-0.08,0.08l-0.456-0.458L369.523,329.227z M369.599,338.848l2.809,2.809h-0.16l-2.729-2.729
				L369.599,338.848z M369.818,361.791l2.834,2.834l-0.09,0.069l-2.903-2.901L369.818,361.791z M369.825,338.621l3.035,3.035h-0.159
				l-2.956-2.955L369.825,338.621z M369.979,329.225l0.149,0.148l-0.079,0.08l-0.229-0.229H369.979L369.979,329.225z
				 M370.054,338.393l3.263,3.264h-0.16l-3.183-3.182L370.054,338.393z M370.273,361.793l2.619,2.617l-0.083,0.078l-2.696-2.695
				H370.273z M370.275,338.17l3.483,3.485h-0.148l-3.41-3.409L370.275,338.17z"/>
		</g>
	</g>
</g>
</svg>
