<?xml version="1.0" encoding="utf-8"?>
<!-- Generator: Adobe Illustrator 16.0.4, SVG Export Plug-In . SVG Version: 6.00 Build 0)  -->
<!DOCTYPE svg PUBLIC "-//W3C//DTD SVG 1.1//EN" "http://www.w3.org/Graphics/SVG/1.1/DTD/svg11.dtd">
<svg version="1.1" id="Layer_1" xmlns="http://www.w3.org/2000/svg" xmlns:xlink="http://www.w3.org/1999/xlink" x="0px" y="0px"
	 width="400px" height="339.5px" viewBox="0 0 400 339.5" enable-background="new 0 0 400 339.5" xml:space="preserve">
<g>
	<g>
		<g>
			<path fill="#03A04D" d="M153.857,32.565l-37.521,135.857l37.521,138.573h-47.846l-31.5-114.559v114.559H26.134V32.62h48.377
				v110.401l31.5-110.452L153.857,32.565z"/>
			<path fill="#03A04D" d="M294.755,306.99h-48.376V191.41h-24.212v115.584h-48.376V32.565h48.384v110.452h24.199V32.565h48.377
				L294.755,306.99z"/>
			<path fill="#03A04D" d="M373.757,32.624v274.378h-48.375V32.624H373.757z"/>
		</g>
		<g>
			<path fill="#2E2925" d="M148.135,302.324l-25.602-25.6l0.791,2.832l13.605,13.604l16.888,13.81h-47.846l-31.5-114.56v-1.178
				l-24.185-24.185v2.044l24.185,24.184v1.115l-24.185-24.186v2.044l24.185,24.185v1.114l-24.185-24.186v2.04l24.185,24.185v1.114
				l-24.185-24.186v2.044l24.185,24.185v1.115l-24.185-24.186v2.043l24.185,24.186v1.113L50.286,182.83v2.044l24.185,24.185v1.114
				l-24.185-24.186v2.04l24.185,24.185v1.114l-24.185-24.185v2.04l24.185,24.184v1.115l-24.185-24.185v2.043l24.185,24.185v1.113
				l-24.185-24.185v2.04l24.185,24.186v1.114l-24.185-24.185v2.039l24.185,24.186v1.113l-24.185-24.185v2.044l24.185,24.186v1.113
				l-24.185-24.185v2.043l24.185,24.185v1.114l-24.184-24.179v2.039l24.185,24.186v1.114l-24.185-24.185v2.039l24.185,24.185v1.114
				l-24.185-24.186v2.045l24.185,24.186v1.113l-24.185-24.185v2.038l24.185,24.185v1.115l-24.185-24.185v2.043l24.185,24.186v1.114
				l-24.185-24.185v2.045l24.185,24.185v1.114l-24.185-24.186v2.038l24.185,24.185v1.115l-24.185-24.184v2.04l24.185,24.185v1.114
				l-24.185-24.185v2.039l24.185,24.186v1.113L50.287,236.48v2.039l24.185,24.186v1.111l-24.185-24.185v2.045l24.185,24.185v1.114
				l-24.185-24.184v2.043l24.185,24.185v1.114l-24.185-24.185v2.043l24.185,24.185v1.114l-24.185-24.186v2.041l24.185,24.185v1.114
				l-24.185-24.185v2.043l24.185,24.185v1.115l-24.185-24.186v2.04l24.185,24.185v1.112L50.287,258.57v2.039l24.185,24.186v1.115
				l-24.185-24.186v2.043l24.185,24.186v1.113l-24.185-24.185v2.045l24.185,24.185v1.115l-24.185-24.186v2.038l24.185,24.185v1.115
				l-24.185-24.186v2.043l24.185,24.186v1.114l-24.185-24.185v2.045l24.185,24.185v1.114L50.287,277.51v2.039l24.185,24.184v1.115
				l-24.185-24.185v2.143l24.185,24.192H26.095V32.624L50.287,56.77v1.933l24.185,24.186v1.114L50.287,59.817v2.04l24.185,24.184
				v1.115L50.287,62.972v2.04l24.185,24.185v1.114L50.287,66.126v2.039l24.185,24.186v1.115L50.287,69.279v2.04l24.185,24.186v1.113
				L50.287,72.434v2.043l24.185,24.185v1.114L50.287,75.592v2.04l24.185,24.185v1.114L50.287,78.745v2.04l24.185,24.185v1.115
				L50.287,81.899v2.043l24.185,24.186v1.114L50.287,85.057v2.04l24.185,24.185v1.114L50.287,88.211v2.04l24.185,24.185v1.114
				L50.287,91.365v2.04l24.185,24.185v1.113L50.287,94.519v2.04l24.185,24.185v1.114L50.287,97.674v2.04l24.185,24.184v1.114
				l-24.185-24.186v2.04l24.185,24.186v1.113l-24.185-24.184v2.043l24.185,24.186v1.113l-24.185-24.185v2.044l24.185,24.184v1.114
				l-24.185-24.185v2.04l24.185,24.185v1.114L50.287,113.45v2.04l24.185,24.185v1.114l-24.185-24.185v2.043l24.228,24.229
				l31.457-110.304l18.254,24.248l18.01,17.685l-0.239,0.87l-17.948-17.947l-0.461,1.579l17.967,17.967l-0.239,0.874l-17.979-17.979
				l-0.563,1.93l18.1,17.647l-0.239,0.875L122.624,62.31l-0.461,1.579l18.031,18.03l-0.24,0.874l-18.043-18.041l-0.46,1.578
				l18.062,18.062l-0.241,0.874l-18.069-18.069l-0.46,1.579l18.093,18.089l-0.24,0.875L120.495,69.64l-0.46,1.579L138.16,89.34
				l-0.241,0.874l-18.131-18.133l-0.461,1.579l18.152,18.152l-0.24,0.874l-18.164-18.164l-0.46,1.579l18.184,18.183l-0.24,0.875
				L118.36,76.962l-0.461,1.578l18.215,18.216l-0.241,0.874l-18.227-18.228l-0.46,1.579l18.246,18.247l-0.239,0.874l-18.259-18.258
				l-0.461,1.579l18.278,18.277l-0.239,0.875l-18.286-18.29l-0.461,1.579l18.31,18.311l-0.24,0.874l-18.317-18.317l-0.461,1.579
				l18.337,18.337l-0.24,0.874l-18.35-18.351l-0.46,1.579l18.369,18.368l-0.24,0.875l-18.381-18.381l-0.46,1.579l18.4,18.4
				l-0.24,0.874L113.38,94.055l-0.461,1.58l18.431,18.432l-0.24,0.87l-18.444-18.444l-0.46,1.579l18.463,18.463l-0.24,0.874
				l-18.475-18.475l-0.461,1.579l18.495,18.495l-0.239,0.874l-18.507-18.506l-0.46,1.578l18.525,18.526l-0.239,0.875l-18.535-18.534
				l-0.46,1.579l18.558,18.554l-0.24,0.874l-18.566-18.564l-0.46,1.579l18.584,18.585l-0.239,0.874l-18.6-18.601l-0.46,1.579
				l18.616,18.617l-0.239,0.875l-18.628-18.629l-0.461,1.579l18.648,18.647l-0.24,0.871l-18.661-18.66l-0.46,1.579l18.68,18.681
				l-0.24,0.875l-18.692-18.692l-0.461,1.579l18.711,18.711l-0.24,0.874l-18.723-18.723l-0.46,1.579l18.742,18.742l-0.24,0.875
				l-18.75-18.755l-0.46,1.579l18.773,18.774l-0.24,0.874l-18.782-18.782l-0.46,1.579l18.801,18.805l-0.239,0.875l-18.814-18.812
				l-0.461,1.579l18.833,18.833l-0.239,0.873l-18.845-18.845l-0.461,1.579l18.865,18.865l-0.241,0.874l-18.876-18.877l-0.46,1.579
				l18.896,18.896l-0.24,0.875l-18.908-18.908l-0.461,1.579l18.928,18.929l-0.24,0.869l-18.94-18.938l-0.46,1.579l18.959,18.959
				l-0.24,0.874L100.569,138l-0.461,1.579L119.1,158.57l-0.241,0.874l-18.998-18.999l-0.461,1.579l19.022,19.023l-0.239,0.874
				l-19.031-19.03l-0.461,1.579l19.05,19.05l-0.24,0.874l-19.062-19.062l-0.46,1.58l19.081,19.081l-0.24,0.87l-19.093-19.093
				l-0.46,1.579l19.125,19.125l0.414,1.526l-19.791-19.79l-0.461,1.579l21.01,21.012l0.414,1.527l-21.676-21.676l-0.46,1.579
				l22.896,22.896l0.413,1.528l-23.562-23.562l-0.461,1.579l24.779,24.778l0.414,1.527l-25.449-25.448l-0.46,1.579l26.665,26.665
				l0.414,1.528L94.16,159.973l-0.46,1.579l28.551,28.551l0.413,1.528l-29.216-29.218l-0.461,1.579l30.437,30.438l0.414,1.527
				l-31.104-31.103l-0.46,1.579l32.319,32.32l0.414,1.527l-32.934-32.935l0.792,2.831l32.902,32.902l0.413,1.526l-32.882-32.882
				l0.792,2.831l32.851,32.853l0.413,1.526l-32.836-32.833l0.792,2.831l32.799,32.8l0.413,1.528l-32.784-32.785l0.792,2.831
				l32.749,32.75l0.414,1.525L96.96,184.851l0.791,2.831l32.698,32.697l0.414,1.527L98.18,189.225l0.791,2.832l32.65,32.65
				l0.414,1.527l-32.631-32.632l0.792,2.832l32.599,32.599l0.414,1.526l-32.579-32.577l0.791,2.83l32.548,32.549l0.413,1.526
				l-32.528-32.526l0.792,2.83l32.497,32.497l0.413,1.526l-32.476-32.477l0.791,2.83l32.446,32.445l0.413,1.528l-32.43-32.431
				l0.792,2.832l32.394,32.395l0.413,1.527l-32.378-32.379l0.792,2.83l32.343,32.348l0.414,1.527l-32.328-32.326l0.792,2.83
				l32.295,32.297l0.414,1.526l-32.276-32.274l0.792,2.83L141,259.322l0.413,1.526l-32.225-32.226l0.791,2.832l32.194,32.193
				l0.413,1.527l-32.174-32.174l0.792,2.83l32.142,32.143l0.413,1.528l-32.123-32.122l0.792,2.831l32.091,32.091l0.414,1.527
				l-32.075-32.071l-0.422-1.508l1.213,4.34l32.04,32.039l0.413,1.528l-32.024-32.024l0.792,2.831l31.988,31.988l0.413,1.527
				L115.3,250.509l0.792,2.832l31.941,31.942l0.413,1.525l-31.92-31.923l0.791,2.832l31.89,31.89l0.413,1.528l-31.871-31.87
				l0.792,2.83l31.839,31.84l0.414,1.528l-31.819-31.82l0.791,2.832l31.788,31.787l0.414,1.528l-31.768-31.77l0.791,2.831
				l31.736,31.737l0.414,1.527l-31.717-31.723l0.792,2.832l31.685,31.688L148.135,302.324z M50.377,56.706l0.56-0.555l23.577,23.578
				v1.114L50.377,56.706z M74.582,146.003v-2.04l-24.185-24.185v2.04L74.582,146.003z M74.582,149.16v-2.04l-24.185-24.185v2.04
				L74.582,149.16z M74.582,152.318v-2.04l-24.185-24.185v2.04L74.582,152.318z M74.582,155.477v-2.044l-24.185-24.185v2.043
				L74.582,155.477z M74.582,158.635v-2.044l-24.185-24.186v2.044L74.582,158.635z M74.582,161.788v-2.04l-24.185-24.185v2.04
				L74.582,161.788z M74.582,164.942v-2.04l-24.185-24.185v2.04L74.582,164.942z M74.582,168.1v-2.04l-24.185-24.184v2.043
				L74.582,168.1z M74.582,171.259v-2.04l-24.185-24.186v2.04L74.582,171.259z M74.582,174.411v-2.04l-24.185-24.185v2.04
				L74.582,174.411z M74.582,177.569v-2.043l-24.185-24.185v2.044L74.582,177.569z M74.582,180.724v-2.04l-24.185-24.186v2.04
				L74.582,180.724z M74.582,183.883v-2.044l-24.185-24.185v2.043L74.582,183.883z M74.582,187.039v-2.04l-24.185-24.185v2.043
				L74.582,187.039z M74.582,188.157l-24.185-24.184v2.043l24.185,24.185V188.157z M52.511,54.572l-0.559,0.556l22.559,22.559
				v-1.115L52.511,54.572z M54.083,52.993l-0.559,0.556l20.979,20.979v-1.115L54.083,52.993z M55.67,51.423l-0.56,0.555
				l19.397,19.396V70.26L55.67,51.423z M57.245,49.844l-0.559,0.555l17.817,17.818v-1.115L57.245,49.844z M58.832,48.272
				l-0.559,0.555l16.238,16.239v-1.115L58.832,48.272z M60.375,46.67l-0.559,0.555l14.66,14.66v-1.114L60.375,46.67z M61.961,45.103
				l-0.559,0.555l13.08,13.081v-1.114L61.961,45.103z M63.537,43.52l-0.559,0.555L74.48,55.576v-1.113L63.537,43.52z M65.108,41.941
				l-0.559,0.555l9.923,9.923v-1.114L65.108,41.941z M66.695,40.369l-0.556,0.556l8.344,8.344v-1.114L66.695,40.369z M68.293,38.811
				l-0.559,0.555l6.765,6.766v-1.115L68.293,38.811z M69.869,37.231l-0.559,0.555l5.185,5.187v-1.114L69.869,37.231z M71.443,35.652
				l-0.559,0.555l3.606,3.607V38.7L71.443,35.652z M73.018,34.073l-0.559,0.556l2.028,2.027v-1.113L73.018,34.073z M74.042,33.054
				l0.449,0.449v-0.898L74.042,33.054z M124.333,282.852l6.599,5.395l-7.063-7.062L124.333,282.852z M126.254,55.273l-0.61,0.5
				l17.152,17.152l0.24-0.874L126.254,55.273z M127.987,53.856l-0.61,0.5l16.101,16.101l0.24-0.873L127.987,53.856z M129.728,52.423
				l-0.614,0.5l15.048,15.049l0.24-0.874L129.728,52.423z M131.464,51.006l-0.614,0.5l13.998,13.998l0.241-0.875L131.464,51.006z
				 M133.192,49.588l-0.609,0.5l12.946,12.945l0.24-0.874L133.192,49.588z M134.929,48.165l-0.61,0.5l11.895,11.896l0.241-0.875
				L134.929,48.165z M136.653,46.753l-0.61,0.5l10.844,10.844l0.241-0.874L136.653,46.753z M138.39,45.347l-0.609,0.5l9.792,9.793
				l0.24-0.875L138.39,45.347z M140.122,43.918l-0.614,0.5l8.742,8.74l0.24-0.874L140.122,43.918z M141.855,42.499l-0.611,0.5
				l7.69,7.69l0.24-0.874L141.855,42.499z M143.595,41.082l-0.614,0.5l6.639,6.64l0.24-0.874L143.595,41.082z M145.324,39.653
				l-0.61,0.5l5.587,5.587l0.24-0.874L145.324,39.653z M147.061,38.239l-0.614,0.5l4.536,4.536l0.239-0.874L147.061,38.239z
				 M148.793,36.811l-0.614,0.5l3.485,3.485l0.24-0.874L148.793,36.811z M150.525,35.389l-0.609,0.5l2.433,2.433l0.241-0.874
				L150.525,35.389z M152.262,33.983l-0.61,0.5l1.383,1.382l0.239-0.874L152.262,33.983z"/>
			<path fill="#2E2925" d="M197.836,163.895v5.198l24.216,24.184v1.115l-24.216-24.186v2.04l24.216,24.185v1.115l-24.216-24.186
				v2.04l24.216,24.186v1.115l-24.216-24.186v2.043l24.216,24.186v1.113l-24.216-24.185v2.043l24.216,24.185v1.114l-24.216-24.186
				v2.039l24.216,24.187v1.114l-24.216-24.186v2.043l24.216,24.186v1.114l-24.216-24.186v2.043l24.216,24.184v1.115l-24.216-24.185
				v2.04l24.216,24.186v1.113l-24.216-24.186v2.041l24.216,24.186v1.111l-24.216-24.184v2.045l24.216,24.185v1.114l-24.216-24.185
				v2.039l24.216,24.185v1.113l-24.216-24.185v2.04l24.216,24.185v1.114l-24.216-24.186v2.041l24.216,24.185v1.114l-24.216-24.186
				v2.043l24.216,24.186v1.115l-24.216-24.186v2.043l24.216,24.186v1.113l-24.216-24.186v2.041l24.216,24.185v1.114l-24.216-24.186
				v2.041l24.216,24.185v1.114l-24.216-24.186v2.044l24.216,24.185v1.115l-24.216-24.186v2.043l24.216,24.186v1.113l-24.216-24.186
				v2.041l24.216,24.185v1.114l-24.216-24.186v2.039l24.216,24.186v1.113l-24.216-24.185v2.04l24.216,24.186v1.113l-24.216-24.185
				v2.043l24.216,24.185v1.114l-24.216-24.185v2.039l24.217,24.191v1.115l-24.216-24.186v2.043l24.216,24.186v1.113l-24.216-24.185
				v2.043l24.216,24.185v1.115l-24.216-24.185v2.043l24.216,24.185v1.114l-24.216-24.185v2.045l24.216,24.185v1.114l-24.216-24.186
				v2.043l24.216,24.186v1.115l-24.216-24.186v2.043l24.216,24.186v1.113l-24.216-24.185v2.043l24.216,24.185v1.115l-24.216-24.185
				v2.04l24.216,24.184v1.115l-24.216-24.186v2.043l24.216,24.186v1.114l-24.216-24.185v2.043l24.216,24.185v1.114l-24.216-24.185
				v2.043l24.216,24.185v1.115l-24.216-24.186v2.043l24.216,24.204l-24.216-24.177l24.216,24.186h-48.235V32.503l24.019,24.191
				v2.008l24.22,24.196v1.115l-24.22-24.196v2.04l24.22,24.196v1.114l-24.22-24.196v2.04l24.22,24.195v1.114l-24.22-24.195v2.039
				l24.22,24.196v1.115l-24.22-24.196v2.043l24.22,24.196v1.114l-24.22-24.196v2.043l24.22,24.196v1.114l-24.22-24.195v2.04
				l24.22,24.195v1.115l-24.22-24.195v2.043l24.22,24.195v1.114l-24.22-24.196v2.043l24.22,24.196v1.115l-24.22-24.196v2.043
				l24.22,24.196v1.114l-24.22-24.196v2.04l24.22,24.195v1.114l-24.22-24.195v2.039l24.22,24.196v1.114l-24.22-24.196v2.04
				l24.22,24.196v1.114l-24.22-24.196v2.043l24.22,24.196v1.114l-24.22-24.195v2.043l24.22,24.195v1.114l-24.22-24.196v2.044
				l24.22,24.195v1.114l-24.22-24.196v2.044l24.22,24.196v1.114l-24.22-24.196v2.04l24.22,24.196v1.113l-24.22-24.195v2.043
				l24.22,24.192v1.114l-24.22-24.192v2.045l24.22,24.31l-0.5,0.5l-23.724-23.696v2.04l22.703,22.677l-0.56,0.556l-22.145-22.117
				v2.043l21.124,21.097l-0.556,0.556l-20.565-20.542v2.043l19.546,19.519l-0.556,0.555l-18.991-18.963v2.043l17.971,17.944
				l-0.556,0.555l-17.412-17.385v2.04l16.392,16.365l-0.556,0.556l-15.836-15.806v2.04l14.813,14.786l-0.557,0.555l-14.257-14.23
				v2.04l13.237,13.211l-0.555,0.556l-12.679-12.652v2.044l11.66,11.631l-0.556,0.556l-11.104-11.076v2.04l10.083,10.053
				l-0.556,0.559l-9.523-9.498v2.04l8.662,8.479l-0.787,0.555l-7.875-7.918v2.043l7.087,6.898l-0.787,0.556l-6.3-6.344v2.043
				l5.513,5.32l-0.787,0.555l-4.726-4.764v2.043l3.937,3.74l-0.786,0.556l-3.15-3.187v2.04l2.362,2.166l-0.788,0.555
				L197.836,163.895z M197.809,167.163v-1.114l0.788,0.586L197.809,167.163z M222.033,79.805v1.114l-24.22-24.186l0.787-0.555
				L222.033,79.805z M270.456,258.539v2.039l24.185,24.185v1.113l-24.185-24.185v2.039l24.185,24.186v1.113l-24.185-24.185v2.043
				l24.185,24.185v1.114l-24.185-24.184v2.039l24.185,24.185v1.115l-24.185-24.186v2.041l24.185,24.185v1.114l-24.185-24.186v2.043
				l24.185,24.186v1.113l-24.185-24.185v2.044l24.185,24.184v1.115l-24.185-24.185v2.036l24.188,24.188h-48.377V191.27h-24.216
				l-24.216-24.192h72.62v2.021l24.183,24.181v1.114l-24.183-24.181v2.04l24.183,24.181v1.114l-24.183-24.182v2.044l24.183,24.182
				v1.112l-24.183-24.18v2.04l24.183,24.181v1.115l-24.183-24.182v2.044l24.185,24.181v1.114l-24.185-24.185v2.043l24.185,24.185
				v1.114l-24.185-24.182v2.04l24.185,24.181v1.115l-24.185-24.181v2.043l24.185,24.181v1.113l-24.185-24.18v2.044l24.185,24.181
				v1.114l-24.185-24.185v2.04l24.185,24.181v1.114l-24.185-24.185v2.039l24.185,24.18v1.115l-24.185-24.185v2.044l24.185,24.184
				v1.114l-24.185-24.185v2.044l24.185,24.181v1.114l-24.185-24.185v2.039l24.185,24.186v1.113l-24.185-24.185v2.04l24.185,24.186
				v1.113l-24.185-24.185v2.044l24.185,24.186v1.113l-24.185-24.186v2.041l24.185,24.185v1.112l-24.185-24.186v2.045l24.185,24.186
				v1.113l-24.185-24.185v2.044l24.185,24.186v1.113l-24.185-24.185v2.043l24.185,24.185v1.114l-24.185-24.185v2.039l24.185,24.186
				v1.114l-24.185-24.185v2.043l24.185,24.186v1.113l-24.185-24.185v2.04l24.185,24.186v1.111l-24.185-24.185v2.045l24.185,24.185
				v1.114l-24.185-24.184v2.043l24.185,24.185v1.114l-24.185-24.185v2.039l24.185,24.186v1.111l-24.185-24.185v2.046l24.185,24.184
				v1.115l-24.185-24.185v2.038l24.185,24.186v1.113l-24.185-24.186v2.041l24.185,24.185v1.114L270.456,258.539z M222.033,76.654
				v1.114l-22.646-22.61l0.789-0.555L222.033,76.654z M222.033,73.509v1.113l-21.071-21.029l0.788-0.556L222.033,73.509z
				 M222.033,70.351v1.114l-19.495-19.451l0.787-0.555L222.033,70.351z M222.033,67.192v1.115l-17.922-17.873l0.789-0.555
				L222.033,67.192z M222.033,64.034v1.114l-16.346-16.293l0.787-0.555L222.033,64.034z M222.033,60.889v1.114l-14.721-14.72
				l0.557-0.555L222.033,60.889z M222.033,57.715v1.114l-13.141-13.14l0.559-0.555L222.033,57.715z M222.037,54.557v1.114
				l-11.561-11.562l0.553-0.555L222.037,54.557z M222.037,51.399v1.114l-9.98-9.981l0.555-0.555L222.037,51.399z M222.04,48.244
				v1.115l-8.406-8.407l0.556-0.555L222.04,48.244z M222.037,45.095v1.114l-6.827-6.828l0.554-0.556L222.037,45.095z
				 M222.037,41.944v1.115l-5.249-5.249l0.555-0.556L222.037,41.944z M222.033,38.786V39.9l-3.672-3.67l0.557-0.555L222.033,38.786z
				 M222.033,35.634v1.113l-2.092-2.091l0.559-0.555L222.033,35.634z M222.033,32.562v1.028l-0.518-0.517L222.033,32.562z
				 M294.648,191.305l-24.188-24.161l-24.192-24.192V32.498l24.186,24.193v2.036l24.191,24.192v1.113l-24.191-24.191v2.04
				l24.191,24.191v1.114l-24.191-24.192v2.04l24.191,24.193v1.114L270.453,66.15v2.04l24.191,24.192v1.114l-24.191-24.191v2.044
				l24.191,24.191v1.115l-24.191-24.192v2.04l24.191,24.191v1.114l-24.191-24.192v2.043l24.191,24.192v1.114l-24.191-24.192v2.044
				l24.191,24.192v1.114l-24.191-24.192v2.04l24.191,24.191v1.114l-24.191-24.191v2.043l24.191,24.191v1.114l-24.191-24.192v2.043
				l24.191,24.192v1.115l-24.191-24.192v2.04l24.191,24.192v1.113l-24.191-24.191v2.04l24.191,24.191v1.115L270.453,97.71v2.044
				l24.191,24.191v1.114l-24.191-24.192v2.04l24.191,24.192v1.114l-24.191-24.192v2.04l24.191,24.192v1.114l-24.191-24.191v2.04
				l24.191,24.191v1.115l-24.191-24.192v2.04l24.191,24.192v1.114l-24.191-24.192v2.04l24.191,24.192v1.114l-24.191-24.192v2.044
				l24.191,24.191v1.114l-24.191-24.191v2.043l24.191,24.191v1.114l-24.191-24.192v2.043l24.191,24.192v1.114l-24.191-24.192v2.04
				l24.191,24.192v1.113l-24.188-24.191v2.04l24.188,24.192v1.114l-24.188-24.188v2.04l24.188,24.188v1.114l-24.188-24.192v2.043
				l24.188,24.189v1.114l-24.188-24.188v2.04l24.188,24.188v1.115l-24.188-24.188v2.044l24.188,24.188v1.114l-24.188-24.188v2.045
				l24.188,24.188v1.114l-24.188-24.188v2.043l24.188,24.188v1.114l-24.188-24.188v2.04l24.188,24.188v1.113l-24.188-24.189v2.04
				l24.188,24.188v1.115l-24.188-24.188v2.044l24.188,24.188v1.114l-24.188-24.188v2.039l24.188,24.189v1.113l-24.188-24.188v2.04
				l24.188,24.188L294.648,191.305z M294.639,79.788v1.114L270.45,56.715l0.555-0.556L294.639,79.788z M294.646,76.631v1.114
				l-22.615-22.613l0.556-0.556L294.646,76.631z M294.646,73.473v1.114l-21.037-21.034l0.557-0.556L294.646,73.473z M294.641,70.322
				v1.115l-19.459-19.459l0.555-0.555L294.641,70.322z M294.646,67.164v1.114l-17.881-17.88l0.555-0.556L294.646,67.164z
				 M294.618,64.03v1.114l-16.302-16.301l0.556-0.556L294.618,64.03z M294.629,60.872v1.115l-14.727-14.727l0.557-0.556
				L294.629,60.872z M294.629,57.715v1.114L281.48,45.682l0.557-0.555L294.629,57.715z M294.629,54.557v1.114l-11.568-11.568
				l0.557-0.555L294.629,54.557z M294.621,51.406v1.115l-9.993-9.994l0.556-0.555L294.621,51.406z M294.618,48.253v1.113
				l-8.414-8.415l0.554-0.555L294.618,48.253z M294.626,45.099v1.114l-6.84-6.84l0.556-0.556L294.626,45.099z M294.634,41.933v1.114
				l-5.261-5.261l0.557-0.556L294.634,41.933z M294.634,38.775v1.114l-3.683-3.683l0.556-0.555L294.634,38.775z M294.639,35.621
				v1.114l-2.107-2.105l0.556-0.556L294.639,35.621z M294.629,32.53v1.056l-0.527-0.527L294.629,32.53z"/>
			<path fill="#2E2925" d="M349.541,56.68v1.933l24.185,24.186v1.113l-24.185-24.185v2.044l24.185,24.184v1.114l-24.185-24.185v2.04
				l24.185,24.185v1.114l-24.185-24.186v2.04l24.185,24.185v1.115l-24.185-24.186v2.04l24.185,24.185v1.114l-24.185-24.184v2.043
				l24.185,24.185v1.114l-24.185-24.185v2.04l24.185,24.185v1.114l-24.185-24.186v2.04l24.185,24.186v1.113l-24.185-24.185v2.044
				l24.185,24.184v1.115L349.541,84.97v2.043l24.185,24.185v1.115l-24.185-24.185v2.04l24.185,24.185v1.114l-24.185-24.186v2.04
				l24.185,24.186v1.113l-24.185-24.185v2.04l24.185,24.185v1.114L349.541,97.59v2.04l24.185,24.185v1.114l-24.185-24.186v2.04
				l24.185,24.186v1.113l-24.185-24.185v2.044l24.185,24.185v1.114l-24.185-24.185v2.04l24.185,24.185v1.114l-24.185-24.185v2.044
				l24.185,24.184v1.114l-24.185-24.186v2.04l24.185,24.186v1.114l-24.185-24.185v2.043l24.185,24.186v1.113l-24.185-24.184v2.039
				l24.185,24.185v1.115l-24.185-24.185v2.039l24.185,24.186v1.114l-24.185-24.186v2.04l24.185,24.186v1.113l-24.185-24.185v2.043
				l24.185,24.185v1.114L349.541,132.3v2.043l24.185,24.185v1.114l-24.185-24.186v2.04l24.185,24.186v1.115l-24.185-24.186v2.04
				l24.185,24.186v1.113l-24.185-24.185v2.044l24.185,24.185v1.114l-24.185-24.185v2.04l24.185,24.185v1.114l-24.185-24.185v2.043
				l24.185,24.186v1.114l-24.185-24.186v2.043l24.185,24.186v1.113l-24.185-24.185v2.04l24.185,24.185v1.115l-24.185-24.185v2.04
				l24.185,24.185v1.114l-24.185-24.186v2.04l24.185,24.186v1.113l-24.185-24.184v2.04l24.185,24.184v1.115l-24.185-24.185v2.043
				l24.185,24.185v1.114l-24.185-24.186v2.04l24.185,24.185v1.115l-24.185-24.187v2.04l24.185,24.186v1.114l-24.185-24.186v2.043
				l24.185,24.186v1.113l-24.185-24.185v2.043l24.185,24.185v1.114l-24.185-24.186v2.04l24.185,24.186v1.115l-24.185-24.187v2.043
				l24.185,24.186v1.114L349.541,189.1v2.04l24.185,24.185v1.113l-24.185-24.184v2.039l24.185,24.186v1.114l-24.185-24.182v2.04
				l24.185,24.186v1.113l-24.185-24.184v2.039l24.185,24.186v1.113l-24.185-24.186v2.044l24.185,24.185v1.115l-24.185-24.185v2.038
				l24.185,24.186v1.115l-24.185-24.186v2.039l24.185,24.185v1.114l-24.185-24.186v2.043l24.185,24.186v1.115l-24.185-24.186v2.045
				l24.185,24.184v1.115l-24.185-24.185v2.038l24.185,24.185v1.114l-24.185-24.186v2.041l24.185,24.185v1.114l-24.185-24.186v2.044
				l24.185,24.185v1.115l-24.185-24.186v2.043l24.185,24.186v1.113l-24.185-24.186v2.041l24.185,24.185v1.114l-24.185-24.186v2.041
				l24.185,24.185v1.114l-24.185-24.185v2.039l24.185,24.185v1.113l-24.185-24.185v2.045l24.185,24.185v1.114l-24.185-24.185v2.037
				l24.185,24.186v1.113l-24.185-24.184v2.045l24.185,24.185v1.112l-24.185-24.185v2.045l24.185,24.185v1.115l-24.185-24.186v2.043
				l24.185,24.186v1.114l-24.185-24.185v2.039l24.185,24.186v1.114l-24.185-24.187v2.045l24.185,24.185v1.114l-24.185-24.186v2.044
				l24.185,24.185v1.115l-24.185-24.186v2.043l24.185,24.186v1.113l-24.185-24.185v2.04l24.185,24.185v1.114l-24.185-24.186v2.045
				l24.185,24.185v1.114l-24.185-24.186v2.043l24.185,24.186v1.113l-24.185-24.185v2.044l24.185,24.184v1.115l-24.185-24.185v2.146
				l24.189,24.189h-48.378V32.586L349.541,56.68z M349.625,56.706l0.556-0.555l23.576,23.578v1.114L349.625,56.706z M351.2,55.123
				l0.559-0.555l21.998,21.999v1.114L351.2,55.123z M352.774,53.54l0.559-0.555l20.421,20.42v1.114L352.774,53.54z M354.361,51.97
				l0.556-0.556l18.84,18.842v1.114L354.361,51.97z M355.938,50.391l0.559-0.555l17.262,17.262v1.114L355.938,50.391z
				 M357.519,48.823l0.561-0.555l15.684,15.683v1.114L357.519,48.823z M359.07,47.218l0.561-0.556l14.104,14.104v1.114
				L359.07,47.218z M360.653,45.646l0.56-0.555l12.524,12.524v1.115L360.653,45.646z M362.229,44.067l0.56-0.555l10.946,10.946
				v1.113L362.229,44.067z M363.808,42.488l0.561-0.555l9.367,9.368v1.113L363.808,42.488z M365.391,40.917l0.556-0.556l7.789,7.789
				v1.114L365.391,40.917z M366.985,39.354l0.559-0.555l6.21,6.209v1.114L366.985,39.354z M368.561,37.774l0.561-0.555l4.63,4.63
				v1.114L368.561,37.774z M370.135,36.196l0.56-0.555l3.052,3.052v1.114L370.135,36.196z M371.711,34.616l0.559-0.555l1.474,1.473
				v1.114L371.711,34.616z M373.293,33.047l0.449-0.449v0.897L373.293,33.047z"/>
		</g>
	</g>
</g>
</svg>
